g G_CA_Prinzeugen_Facial_Shy_001
v 0.05059104 -0.009627037 1.477197
v 0.0535271 -0.009580061 1.479616
v 0.05507734 -0.009039823 1.479288
v 0.05211779 -0.0111303 1.474966
v 0.05430222 -0.01105984 1.467449
v 0.04683287 -0.01479451 1.470362
v 0.05770806 -0.006737947 1.469728
v 0.05958714 -0.006150734 1.478184
v 0.05472502 -0.0111303 1.460074
v 0.0484066 -0.01582801 1.464184
v 0.03905817 -0.01669709 1.468177
v 0.03889375 -0.0133852 1.470244
v 0.04495379 -0.01143565 1.472499
v 0.03273975 -0.01556963 1.470221
v 0.03245789 -0.01906943 1.468436
v 0.02707902 -0.01791849 1.471771
v 0.02599854 -0.02087804 1.470244
v 0.02263968 -0.02059618 1.474449
v 0.02045525 -0.02226387 1.473204
v 0.02031432 -0.02125386 1.478395
v 0.01730779 -0.02367318 1.478512
v 0.03043788 -0.02160619 1.463198
v 0.02202898 -0.02296852 1.466557
v 0.01467707 -0.02501202 1.47217
v 0.04077283 -0.01852919 1.462164
v 0.04086678 -0.02111293 1.455047
v 0.02646831 -0.02536435 1.455494
v 0.04911126 -0.01735476 1.457091
v 0.01702593 -0.02566971 1.46409
v 0.009720992 -0.03210556 1.456504
v 0.01312683 -0.02679715 1.478747
v 0.005164217 -0.02952182 1.471442
v 0.005657475 -0.03088416 1.479663
v -3.259629E-06 -0.03053183 1.471372
v -3.259629E-06 -0.03224649 1.479734
v 0.004154209 -0.02975671 1.46503
v -3.259629E-06 -0.03123649 1.465124
v 0.002744898 -0.03461883 1.458171
v -3.259629E-06 -0.03602815 1.458829
v 0.001030236 -0.04112516 1.452933
v -3.259629E-06 -0.04225261 1.453591
v 0.0007953495 -0.04516518 1.450256
v 0.002087217 -0.04112516 1.447672
v 0.003003273 -0.0387763 1.450326
v -3.259629E-06 -0.04612821 1.451078
v 0.01089542 -0.02712599 1.46456
v 0.006291665 -0.03722606 1.444712
v 0.007794932 -0.0357228 1.449011
v 0.01242217 -0.03424302 1.443632
v 0.0139959 -0.03250486 1.44833
v 0.02045525 -0.03036741 1.44133
v 0.02296852 -0.02877019 1.446779
v 0.03057881 -0.02578714 1.446709
v 0.02743134 -0.02656227 1.439474
v 0.03835351 -0.02186456 1.44234
v 0.03992724 -0.02200549 1.447273
v 0.04899381 -0.01742523 1.44732
v 0.0484066 -0.01054309 1.474989
v -0.05059756 -0.009627037 1.477197
v -0.05210082 -0.0111303 1.474966
v -0.05508386 -0.009039823 1.479288
v -0.05351014 -0.009580061 1.479616
v -0.05430874 -0.01105984 1.467449
v -0.04683939 -0.01479451 1.470362
v -0.05771458 -0.006737947 1.469728
v -0.05959366 -0.006150734 1.478184
v -0.05473154 -0.0111303 1.460074
v -0.04841312 -0.01582801 1.464184
v -0.03906469 -0.01669709 1.468177
v -0.03890027 -0.0133852 1.470244
v -0.04493682 -0.01143565 1.472499
v -0.03274627 -0.01556963 1.470221
v -0.03246441 -0.01906943 1.468436
v -0.02708554 -0.01791849 1.471771
v -0.02598158 -0.02087804 1.470244
v -0.0226462 -0.02059618 1.474449
v -0.02046177 -0.02226387 1.473204
v -0.02032084 -0.02125386 1.478395
v -0.01731431 -0.02367318 1.478512
v -0.03042091 -0.02160619 1.463198
v -0.0220355 -0.02296852 1.466557
v -0.01466011 -0.02501202 1.47217
v -0.04075586 -0.01852919 1.462164
v -0.0408733 -0.02111293 1.455047
v -0.02647483 -0.02536435 1.455494
v -0.04911778 -0.01735476 1.457091
v -0.01700896 -0.02566971 1.46409
v -0.009727515 -0.03210556 1.456504
v -0.01313335 -0.02679715 1.478747
v -0.00517074 -0.02952182 1.471442
v -0.005663998 -0.03088416 1.479663
v -0.004160732 -0.02975671 1.46503
v -0.00272793 -0.03461883 1.458171
v -0.001013268 -0.04112516 1.452933
v -0.0007783808 -0.04516518 1.450256
v -0.002070252 -0.04112516 1.447672
v -0.003009796 -0.0387763 1.450326
v -0.01090194 -0.02712599 1.46456
v -0.006298184 -0.03722606 1.444712
v -0.007801451 -0.0357228 1.449011
v -0.0124052 -0.03424302 1.443632
v -0.01400243 -0.03250486 1.44833
v -0.02046177 -0.03036741 1.44133
v -0.02297504 -0.02877019 1.446779
v -0.03058533 -0.02578714 1.446709
v -0.02743787 -0.02656227 1.439474
v -0.03836003 -0.02186456 1.44234
v -0.03993376 -0.02200549 1.447273
v -0.04900034 -0.01742523 1.44732
v -0.04841312 -0.01054309 1.474989
vt 0.9247311 0.8260019
vt 0.949169 0.8748777
vt 0.9618767 0.8680351
vt 0.9374388 0.7810361
vt 0.9560116 0.6285434
vt 0.8934506 0.688172
vt 0.9843596 0.6754642
vt 0.9999999 0.8455522
vt 0.9589441 0.4799608
vt 0.9061583 0.5630498
vt 0.8279569 0.6441837
vt 0.8260019 0.6852394
vt 0.8768327 0.7311827
vt 0.775171 0.6852394
vt 0.7722384 0.6490713
vt 0.7272726 0.71652
vt 0.718475 0.6852394
vt 0.690127 0.7702834
vt 0.6715541 0.7458454
vt 0.6705766 0.8504398
vt 0.6451612 0.8523948
vt 0.7556207 0.5434995
vt 0.6852394 0.6109481
vt 0.6226783 0.7243401
vt 0.8416421 0.5229716
vt 0.8426197 0.3782991
vt 0.722385 0.3880742
vt 0.9120234 0.4193548
vt 0.6432062 0.5610948
vt 0.5816226 0.4076246
vt 0.6099706 0.8572824
vt 0.5434995 0.7096773
vt 0.5474095 0.8758552
vt 0.4995112 0.7077223
vt 0.4995112 0.8768327
vt 0.5347018 0.5806451
vt 0.4995112 0.5826001
vt 0.5229716 0.4418377
vt 0.4995112 0.4555229
vt 0.5083088 0.3352883
vt 0.4995112 0.3489736
vt 0.5063538 0.2815249
vt 0.5171065 0.2297165
vt 0.5249266 0.2834799
vt 0.4995112 0.2981427
vt 0.5913978 0.5708699
vt 0.5532746 0.170088
vt 0.5659823 0.257087
vt 0.6041055 0.1485826
vt 0.6177908 0.2434017
vt 0.6715541 0.1016618
vt 0.6930596 0.2121212
vt 0.7565982 0.2101662
vt 0.7302052 0.06451612
vt 0.8220918 0.1221896
vt 0.8347995 0.2218964
vt 0.9110458 0.2228739
vt 0.9061583 0.7810361
vt 0.07526881 0.8260019
vt 0.06256109 0.7810361
vt 0.03812316 0.8680351
vt 0.05083088 0.8748777
vt 0.04398827 0.6285434
vt 0.1065494 0.688172
vt 0.01564027 0.6754642
vt 0 0.8455522
vt 0.04105571 0.4799608
vt 0.09384163 0.5630498
vt 0.172043 0.6441837
vt 0.173998 0.6852394
vt 0.1231671 0.7311827
vt 0.2248289 0.6852394
vt 0.2277615 0.6490713
vt 0.2727273 0.71652
vt 0.2815249 0.6852394
vt 0.3098729 0.7702834
vt 0.3284457 0.7458454
vt 0.3294232 0.8504398
vt 0.3548387 0.8523948
vt 0.2443793 0.5434995
vt 0.3147605 0.6109481
vt 0.3773216 0.7243401
vt 0.1583578 0.5229716
vt 0.1573802 0.3782991
vt 0.2776148 0.3880742
vt 0.08797653 0.4193548
vt 0.3567937 0.5610948
vt 0.4183773 0.4076246
vt 0.3900293 0.8572824
vt 0.4565004 0.7096773
vt 0.4525904 0.8758552
vt 0.4652981 0.5806451
vt 0.4770283 0.4418377
vt 0.4916911 0.3352883
vt 0.4936461 0.2815249
vt 0.4828934 0.2297165
vt 0.4750732 0.2834799
vt 0.4086021 0.5708699
vt 0.4467253 0.170088
vt 0.4340175 0.257087
vt 0.3958944 0.1485826
vt 0.3822092 0.2434017
vt 0.3284457 0.1016618
vt 0.3069403 0.2121212
vt 0.2434017 0.2101662
vt 0.2697947 0.06451612
vt 0.1779081 0.1221896
vt 0.1652004 0.2218964
vt 0.08895405 0.2228739
vt 0.09384163 0.7810361
vn -0.07480079 -0.9173559 0.390977
vn -0.02373379 -0.946537 0.3217212
vn 0.3848012 -0.9100606 0.1540055
vn 0.21701 -0.9246511 0.3129328
vn 0.6620215 -0.7422694 0.1037483
vn 0.1586479 -0.8444031 0.5116778
vn 0.7276789 -0.6839073 0.05248115
vn 0.5307066 -0.8444031 -0.07303274
vn 0.7422694 -0.6693167 0.0324234
vn 0.3993918 -0.8808795 0.2540424
vn 0.1805337 -0.7787458 0.6008016
vn 0.01274252 -0.5307066 0.8474598
vn -0.2280014 -0.596364 0.7696527
vn 0.2680769 -0.486935 0.8312816
vn 0.3191438 -0.7495646 0.5799139
vn 0.4504586 -0.5598876 0.6954228
vn 0.406687 -0.8079268 0.4264504
vn 0.5744782 -0.7349741 0.3602608
vn 0.4723445 -0.8589937 0.197536
vn 0.5890688 -0.7933363 0.1536735
vn 0.5452971 -0.8371079 0.04360491
vn 0.297258 -0.9027653 0.3108897
vn 0.3264391 -0.9027653 0.2800933
vn 0.4285728 -0.9027653 0.03660644
vn 0.2753722 -0.9100606 0.3097739
vn 0.3410296 -0.9246511 0.169467
vn 0.3264391 -0.9100606 0.2553962
vn 0.5452971 -0.8298126 0.1185833
vn 0.3191438 -0.9027653 0.2883781
vn 0.3993918 -0.8371079 0.3738136
vn 0.5015255 -0.8516985 -0.1519273
vn 0.3337343 -0.9392417 -0.08028961
vn 0.3264391 -0.9319464 -0.1578399
vn -0.001848042 -0.9976038 -0.06916077
vn -0.001848042 -0.9830133 -0.1835252
vn 0.3556201 -0.9027653 0.2419691
vn -0.001848042 -0.946537 0.3225901
vn 0.4650492 -0.7349741 0.4935
vn -0.001848042 -0.7641552 0.6450298
vn 0.8079268 -0.4431634 0.3884076
vn -0.001848042 -0.6328404 0.7742801
vn 0.8589937 -0.3410296 0.3818751
vn 0.866289 -0.4504586 0.2159405
vn 0.75686 -0.6036593 0.2505164
vn -0.001848042 -0.5744782 0.8185177
vn 0.3264391 -0.9027653 0.2800933
vn 0.5598876 -0.8152221 0.1481175
vn 0.5161161 -0.8371079 0.1813135
vn 0.4504586 -0.8808795 0.1453902
vn 0.4285728 -0.8808795 0.2009393
vn 0.4504586 -0.8881748 0.09073364
vn 0.4139823 -0.9027653 0.116762
vn 0.3628734 -0.9318385 0
vn 0.4139823 -0.9100606 -0.02020771
vn 0.406687 -0.9027653 -0.1400729
vn 0.406687 -0.9100606 -0.07997124
vn 0.5234113 -0.8516985 -0.02550189
vn -0.1696393 -0.7422694 0.6482736
vn 0.07110465 -0.9173559 0.3916661
vn -0.2207062 -0.9246511 0.310337
vn -0.3884973 -0.9100606 0.1444283
vn 0.02733302 -0.946537 0.3214354
vn -0.6657175 -0.7422694 0.07652631
vn -0.1550487 -0.8444031 0.5127799
vn -0.730412 -0.6830068 0
vn -0.5271074 -0.8444031 -0.09560903
vn -0.7386702 -0.6693167 0.07988455
vn -0.3957925 -0.8808795 0.2596143
vn -0.1769345 -0.7787458 0.6018714
vn -0.009143293 -0.5307066 0.8475062
vn 0.2316006 -0.596364 0.7685773
vn -0.2644778 -0.486935 0.8324336
vn -0.3228399 -0.7495646 0.5778643
vn -0.4541547 -0.5598876 0.6930147
vn -0.4103832 -0.8079268 0.4228946
vn -0.570879 -0.7349741 0.3659373
vn -0.4760405 -0.8589937 0.1884547
vn -0.5854695 -0.7933363 0.166862
vn -0.5416979 -0.8371079 0.07624774
vn -0.2936588 -0.9027653 0.3142917
vn -0.3301352 -0.9027653 0.2757272
vn -0.4249737 -0.9027653 0.06642375
vn -0.2790683 -0.9100606 0.3064483
vn -0.3374304 -0.9246511 0.1765246
vn -0.3301352 -0.9100606 0.2506002
vn -0.5416979 -0.8298126 0.1340683
vn -0.3155447 -0.9027653 0.292312
vn -0.3957925 -0.8371079 0.3776223
vn -0.5052217 -0.8516985 -0.1391432
vn -0.3301352 -0.9392417 -0.09399889
vn -0.3228399 -0.9319464 -0.1650766
vn -0.3520209 -0.9027653 0.2471761
vn -0.46145 -0.7349741 0.496867
vn -0.8043277 -0.4431634 0.3958071
vn -0.8626898 -0.3410296 0.3734503
vn -0.8626898 -0.4504586 0.2298986
vn -0.7532608 -0.6036593 0.2611391
vn -0.3301352 -0.9027653 0.2757272
vn -0.5562885 -0.8152221 0.1611088
vn -0.5125169 -0.8371079 0.1912505
vn -0.4468594 -0.8808795 0.1561025
vn -0.4249737 -0.8808795 0.2084435
vn -0.4541547 -0.8881748 0.06992232
vn -0.4103832 -0.9027653 0.1288424
vn -0.366076 -0.9305849 0
vn -0.4171228 -0.9088501 0
vn -0.4103832 -0.9027653 -0.1288424
vn -0.4103832 -0.9100606 -0.05809778
vn -0.5198122 -0.8516985 -0.06637079
vn 0.1659431 -0.7422694 0.6492295
g G_CA_Prinzeugen_Facial_Shy_001_0
f 3/3/3 2/2/2 1/1/1
f 4/4/4 3/3/3 1/1/1
f 3/3/3 4/4/4 5/5/5
f 4/4/4 6/6/6 5/5/5
f 7/7/7 3/3/3 5/5/5
f 8/8/8 3/3/3 7/7/7
f 9/9/9 7/7/7 5/5/5
f 10/10/10 5/5/5 6/6/6
f 6/6/6 11/11/11 10/10/10
f 11/11/11 6/6/6 12/12/12
f 6/6/6 13/13/13 12/12/12
f 11/11/11 12/12/12 14/14/14
f 15/15/15 11/11/11 14/14/14
f 15/15/15 14/14/14 16/16/16
f 17/17/17 15/15/15 16/16/16
f 16/16/16 18/18/18 17/17/17
f 18/18/18 19/19/19 17/17/17
f 18/18/18 20/20/20 19/19/19
f 20/20/20 21/21/21 19/19/19
f 15/15/15 17/17/17 22/22/22
f 17/17/17 23/23/23 22/22/22
f 19/19/19 23/23/23 17/17/17
f 24/24/24 23/23/23 19/19/19
f 19/19/19 21/21/21 24/24/24
f 15/15/15 22/22/22 25/25/25
f 11/11/11 15/15/15 25/25/25
f 11/11/11 25/25/25 10/10/10
f 25/25/25 22/22/22 26/26/26
f 22/22/22 27/27/27 26/26/26
f 25/25/25 26/26/26 28/28/28
f 10/10/10 25/25/25 28/28/28
f 5/5/5 10/10/10 28/28/28
f 29/29/29 22/22/22 23/23/23
f 24/24/24 29/29/29 23/23/23
f 27/27/27 22/22/22 29/29/29
f 30/30/30 27/27/27 29/29/29
f 21/21/21 31/31/31 24/24/24
f 24/24/24 31/31/31 32/32/32
f 31/31/31 33/33/33 32/32/32
f 34/34/34 32/32/32 33/33/33
f 35/35/35 34/34/34 33/33/33
f 36/36/36 32/32/32 34/34/34
f 37/37/37 36/36/36 34/34/34
f 38/38/38 36/36/36 37/37/37
f 36/36/36 38/38/38 30/30/30
f 39/39/39 38/38/38 37/37/37
f 38/38/38 39/39/39 40/40/40
f 39/39/39 41/41/41 40/40/40
f 40/40/40 41/41/41 42/42/42
f 40/40/40 42/42/42 43/43/43
f 44/44/44 40/40/40 43/43/43
f 30/30/30 38/38/38 44/44/44
f 40/40/40 44/44/44 38/38/38
f 41/41/41 45/45/45 42/42/42
f 46/46/46 36/36/36 30/30/30
f 46/46/46 32/32/32 36/36/36
f 43/43/43 47/47/47 44/44/44
f 44/44/44 47/47/47 48/48/48
f 48/48/48 47/47/47 49/49/49
f 50/50/50 48/48/48 49/49/49
f 50/50/50 49/49/49 51/51/51
f 52/52/52 50/50/50 51/51/51
f 50/50/50 30/30/30 48/48/48
f 30/30/30 44/44/44 48/48/48
f 50/50/50 27/27/27 30/30/30
f 52/52/52 27/27/27 50/50/50
f 53/53/53 27/27/27 52/52/52
f 54/54/54 53/53/53 52/52/52
f 54/54/54 52/52/52 51/51/51
f 55/55/55 53/53/53 54/54/54
f 53/53/53 26/26/26 27/27/27
f 26/26/26 53/53/53 56/56/56
f 53/53/53 55/55/55 56/56/56
f 56/56/56 55/55/55 57/57/57
f 28/28/28 56/56/56 57/57/57
f 56/56/56 28/28/28 26/26/26
f 57/57/57 9/9/9 28/28/28
f 9/9/9 5/5/5 28/28/28
f 30/30/30 29/29/29 46/46/46
f 29/29/29 24/24/24 46/46/46
f 24/24/24 32/32/32 46/46/46
f 13/13/13 6/6/6 58/58/58
f 6/6/6 4/4/4 58/58/58
f 4/4/4 1/1/1 58/58/58
f 61/61/61 60/60/60 59/59/59
f 62/62/62 61/61/61 59/59/59
f 60/60/60 61/61/61 63/63/63
f 64/64/64 60/60/60 63/63/63
f 61/61/61 65/65/65 63/63/63
f 61/61/61 66/66/66 65/65/65
f 65/65/65 67/67/67 63/63/63
f 63/63/63 68/68/68 64/64/64
f 69/69/69 64/64/64 68/68/68
f 64/64/64 69/69/69 70/70/70
f 71/71/71 64/64/64 70/70/70
f 70/70/70 69/69/69 72/72/72
f 69/69/69 73/73/73 72/72/72
f 72/72/72 73/73/73 74/74/74
f 73/73/73 75/75/75 74/74/74
f 76/76/76 74/74/74 75/75/75
f 77/77/77 76/76/76 75/75/75
f 78/78/78 76/76/76 77/77/77
f 79/79/79 78/78/78 77/77/77
f 75/75/75 73/73/73 80/80/80
f 81/81/81 75/75/75 80/80/80
f 81/81/81 77/77/77 75/75/75
f 81/81/81 82/82/82 77/77/77
f 79/79/79 77/77/77 82/82/82
f 73/73/73 69/69/69 83/83/83
f 80/80/80 73/73/73 83/83/83
f 83/83/83 69/69/69 68/68/68
f 80/80/80 83/83/83 84/84/84
f 85/85/85 80/80/80 84/84/84
f 84/84/84 83/83/83 86/86/86
f 83/83/83 68/68/68 86/86/86
f 68/68/68 63/63/63 86/86/86
f 80/80/80 87/87/87 81/81/81
f 87/87/87 82/82/82 81/81/81
f 80/80/80 85/85/85 87/87/87
f 85/85/85 88/88/88 87/87/87
f 89/89/89 79/79/79 82/82/82
f 89/89/89 82/82/82 90/90/90
f 91/91/91 89/89/89 90/90/90
f 90/90/90 34/34/34 91/91/91
f 34/34/34 35/35/35 91/91/91
f 90/90/90 92/92/92 34/34/34
f 92/92/92 37/37/37 34/34/34
f 92/92/92 93/93/93 37/37/37
f 93/93/93 92/92/92 88/88/88
f 93/93/93 39/39/39 37/37/37
f 39/39/39 93/93/93 94/94/94
f 41/41/41 39/39/39 94/94/94
f 41/41/41 94/94/94 95/95/95
f 95/95/95 94/94/94 96/96/96
f 94/94/94 97/97/97 96/96/96
f 93/93/93 88/88/88 97/97/97
f 97/97/97 94/94/94 93/93/93
f 45/45/45 41/41/41 95/95/95
f 92/92/92 98/98/98 88/88/88
f 90/90/90 98/98/98 92/92/92
f 99/99/99 96/96/96 97/97/97
f 99/99/99 97/97/97 100/100/100
f 99/99/99 100/100/100 101/101/101
f 100/100/100 102/102/102 101/101/101
f 101/101/101 102/102/102 103/103/103
f 102/102/102 104/104/104 103/103/103
f 88/88/88 102/102/102 100/100/100
f 97/97/97 88/88/88 100/100/100
f 85/85/85 102/102/102 88/88/88
f 85/85/85 104/104/104 102/102/102
f 85/85/85 105/105/105 104/104/104
f 105/105/105 106/106/106 104/104/104
f 104/104/104 106/106/106 103/103/103
f 105/105/105 107/107/107 106/106/106
f 84/84/84 105/105/105 85/85/85
f 105/105/105 84/84/84 108/108/108
f 107/107/107 105/105/105 108/108/108
f 107/107/107 108/108/108 109/109/109
f 108/108/108 86/86/86 109/109/109
f 86/86/86 108/108/108 84/84/84
f 67/67/67 109/109/109 86/86/86
f 63/63/63 67/67/67 86/86/86
f 87/87/87 88/88/88 98/98/98
f 82/82/82 87/87/87 98/98/98
f 90/90/90 82/82/82 98/98/98
f 64/64/64 71/71/71 110/110/110
f 60/60/60 64/64/64 110/110/110
f 59/59/59 60/60/60 110/110/110
