g G_CA_Prinzeugen_Mech_002_P
v 0.003255874 -0.2936145 0.06493348
v 0.005722553 -0.2978999 0.06493348
v 0.009025425 -0.2978999 0.9108617
v 0.00490731 -0.2907507 0.9108617
v -0.001677513 -0.2936145 0.06493348
v -0.003328949 -0.2907507 0.9108617
v -0.004144192 -0.2978999 0.06493348
v -0.007447064 -0.2978999 0.9108617
v 0.00490731 -0.3050282 0.9108617
v 0.003255874 -0.3021643 0.06493348
v -0.003328949 -0.3050282 0.9108617
v -0.001677513 -0.3021643 0.06493348
v -0.007447064 -0.2978999 0.9108617
v -0.004144192 -0.2978999 0.06493348
v -0.001677513 -0.3021643 0.06493348
v 0.005722553 -0.2978999 0.06493348
v -0.001677513 -0.2936145 0.06493348
v -0.004144192 -0.2978999 0.06493348
v 0.003255874 -0.2936145 0.06493348
v 0.003255874 -0.3021643 0.06493348
v 0.005409002 -0.2898936 0.9132657
v 0.00490731 -0.2907507 0.9108617
v 0.009025425 -0.2978999 0.9108617
v 0.01000792 -0.2978999 0.9132657
v -0.003830642 -0.2898936 0.9132657
v -0.003328949 -0.2907507 0.9108617
v -0.008450449 -0.2978999 0.9132657
v -0.007447064 -0.2978999 0.9108617
v 0.00490731 -0.3050282 0.9108617
v 0.005409002 -0.3058853 0.9132657
v -0.003328949 -0.3050282 0.9108617
v -0.003830642 -0.3058853 0.9132657
v -0.007447064 -0.2978999 0.9108617
v -0.008450449 -0.2978999 0.9132657
v 0.005346298 -0.2899981 1.026629
v 0.005889803 -0.2890365 1.02435
v 0.01099041 -0.2978999 1.02435
v 0.009903401 -0.2978999 1.026629
v -0.003767937 -0.2899981 1.026629
v -0.004311442 -0.2890365 1.02435
v -0.00832504 -0.2978999 1.026629
v -0.009432942 -0.2978999 1.02435
v 0.005889803 -0.3067423 1.02435
v 0.005346298 -0.3057807 1.026629
v -0.004311442 -0.3067423 1.02435
v -0.003767937 -0.3057807 1.026629
v -0.009432942 -0.2978999 1.02435
v -0.00832504 -0.2978999 1.026629
v 0.005889803 -0.2890365 1.02435
v 0.005409002 -0.2898936 0.9132657
v 0.01000792 -0.2978999 0.9132657
v 0.01099041 -0.2978999 1.02435
v -0.004311442 -0.2890365 1.02435
v -0.003830642 -0.2898936 0.9132657
v -0.009432942 -0.2978999 1.02435
v -0.008450449 -0.2978999 0.9132657
v 0.005409002 -0.3058853 0.9132657
v 0.005889803 -0.3067423 1.02435
v -0.003830642 -0.3058853 0.9132657
v -0.004311442 -0.3067423 1.02435
v -0.008450449 -0.2978999 0.9132657
v -0.009432942 -0.2978999 1.02435
v 0.00848192 -0.2870506 1.041116
v 0.005346298 -0.2899981 1.026629
v 0.009903401 -0.2978999 1.026629
v 0.01379156 -0.2978999 1.041116
v -0.003767937 -0.2899981 1.026629
v -0.00878492 -0.2870506 1.041116
v -0.00832504 -0.2978999 1.026629
v -0.01411548 -0.2978999 1.041116
v 0.006872296 -0.2873433 1.055142
v 0.0129554 -0.2978999 1.055142
v -0.01093805 -0.2873433 1.055142
v -0.01702115 -0.2978999 1.055142
v -0.007551581 -0.2978999 1.061225
v -0.00878492 -0.3087282 1.041116
v -0.003767937 -0.3057807 1.026629
v -0.00832504 -0.2978999 1.026629
v -0.01411548 -0.2978999 1.041116
v 0.00848192 -0.3087282 1.041116
v 0.005346298 -0.3057807 1.026629
v 0.01379156 -0.2978999 1.041116
v 0.009903401 -0.2978999 1.026629
v -0.01093805 -0.3084356 1.055142
v -0.01702115 -0.2978999 1.055142
v 0.006872296 -0.3084356 1.055142
v 0.0129554 -0.2978999 1.055142
v -0.007551581 -0.2978999 1.061225
vt 0.1039913 0.4536127
vt 0.1039913 0.4553875
vt 0.2539558 0.4553875
vt 0.2539558 0.4527254
vt 0.1039913 0.451838
vt 0.2539558 0.4500633
vt 0.1039913 0.4509507
vt 0.2539558 0.4474012
vt 0.2539558 0.4571622
vt 0.1039913 0.4562748
vt 0.2539558 0.4598243
vt 0.1039913 0.4580496
vt 0.2539558 0.461599
vt 0.1039913 0.4589369
vt 0.1590078 0.4429644
vt 0.1652194 0.4403023
vt 0.1598952 0.4358655
vt 0.1581205 0.4394149
vt 0.1634447 0.4358655
vt 0.1625573 0.4438517
vt 0.9531987 0.2353212
vt 0.9531987 0.2326591
vt 0.9469872 0.2326591
vt 0.9469872 0.2353212
vt 0.9602976 0.2353212
vt 0.9602976 0.2326591
vt 0.9682839 0.2353212
vt 0.9673966 0.2326591
vt 0.9398882 0.2326591
vt 0.9398882 0.2353212
vt 0.9327893 0.2326591
vt 0.9336767 0.2353212
vt 0.9265778 0.2326591
vt 0.9256905 0.2353212
vt 0.9523113 0.3355933
vt 0.9523113 0.3329312
vt 0.9460998 0.3329312
vt 0.9452124 0.3355933
vt 0.9602976 0.3355933
vt 0.9602976 0.3329312
vt 0.9673966 0.3355933
vt 0.9682839 0.3329312
vt 0.9381135 0.3329312
vt 0.9381135 0.3355933
vt 0.9310146 0.3329312
vt 0.9310146 0.3355933
vt 0.9230283 0.3329312
vt 0.9230283 0.3355933
vt 0.9523113 0.3329312
vt 0.9531987 0.2353212
vt 0.9469872 0.2353212
vt 0.9460998 0.3329312
vt 0.9602976 0.3329312
vt 0.9602976 0.2353212
vt 0.9682839 0.3329312
vt 0.9682839 0.2353212
vt 0.9398882 0.2353212
vt 0.9381135 0.3329312
vt 0.9336767 0.2353212
vt 0.9310146 0.3329312
vt 0.9256905 0.2353212
vt 0.9230283 0.3329312
vt 0.7322451 0.2646042
vt 0.7357945 0.2477443
vt 0.7251462 0.2477443
vt 0.7215967 0.2654915
vt 0.7455555 0.2477443
vt 0.749105 0.2654915
vt 0.7562039 0.2477443
vt 0.7597533 0.2681536
vt 0.7340198 0.278802
vt 0.7242588 0.2841262
vt 0.7482176 0.2814641
vt 0.7579786 0.2876756
vt 0.7455555 0.2947746
vt 0.6887642 0.2654915
vt 0.6914263 0.2477443
vt 0.6816653 0.2477443
vt 0.6763411 0.2672663
vt 0.7047368 0.2646042
vt 0.7020747 0.2477443
vt 0.7153851 0.2663789
vt 0.7118357 0.2477443
vt 0.6887642 0.2814641
vt 0.6798906 0.2876756
vt 0.702962 0.278802
vt 0.7136104 0.2841262
vt 0.6914263 0.2947746
vn 0.4980354 0.86666 -0.02934566
vn 0.9999924 0.003921509 0
vn 0.9999924 0.003921509 0
vn 0.4980354 0.86666 -0.02934566
vn -0.4980353 0.86666 -0.02934769
vn -0.4980353 0.86666 -0.02934769
vn -0.9999923 0.003921509 -0.0003449296
vn -0.9999923 0.003921509 -0.0003449296
vn 0.4980354 -0.8666601 -0.02934363
vn 0.4980354 -0.8666601 -0.02934363
vn -0.4980353 -0.8666601 -0.02934566
vn -0.4980353 -0.8666601 -0.02934566
vn -0.9999923 0.003921509 -0.0003449296
vn -0.9999923 0.003921509 -0.0003449296
vn -0.003921509 0.003921509 -0.9999846
vn -0.003921509 0.003921509 -0.9999846
vn -0.003921509 0.003921509 -0.9999846
vn -0.003921509 0.003921509 -0.9999846
vn -0.003921509 0.003921509 -0.9999846
vn -0.003921509 0.003921509 -0.9999846
vn 0.45882 0.8039154 -0.3784233
vn 0.45882 0.8039154 -0.3784233
vn 0.9215616 0.003921509 -0.3882124
vn 0.9215616 0.003921509 -0.3882124
vn -0.45882 0.8039154 -0.3784234
vn -0.45882 0.8039154 -0.3784234
vn -0.9215615 0.003921509 -0.3882126
vn -0.9215615 0.003921509 -0.3882126
vn 0.45882 -0.8039154 -0.3784232
vn 0.45882 -0.8039154 -0.3784232
vn -0.45882 -0.8039154 -0.3784232
vn -0.45882 -0.8039154 -0.3784232
vn -0.9215615 0.003921509 -0.3882126
vn -0.9215615 0.003921509 -0.3882126
vn 0.4901924 0.86666 0.09280042
vn 0.450977 0.7803861 0.4331481
vn 0.8980324 0.003921509 0.4399119
vn 0.9921493 -0.003921568 0.1249976
vn -0.4745061 0.874503 0.1004409
vn -0.4509768 0.7803861 0.4331483
vn -0.9999923 0.003921509 -0.0003449296
vn -0.8980323 0.003921509 0.439912
vn 0.450977 -0.7803862 0.4331479
vn 0.4901924 -0.8666601 0.09279978
vn -0.4509768 -0.7803862 0.4331481
vn -0.4745061 -0.8745031 0.1004401
vn -0.8980323 0.003921509 0.439912
vn -0.9999923 0.003921509 -0.0003449296
vn 0.4980354 0.86666 -0.02934566
vn 0.4980354 0.86666 -0.02934566
vn 0.9999924 0.003921509 0
vn 0.9999924 0.003921509 0
vn -0.4980353 0.86666 -0.02934769
vn -0.4980353 0.86666 -0.02934769
vn -0.9999923 0.003921509 -0.0003449296
vn -0.9999923 0.003921509 -0.0003449296
vn 0.4980354 -0.8666601 -0.02934363
vn 0.4980354 -0.8666601 -0.02934363
vn -0.4980353 -0.8666601 -0.02934566
vn -0.4980353 -0.8666601 -0.02934566
vn -0.9999923 0.003921509 -0.0003449296
vn -0.9999923 0.003921509 -0.0003449296
vn 0.5372508 0.8431307 -0.02218458
vn 0.4901924 0.86666 0.09280042
vn 0.9921493 -0.003921568 0.1249976
vn 0.9921493 -0.003921568 -0.1249976
vn -0.4745061 0.874503 0.1004409
vn -0.5058784 0.8431307 -0.182257
vn -0.9999923 0.003921509 -0.0003449296
vn -0.9607769 0.003921509 -0.2772946
vn 0.4274477 0.7333276 0.5286955
vn 0.8274447 -0.003921568 0.5615336
vn -0.4823492 0.7725431 0.4129364
vn -0.9372476 -0.003921568 0.3486424
vn -0.1529399 -0.003921568 0.9882277
vn -0.5058784 -0.8431308 -0.1822563
vn -0.4745061 -0.8745031 0.1004401
vn -0.9999923 0.003921509 -0.0003449296
vn -0.9607769 0.003921509 -0.2772946
vn 0.5372508 -0.8431308 -0.0221792
vn 0.4901924 -0.8666601 0.09279978
vn 0.9921493 -0.003921568 -0.1249976
vn 0.9921493 -0.003921568 0.1249976
vn -0.4823492 -0.7725431 0.4129363
vn -0.9372476 -0.003921568 0.3486424
vn 0.4274477 -0.7333277 0.5286954
vn 0.8274447 -0.003921568 0.5615336
vn -0.1529399 -0.003921568 0.9882277
g G_CA_Prinzeugen_Mech_002_P_0
f 3/3/3 2/2/2 1/1/1
f 4/4/4 3/3/3 1/1/1
f 4/4/4 1/1/1 5/5/5
f 6/6/6 4/4/4 5/5/5
f 6/6/6 5/5/5 7/7/7
f 8/8/8 6/6/6 7/7/7
f 3/3/3 9/9/9 2/2/2
f 9/9/9 10/10/10 2/2/2
f 9/9/9 11/11/11 10/10/10
f 11/11/11 12/12/12 10/10/10
f 11/11/11 13/13/13 12/12/12
f 13/13/13 14/14/14 12/12/12
f 17/17/17 16/16/16 15/15/15
f 18/18/18 17/17/17 15/15/15
f 19/19/19 16/16/16 17/17/17
f 15/15/15 16/16/16 20/20/20
f 23/23/23 22/22/22 21/21/21
f 24/24/24 23/23/23 21/21/21
f 21/21/21 22/22/22 25/25/25
f 22/22/22 26/26/26 25/25/25
f 25/25/25 26/26/26 27/27/27
f 26/26/26 28/28/28 27/27/27
f 29/29/29 23/23/23 24/24/24
f 30/30/30 29/29/29 24/24/24
f 31/31/31 29/29/29 30/30/30
f 32/32/32 31/31/31 30/30/30
f 33/33/33 31/31/31 32/32/32
f 34/34/34 33/33/33 32/32/32
f 37/37/37 36/36/36 35/35/35
f 38/38/38 37/37/37 35/35/35
f 35/35/35 36/36/36 39/39/39
f 36/36/36 40/40/40 39/39/39
f 39/39/39 40/40/40 41/41/41
f 40/40/40 42/42/42 41/41/41
f 43/43/43 37/37/37 38/38/38
f 44/44/44 43/43/43 38/38/38
f 45/45/45 43/43/43 44/44/44
f 46/46/46 45/45/45 44/44/44
f 47/47/47 45/45/45 46/46/46
f 48/48/48 47/47/47 46/46/46
f 51/51/51 50/50/50 49/49/49
f 52/52/52 51/51/51 49/49/49
f 49/49/49 50/50/50 53/53/53
f 50/50/50 54/54/54 53/53/53
f 53/53/53 54/54/54 55/55/55
f 54/54/54 56/56/56 55/55/55
f 57/57/57 51/51/51 52/52/52
f 58/58/58 57/57/57 52/52/52
f 59/59/59 57/57/57 58/58/58
f 60/60/60 59/59/59 58/58/58
f 61/61/61 59/59/59 60/60/60
f 62/62/62 61/61/61 60/60/60
f 65/65/65 64/64/64 63/63/63
f 66/66/66 65/65/65 63/63/63
f 63/63/63 64/64/64 67/67/67
f 68/68/68 63/63/63 67/67/67
f 68/68/68 67/67/67 69/69/69
f 70/70/70 68/68/68 69/69/69
f 66/66/66 63/63/63 71/71/71
f 71/71/71 63/63/63 68/68/68
f 72/72/72 66/66/66 71/71/71
f 73/73/73 71/71/71 68/68/68
f 73/73/73 68/68/68 70/70/70
f 74/74/74 73/73/73 70/70/70
f 75/75/75 72/72/72 71/71/71
f 75/75/75 71/71/71 73/73/73
f 75/75/75 73/73/73 74/74/74
f 78/78/78 77/77/77 76/76/76
f 79/79/79 78/78/78 76/76/76
f 76/76/76 77/77/77 80/80/80
f 77/77/77 81/81/81 80/80/80
f 80/80/80 81/81/81 82/82/82
f 81/81/81 83/83/83 82/82/82
f 79/79/79 76/76/76 84/84/84
f 85/85/85 79/79/79 84/84/84
f 76/76/76 80/80/80 86/86/86
f 84/84/84 76/76/76 86/86/86
f 80/80/80 82/82/82 87/87/87
f 86/86/86 80/80/80 87/87/87
f 88/88/88 85/85/85 84/84/84
f 88/88/88 84/84/84 86/86/86
f 88/88/88 86/86/86 87/87/87
