g G_CA_Prinzeugen_SD_Body_H_001
v 2.473593E-06 -0.2136193 0.819036
v 0.0533985 -0.2120689 0.8187586
v 0.05214193 -0.2288776 0.7280897
v 2.473593E-06 -0.2304279 0.7274533
v 0.1122125 -0.2059493 0.809881
v 0.111674 -0.2196736 0.7225086
v 2.473593E-06 -0.2218278 0.6807318
v 0.05457348 -0.2187598 0.6791325
v 0.1819113 -0.1822866 0.7867405
v 0.1712386 -0.2004498 0.7145449
v 0.1543973 -0.1972186 0.6732576
v 0.1055706 -0.210486 0.6801443
v 0.23299 -0.1421417 0.7479664
v 0.2133908 -0.1708469 0.6954026
v 0.1857463 -0.1837717 0.6560247
v 2.473593E-06 -0.2023265 0.6262097
v 0.05165237 -0.191409 0.6235334
v 0.04801321 -0.1792186 0.5901772
v 2.473593E-06 -0.1880146 0.5886432
v 2.473593E-06 -0.1831678 0.5626795
v 0.04354177 -0.173866 0.562092
v 0.1394817 -0.1842775 0.6371598
v 0.1015888 -0.1913764 0.6401299
v 0.1372949 -0.1781742 0.6165978
v 0.09860237 -0.1855994 0.620139
v 0.1664245 -0.1735559 0.627809
v 0.1972186 -0.1674199 0.6405868
v 0.1794308 -0.1590319 0.6129259
v 0.2026692 -0.1535324 0.6183439
v 0.2262829 -0.1332804 0.6303874
v 0.2255159 -0.1474127 0.6620464
v 0.2504351 -0.09323339 0.6396403
v 0.2436137 -0.1149867 0.6970998
v 0.1900545 -0.1417663 0.5836658
v 0.1645967 -0.1609739 0.5857547
v 0.1658207 -0.1695414 0.6140193
v 0.2044969 -0.1362831 0.585461
v 0.2426999 -0.08618355 0.5919886
v 0.2242593 -0.1203883 0.5897366
v 0.2257607 -0.102878 0.5413505
v 0.2239492 -0.1134527 0.5419543
v 0.2136845 -0.1220529 0.5476496
v 0.2067652 -0.1285642 0.5177205
v 0.2186945 -0.1214164 0.5045673
v 0.2000418 -0.135712 0.5026906
v 0.2125096 -0.1282215 0.4872527
v 0.224602 -0.1121962 0.4981049
v 0.2270988 -0.1015072 0.4958366
v 0.2198858 -0.1067619 0.4748828
v 0.2182702 -0.1186259 0.4784731
v 0.197904 -0.135663 0.4726471
v 0.1848977 -0.1425986 0.4915283
v 0.1691008 -0.1431208 0.4631005
v 0.1730174 -0.1331988 0.4496046
v 0.2037625 -0.1255941 0.461697
v 0.1595215 -0.1498933 0.4850497
v 0.1351734 -0.1506113 0.4572093
v 0.1294618 -0.155099 0.4833524
v 0.1368869 -0.1408525 0.4411676
v 0.1061907 -0.147527 0.4360434
v 0.105179 -0.1575306 0.4537823
v 0.1730174 -0.1201925 0.4424078
v 0.2050681 -0.1127837 0.4568176
v 0.135614 -0.1279114 0.4314741
v 0.1021926 -0.1645478 0.4807088
v 0.07453172 -0.1643356 0.4522972
v 0.07263871 -0.1724952 0.4806761
v 0.03858078 -0.1712712 0.4518403
v 0.03768323 -0.1817971 0.4808882
v 0.03910299 -0.1603374 0.4327633
v 0.07542928 -0.1538425 0.4336771
v 0.03856446 -0.1475922 0.4210462
v 0.07440117 -0.1408035 0.4223028
v 0.1047383 -0.1345207 0.4250934
v 0.07205121 -0.1755632 0.5087123
v 0.1244681 -0.1597826 0.5062971
v 0.08629778 -0.1659675 0.5378582
v 0.03986999 -0.1848487 0.527316
v 0.03766692 -0.1880309 0.5096262
v 0.1281889 -0.1519495 0.5304167
v 0.1621162 -0.1443284 0.528899
v 0.1713528 -0.145944 0.5107685
v 0.1964189 -0.1351408 0.5291438
v 0.1903972 -0.1361689 0.5592525
v 0.2033872 -0.1308162 0.5533776
v 0.04106128 -0.1785006 0.5392616
v 0.08980638 -0.1679422 0.5612108
v 2.473593E-06 -0.1881941 0.5398002
v 2.473593E-06 -0.1936773 0.5278056
v 2.473593E-06 -0.1949666 0.5099689
v 2.473593E-06 -0.1867254 0.4810678
v 2.473593E-06 -0.1747146 0.4518403
v 2.473593E-06 -0.1636013 0.4326001
v 2.473593E-06 -0.1510845 0.4207688
v -0.04107267 -0.1785006 0.5392453
v -0.04353684 -0.1738823 0.5620757
v -0.08630916 -0.1659675 0.5378582
v -0.08980146 -0.1679422 0.5611945
v -0.03986505 -0.1848487 0.5272998
v -0.07204628 -0.1755795 0.5087123
v -0.0376783 -0.1880309 0.5096262
v -0.1244632 -0.1597826 0.5062971
v -0.1281839 -0.1519495 0.5304167
v -0.1621276 -0.1443284 0.528899
v -0.1713479 -0.145944 0.5107685
v -0.196414 -0.1351408 0.5291438
v -0.1904086 -0.1361526 0.5592525
v -0.2033823 -0.1308162 0.5533776
v -0.204492 -0.1362831 0.585461
v -0.1900659 -0.1417663 0.5836658
v -0.2026806 -0.1535324 0.6183439
v -0.1794258 -0.1590319 0.6129259
v -0.1645918 -0.1609739 0.5857547
v -0.165832 -0.1695414 0.6140193
v -0.1972136 -0.1674199 0.6405868
v -0.2262779 -0.1332804 0.6303874
v -0.225511 -0.1474127 0.6620464
v -0.2504302 -0.09323339 0.6396403
v -0.2436251 -0.1149867 0.6970998
v -0.2426949 -0.08618355 0.5919886
v -0.2242544 -0.1203883 0.5897366
v -0.2257557 -0.102878 0.5413505
v -0.2239443 -0.1134527 0.5419543
v -0.2136959 -0.1220529 0.5476496
v -0.2067766 -0.1285642 0.5177205
v -0.2186896 -0.1214164 0.5045673
v -0.2000369 -0.1356956 0.5026906
v -0.2125046 -0.1282215 0.4872527
v -0.2245971 -0.1121962 0.4981049
v -0.2270939 -0.1015072 0.4958366
v -0.2198808 -0.1067619 0.4748828
v -0.2182816 -0.1186259 0.4784731
v -0.2134022 -0.1708469 0.6954026
v -0.1857577 -0.1837717 0.6560247
v -0.1712337 -0.2004498 0.7145449
v -0.2330014 -0.1421417 0.7479664
v -0.1819227 -0.1822866 0.7867405
v -0.111669 -0.2196736 0.7225086
v -0.1543924 -0.1972186 0.6732576
v -0.1055657 -0.210486 0.6801443
v -0.1122076 -0.2059493 0.809881
v -0.05213702 -0.2288776 0.7280897
v -0.0534099 -0.2120689 0.8187749
v -0.05458486 -0.2187598 0.6791325
v -0.05166376 -0.191409 0.6235334
v -0.04800826 -0.179235 0.5901608
v -0.1394767 -0.1842775 0.6371598
v -0.1015838 -0.1913764 0.6401299
v -0.1373063 -0.1781742 0.6165978
v -0.09859744 -0.1855994 0.620139
v -0.1664359 -0.1735559 0.6277927
v -0.09399545 -0.1740292 0.5892959
v -0.134222 -0.1691008 0.5874029
v -0.1313498 -0.1606965 0.560297
v -0.1634658 -0.1530755 0.5595789
v 0.1313548 -0.1606965 0.560297
v 0.1634544 -0.1530755 0.5595952
v 0.1342106 -0.1691008 0.5874029
v 0.09400038 -0.1740292 0.5892959
v -0.03859216 -0.1712712 0.4518403
v -0.07452679 -0.1643356 0.4522972
v -0.0726501 -0.1724952 0.4806761
v -0.0376783 -0.1817971 0.4808882
v -0.1021876 -0.1645641 0.4807088
v -0.105174 -0.1575469 0.4537823
v -0.03911439 -0.1603374 0.4327633
v -0.07544065 -0.1538425 0.4336935
v -0.03855953 -0.1476086 0.4210462
v -0.07439622 -0.1408198 0.4223354
v -0.1061858 -0.1475433 0.4360434
v -0.1351685 -0.1506113 0.4572093
v -0.136882 -0.1408525 0.4411676
v -0.1691122 -0.1431208 0.4631005
v -0.1595166 -0.1498933 0.4850497
v -0.1848927 -0.1425986 0.4915283
v -0.1979154 -0.1356467 0.4726471
v -0.1730288 -0.1331988 0.4496046
v -0.2037739 -0.1255941 0.461697
v -0.1294568 -0.155099 0.4833524
v -0.1730125 -0.1201762 0.442571
v -0.2050631 -0.1127673 0.4568176
v -0.1047334 -0.134537 0.4251096
v -0.1356091 -0.1279114 0.4314741
vt 0.503439 0.8560784
vt 0.6055189 0.8551505
vt 0.6027349 0.6843988
vt 0.503439 0.6834707
vt 0.7168787 0.8384465
vt 0.7159507 0.6732628
vt 0.503439 0.5943829
vt 0.6073749 0.5906709
vt 0.8486544 0.7920465
vt 0.8282385 0.6565588
vt 0.7966866 0.5776789
vt 0.7038867 0.5915989
vt 0.9451663 0.7140947
vt 0.9080464 0.6175829
vt 0.8560784 0.543343
vt 0.503439 0.490447
vt 0.6018069 0.4839511
vt 0.5953109 0.4208471
vt 0.503439 0.4189912
vt 0.503439 0.3698072
vt 0.5860309 0.3679512
vt 0.7679186 0.5080791
vt 0.6964628 0.514575
vt 0.7642066 0.4691031
vt 0.6908947 0.4765271
vt 0.8189585 0.4895191
vt 0.8774225 0.512719
vt 0.8440145 0.4598231
vt 0.8885584 0.4700311
vt 0.9331023 0.490447
vt 0.9312463 0.551695
vt 0.9785743 0.505295
vt 0.9655823 0.6157269
vt 0.8644304 0.4032152
vt 0.8161745 0.4087832
vt 0.8180305 0.4635351
vt 0.8913424 0.4059992
vt 0.9637263 0.4143512
vt 0.9293903 0.4124952
vt 0.9321743 0.3196953
vt 0.9284623 0.3224793
vt 0.9089743 0.3336153
vt 0.8959824 0.2779354
vt 0.9182544 0.2519515
vt 0.8829904 0.2500955
vt 0.9071184 0.2203995
vt 0.9293903 0.2389595
vt 0.9340304 0.2333915
vt 0.9210383 0.1944155
vt 0.9173263 0.2027675
vt 0.8792784 0.1934875
vt 0.8542225 0.2296795
vt 0.8245265 0.1758556
vt 0.8319505 0.1489436
vt 0.8904144 0.1712156
vt 0.8059666 0.2185435
vt 0.7604946 0.1656476
vt 0.7493587 0.2157595
vt 0.7632786 0.1350236
vt 0.7048147 0.1266717
vt 0.7029587 0.1610076
vt 0.8319505 0.1350236
vt 0.8922704 0.1610076
vt 0.7614226 0.1164637
vt 0.6973907 0.2129755
vt 0.6454228 0.1591516
vt 0.6417108 0.2139035
vt 0.5767509 0.1591516
vt 0.5758229 0.2157595
vt 0.5776789 0.1220317
vt 0.6472788 0.1229597
vt 0.5767509 0.0997597
vt 0.6454228 0.1025437
vt 0.7029587 0.1071837
vt 0.6407828 0.2677274
vt 0.7400786 0.2603034
vt 0.6676947 0.3206233
vt 0.5795349 0.3039193
vt 0.5758229 0.2705114
vt 0.7465746 0.3048474
vt 0.8115345 0.3002074
vt 0.8291665 0.2667994
vt 0.8764944 0.3002074
vt 0.8644304 0.3568153
vt 0.8894864 0.3447513
vt 0.5813909 0.3252633
vt 0.6741908 0.3651673
vt 0.503439 0.3280473
vt 0.503439 0.3057753
vt 0.503439 0.2723674
vt 0.503439 0.2166875
vt 0.503439 0.1600796
vt 0.503439 0.1220317
vt 0.503439 0.0997597
vt 0.4264151 0.3252633
vt 0.4217752 0.3679512
vt 0.3401113 0.3206233
vt 0.3336153 0.3651673
vt 0.4282711 0.3039193
vt 0.3670233 0.2677274
vt 0.4319831 0.2705114
vt 0.2677274 0.2603034
vt 0.2612314 0.3048474
vt 0.1962715 0.3002074
vt 0.1786396 0.2667994
vt 0.1313117 0.3002074
vt 0.1433756 0.3568153
vt 0.1183197 0.3447513
vt 0.1164637 0.4059992
vt 0.1433756 0.4032152
vt 0.1201757 0.4700311
vt 0.1637916 0.4598231
vt 0.1916315 0.4087832
vt 0.1897755 0.4635351
vt 0.1303837 0.512719
vt 0.07470375 0.490447
vt 0.07655974 0.551695
vt 0.02923182 0.505295
vt 0.0422238 0.6157269
vt 0.0440798 0.4143512
vt 0.07841574 0.4124952
vt 0.07563174 0.3196953
vt 0.07934374 0.3224793
vt 0.0988317 0.3336153
vt 0.1118237 0.2779354
vt 0.08955172 0.2519515
vt 0.1248157 0.2500955
vt 0.1006877 0.2203995
vt 0.07841574 0.2389595
vt 0.07377575 0.2333915
vt 0.08676773 0.1944155
vt 0.09047972 0.2027675
vt 0.0997597 0.6175829
vt 0.1517276 0.543343
vt 0.1795676 0.6565588
vt 0.06263977 0.7140947
vt 0.1591516 0.7920465
vt 0.2918554 0.6732628
vt 0.2111195 0.5776789
vt 0.3039193 0.5915989
vt 0.2909274 0.8384465
vt 0.4050712 0.6843988
vt 0.4022872 0.8551505
vt 0.4004312 0.5906709
vt 0.4059992 0.4839511
vt 0.4124952 0.4208471
vt 0.2398875 0.5080791
vt 0.3113433 0.514575
vt 0.2435995 0.4691031
vt 0.3169113 0.4765271
vt 0.1888475 0.4895191
vt 0.3261913 0.4180632
vt 0.2491674 0.4134232
vt 0.2547354 0.3614553
vt 0.1944155 0.3595993
vt 0.7530707 0.3614553
vt 0.8133906 0.3595993
vt 0.7586386 0.4134232
vt 0.6816148 0.4180632
vt 0.4310551 0.1591516
vt 0.3623832 0.1591516
vt 0.3660952 0.2139035
vt 0.4319831 0.2157595
vt 0.3104154 0.2129755
vt 0.3048474 0.1610076
vt 0.4301271 0.1220317
vt 0.3605272 0.1229597
vt 0.4310551 0.0997597
vt 0.3623832 0.1025437
vt 0.3029914 0.1266717
vt 0.2473115 0.1656476
vt 0.2445275 0.1350236
vt 0.1832796 0.1758556
vt 0.2018395 0.2185435
vt 0.1535836 0.2296795
vt 0.1285277 0.1934875
vt 0.1758556 0.1489436
vt 0.1173917 0.1712156
vt 0.2584474 0.2157595
vt 0.1758556 0.1350236
vt 0.1155357 0.1610076
vt 0.3057753 0.1071837
vt 0.2463835 0.1164637
vn -0.003314614 -0.9845527 0.1750573
vn 0.08929795 -0.9845527 0.1506051
vn 0.08929795 -0.9922704 -0.08617092
vn -0.003314614 -0.9999881 -0.00358812
vn 0.2359345 -0.9613995 0.1415837
vn 0.2275025 -0.9737774 0
vn -0.003314614 -0.9536818 -0.300799
vn 0.1124511 -0.9459641 -0.3041492
vn 0.4829013 -0.8610693 0.1592671
vn 0.4428102 -0.8966154 0
vn 0.2745231 -0.9150932 -0.2953666
vn 0.1819105 -0.9305286 -0.3178444
vn 0.7530212 -0.652691 0.08338752
vn 0.706715 -0.706715 -0.03328515
vn 0.436595 -0.8379161 -0.3275384
vn -0.003314614 -0.922811 -0.3852388
vn 0.1278865 -0.9150932 -0.3824256
vn 0.1433219 -0.9459641 -0.2908793
vn -0.003314614 -0.9613995 -0.2751364
vn -0.003314614 -0.9999881 -0.00358812
vn 0.1816894 -0.9833559 0
vn 0.1819105 -0.9150932 -0.359879
vn 0.1433219 -0.9150932 -0.3769127
vn 0.197346 -0.9305286 -0.308498
vn 0.1201688 -0.9382464 -0.3244275
vn 0.3053939 -0.8687869 -0.3897997
vn 0.544643 -0.7530212 -0.3692194
vn 0.4443128 -0.8224807 -0.3551221
vn 0.5292076 -0.7684567 -0.3597411
vn 0.7916098 -0.5677962 -0.2257463
vn 0.8070453 -0.5677962 -0.1621279
vn 0.8765047 -0.4597482 -0.1427276
vn 0.8840573 -0.4673786 0
vn 0.436595 -0.8533515 -0.284914
vn 0.4057242 -0.8765047 -0.2590897
vn 0.4211596 -0.8610693 -0.2849285
vn 0.5137721 -0.8147629 -0.2686997
vn 0.8842224 -0.4443128 -0.1440034
vn 0.7838922 -0.5909493 -0.1905046
vn 0.9459641 -0.3131117 -0.08433884
vn 0.8289901 -0.5592633 0
vn 0.6063848 -0.7916098 -0.07517589
vn 0.6063848 -0.7916098 0.07517589
vn 0.7372917 -0.6755746 0
vn 0.4829013 -0.8687869 0.1096156
vn 0.6604087 -0.7453036 -0.09155794
vn 0.922811 -0.3748534 -0.08890935
vn 0.9691172 -0.2204991 -0.1104172
vn 0.8765047 -0.2590876 -0.4057255
vn 0.8301984 -0.4520305 -0.32625
vn 0.4674659 -0.8456338 -0.2576415
vn 0.350999 -0.9363759 0
vn 0.2976762 -0.8919401 -0.3403405
vn 0.3671356 -0.6449733 -0.6702394
vn 0.598667 -0.5600784 -0.5726342
vn 0.25137 -0.9613995 -0.1119113
vn 0.2590876 -0.9073755 -0.3309732
vn 0.2668054 -0.9536818 -0.1389456
vn 0.2899585 -0.6989973 -0.6537025
vn 0.2359345 -0.7375858 -0.6326943
vn 0.25137 -0.9073755 -0.336872
vn 0.3748534 -0.4520305 -0.8094155
vn 0.6372555 -0.3439825 -0.6896241
vn 0.2899585 -0.544643 -0.7869486
vn 0.2745231 -0.9536818 -0.1229962
vn 0.2050636 -0.9073755 -0.3669041
vn 0.2590876 -0.9459641 -0.1950014
vn 0.1433219 -0.8996578 -0.412401
vn 0.1896282 -0.9459641 -0.2630458
vn 0.1124511 -0.7761744 -0.6204095
vn 0.1819105 -0.760739 -0.6230448
vn 0.1047334 -0.6681265 -0.7366396
vn 0.1664751 -0.6449733 -0.7458522
vn 0.2282168 -0.6063848 -0.7617182
vn 0.3131117 -0.9459641 0.08433884
vn 0.2822408 -0.9536818 0.1040727
vn 0.2668054 -0.9613995 0.06727481
vn 0.2590876 -0.9305286 0.2588244
vn 0.2436522 -0.9691172 -0.03801858
vn 0.251072 -0.9679684 0
vn 0.2899585 -0.9536818 -0.08009413
vn 0.2822408 -0.9536818 0.1040727
vn 0.4443128 -0.8919401 0.08383911
vn 0.3980065 -0.9073755 -0.1351313
vn 0.4906191 -0.8687869 -0.06709871
vn 0.2204991 -0.9305286 0.292398
vn 0.1664751 -0.9691172 -0.1819282
vn -0.003314614 -0.9459641 0.3242545
vn -0.003314614 -0.9613995 0.2751364
vn -0.003314614 -0.9999881 -0.00358812
vn -0.003314614 -0.9536818 -0.300799
vn -0.003314614 -0.9073755 -0.4203078
vn -0.003314614 -0.7838922 -0.6208882
vn -0.003314614 -0.6835619 -0.7298851
vn -0.2271283 -0.9305286 0.287279
vn -0.1806378 -0.9835497 0
vn -0.2657168 -0.9613995 0.07145359
vn -0.1653866 -0.9691172 -0.1829184
vn -0.2579991 -0.9305286 0.2599096
vn -0.312023 -0.9459641 0.08828106
vn -0.2425637 -0.9691172 -0.04443695
vn -0.28887 -0.9536818 0.08393539
vn -0.2500528 -0.9682323 0
vn -0.2806845 -0.9598001 0
vn -0.2811522 -0.9536818 0.1069785
vn -0.4432242 -0.8919401 0.08941548
vn -0.4123534 -0.8996578 -0.1434589
vn -0.5126836 -0.8533515 -0.09458677
vn -0.5126836 -0.8147629 -0.2707708
vn -0.4355065 -0.8533515 -0.286575
vn -0.5281191 -0.7684567 -0.3613371
vn -0.4432242 -0.8224807 -0.3564799
vn -0.4046357 -0.8765047 -0.2607864
vn -0.4200711 -0.8610693 -0.2865309
vn -0.5512722 -0.7530212 -0.3592465
vn -0.7905213 -0.5677962 -0.2295291
vn -0.8059567 -0.5677962 -0.1674553
vn -0.8754162 -0.4597482 -0.1492587
vn -0.8831339 -0.4674659 -0.03937236
vn -0.8831339 -0.4443128 -0.1505348
vn -0.7828035 -0.5909493 -0.1949297
vn -0.9499972 -0.3122584 0
vn -0.8286496 -0.5597675 0
vn -0.6122698 -0.7906489 0
vn -0.6052961 -0.7916098 0.08348931
vn -0.7364973 -0.6758441 0.02839808
vn -0.4818128 -0.8687869 0.114305
vn -0.6593201 -0.7453036 -0.09909373
vn -0.9217224 -0.3748534 -0.09956291
vn -0.9680287 -0.2204991 -0.1195854
vn -0.8754162 -0.2590876 -0.4080688
vn -0.8291099 -0.4520305 -0.3290064
vn -0.7056265 -0.706715 -0.05143175
vn -0.4355065 -0.8379161 -0.3289843
vn -0.4419374 -0.8970459 0
vn -0.7584854 -0.65169 0
vn -0.4818128 -0.8610693 0.1625302
vn -0.2264731 -0.9740174 0
vn -0.2734345 -0.9150932 -0.2963746
vn -0.180822 -0.9305286 -0.3184648
vn -0.234846 -0.9613995 0.1433819
vn -0.08820939 -0.9922704 -0.08728497
vn -0.08820939 -0.9845527 0.1512453
vn -0.1113626 -0.9459641 -0.3045494
vn -0.126798 -0.9150932 -0.3827879
vn -0.1422334 -0.9459641 -0.2914131
vn -0.180822 -0.9150932 -0.3604271
vn -0.1422334 -0.9150932 -0.3773248
vn -0.1962574 -0.9305286 -0.3091917
vn -0.1190803 -0.9382464 -0.3248286
vn -0.3043054 -0.8687869 -0.3906501
vn -0.1190803 -0.9459641 -0.3016154
vn -0.180822 -0.9382464 -0.2949528
vn -0.1962574 -0.9459641 -0.2581376
vn -0.3814825 -0.8842224 -0.2694845
vn 0.197346 -0.9459641 -0.2573063
vn 0.3748534 -0.8842224 -0.278632
vn 0.1819105 -0.9382464 -0.2942827
vn 0.1124511 -0.9459641 -0.3041492
vn -0.1422334 -0.8996578 -0.4127777
vn -0.2116928 -0.9073755 -0.3631195
vn -0.2579991 -0.9459641 -0.1964395
vn -0.1885397 -0.9459641 -0.263827
vn -0.2734345 -0.9536818 -0.1253975
vn -0.2502813 -0.9073755 -0.3376817
vn -0.1113626 -0.7761744 -0.6206058
vn -0.180822 -0.760739 -0.6233615
vn -0.1036448 -0.6681265 -0.7367936
vn -0.1653866 -0.6449733 -0.7460943
vn -0.234846 -0.7375858 -0.6330991
vn -0.2579991 -0.9073755 -0.3318225
vn -0.28887 -0.6989973 -0.6541842
vn -0.2965877 -0.8919401 -0.3412895
vn -0.2502813 -0.9613995 -0.1143254
vn -0.350046 -0.9367325 0
vn -0.4663774 -0.8456338 -0.2596067
vn -0.366047 -0.6449733 -0.6708346
vn -0.5975785 -0.5523608 -0.5812035
vn -0.2657168 -0.9536818 -0.1410163
vn -0.3814825 -0.4520305 -0.8063123
vn -0.636167 -0.3439825 -0.6906283
vn -0.2271283 -0.6063848 -0.7620435
vn -0.2965877 -0.544643 -0.7844741
g G_CA_Prinzeugen_SD_Body_H_001_0
f 3/3/3 2/2/2 1/1/1
f 4/4/4 3/3/3 1/1/1
f 2/2/2 3/3/3 5/5/5
f 3/3/3 6/6/6 5/5/5
f 3/3/3 4/4/4 7/7/7
f 8/8/8 3/3/3 7/7/7
f 6/6/6 3/3/3 8/8/8
f 5/5/5 6/6/6 9/9/9
f 6/6/6 10/10/10 9/9/9
f 11/11/11 10/10/10 6/6/6
f 12/12/12 11/11/11 6/6/6
f 12/12/12 6/6/6 8/8/8
f 9/9/9 10/10/10 13/13/13
f 10/10/10 14/14/14 13/13/13
f 15/15/15 14/14/14 10/10/10
f 11/11/11 15/15/15 10/10/10
f 8/8/8 7/7/7 16/16/16
f 17/17/17 8/8/8 16/16/16
f 17/17/17 16/16/16 18/18/18
f 16/16/16 19/19/19 18/18/18
f 19/19/19 20/20/20 18/18/18
f 20/20/20 21/21/21 18/18/18
f 11/11/11 12/12/12 22/22/22
f 11/11/11 22/22/22 15/15/15
f 12/12/12 23/23/23 22/22/22
f 23/23/23 12/12/12 8/8/8
f 17/17/17 23/23/23 8/8/8
f 24/24/24 22/22/22 23/23/23
f 25/25/25 24/24/24 23/23/23
f 23/23/23 17/17/17 25/25/25
f 22/22/22 26/26/26 15/15/15
f 22/22/22 24/24/24 26/26/26
f 27/27/27 15/15/15 26/26/26
f 26/26/26 28/28/28 27/27/27
f 28/28/28 29/29/29 27/27/27
f 27/27/27 29/29/29 30/30/30
f 31/31/31 27/27/27 30/30/30
f 31/31/31 30/30/30 32/32/32
f 33/33/33 31/31/31 32/32/32
f 28/28/28 34/34/34 29/29/29
f 35/35/35 34/34/34 28/28/28
f 36/36/36 35/35/35 28/28/28
f 26/26/26 36/36/36 28/28/28
f 24/24/24 36/36/36 26/26/26
f 34/34/34 37/37/37 29/29/29
f 32/32/32 30/30/30 38/38/38
f 30/30/30 39/39/39 38/38/38
f 39/39/39 30/30/30 29/29/29
f 37/37/37 39/39/39 29/29/29
f 38/38/38 39/39/39 40/40/40
f 39/39/39 41/41/41 40/40/40
f 39/39/39 42/42/42 41/41/41
f 42/42/42 39/39/39 37/37/37
f 41/41/41 42/42/42 43/43/43
f 44/44/44 41/41/41 43/43/43
f 43/43/43 45/45/45 44/44/44
f 45/45/45 46/46/46 44/44/44
f 41/41/41 47/47/47 40/40/40
f 44/44/44 47/47/47 41/41/41
f 44/44/44 46/46/46 47/47/47
f 47/47/47 48/48/48 40/40/40
f 49/49/49 48/48/48 47/47/47
f 50/50/50 49/49/49 47/47/47
f 46/46/46 50/50/50 47/47/47
f 51/51/51 46/46/46 45/45/45
f 52/52/52 51/51/51 45/45/45
f 53/53/53 51/51/51 52/52/52
f 53/53/53 54/54/54 51/51/51
f 54/54/54 55/55/55 51/51/51
f 46/46/46 51/51/51 55/55/55
f 50/50/50 46/46/46 55/55/55
f 56/56/56 53/53/53 52/52/52
f 57/57/57 53/53/53 56/56/56
f 58/58/58 57/57/57 56/56/56
f 53/53/53 57/57/57 59/59/59
f 54/54/54 53/53/53 59/59/59
f 60/60/60 59/59/59 57/57/57
f 61/61/61 60/60/60 57/57/57
f 57/57/57 58/58/58 61/61/61
f 54/54/54 62/62/62 55/55/55
f 62/62/62 63/63/63 55/55/55
f 63/63/63 49/49/49 50/50/50
f 55/55/55 63/63/63 50/50/50
f 54/54/54 59/59/59 64/64/64
f 62/62/62 54/54/54 64/64/64
f 64/64/64 59/59/59 60/60/60
f 58/58/58 65/65/65 61/61/61
f 61/61/61 65/65/65 66/66/66
f 65/65/65 67/67/67 66/66/66
f 66/66/66 67/67/67 68/68/68
f 67/67/67 69/69/69 68/68/68
f 68/68/68 70/70/70 66/66/66
f 70/70/70 71/71/71 66/66/66
f 61/61/61 66/66/66 71/71/71
f 60/60/60 61/61/61 71/71/71
f 70/70/70 72/72/72 71/71/71
f 72/72/72 73/73/73 71/71/71
f 60/60/60 71/71/71 73/73/73
f 74/74/74 60/60/60 73/73/73
f 74/74/74 64/64/64 60/60/60
f 67/67/67 65/65/65 75/75/75
f 69/69/69 67/67/67 75/75/75
f 65/65/65 76/76/76 75/75/75
f 75/75/75 76/76/76 77/77/77
f 75/75/75 77/77/77 78/78/78
f 79/79/79 75/75/75 78/78/78
f 79/79/79 69/69/69 75/75/75
f 76/76/76 80/80/80 77/77/77
f 81/81/81 80/80/80 76/76/76
f 82/82/82 81/81/81 76/76/76
f 81/81/81 82/82/82 83/83/83
f 84/84/84 81/81/81 83/83/83
f 85/85/85 84/84/84 83/83/83
f 85/85/85 37/37/37 84/84/84
f 37/37/37 34/34/34 84/84/84
f 86/86/86 78/78/78 77/77/77
f 21/21/21 86/86/86 77/77/77
f 87/87/87 21/21/21 77/77/77
f 85/85/85 42/42/42 37/37/37
f 42/42/42 85/85/85 83/83/83
f 43/43/43 42/42/42 83/83/83
f 83/83/83 45/45/45 43/43/43
f 45/45/45 83/83/83 82/82/82
f 52/52/52 45/45/45 82/82/82
f 82/82/82 56/56/56 52/52/52
f 56/56/56 82/82/82 76/76/76
f 58/58/58 56/56/56 76/76/76
f 76/76/76 65/65/65 58/58/58
f 86/86/86 21/21/21 20/20/20
f 88/88/88 86/86/86 20/20/20
f 86/86/86 88/88/88 78/78/78
f 88/88/88 89/89/89 78/78/78
f 78/78/78 89/89/89 79/79/79
f 89/89/89 90/90/90 79/79/79
f 79/79/79 90/90/90 91/91/91
f 69/69/69 79/79/79 91/91/91
f 91/91/91 92/92/92 69/69/69
f 92/92/92 68/68/68 69/69/69
f 92/92/92 93/93/93 68/68/68
f 93/93/93 70/70/70 68/68/68
f 93/93/93 94/94/94 70/70/70
f 94/94/94 72/72/72 70/70/70
f 95/95/95 88/88/88 20/20/20
f 96/96/96 95/95/95 20/20/20
f 95/95/95 96/96/96 97/97/97
f 96/96/96 98/98/98 97/97/97
f 99/99/99 95/95/95 97/97/97
f 97/97/97 100/100/100 99/99/99
f 100/100/100 101/101/101 99/99/99
f 90/90/90 101/101/101 91/91/91
f 102/102/102 100/100/100 97/97/97
f 103/103/103 102/102/102 97/97/97
f 103/103/103 104/104/104 102/102/102
f 104/104/104 105/105/105 102/102/102
f 105/105/105 104/104/104 106/106/106
f 104/104/104 107/107/107 106/106/106
f 107/107/107 108/108/108 106/106/106
f 109/109/109 108/108/108 107/107/107
f 110/110/110 109/109/109 107/107/107
f 109/109/109 110/110/110 111/111/111
f 110/110/110 112/112/112 111/111/111
f 110/110/110 113/113/113 112/112/112
f 113/113/113 114/114/114 112/112/112
f 111/111/111 112/112/112 115/115/115
f 111/111/111 115/115/115 116/116/116
f 115/115/115 117/117/117 116/116/116
f 116/116/116 117/117/117 118/118/118
f 117/117/117 119/119/119 118/118/118
f 116/116/116 118/118/118 120/120/120
f 121/121/121 116/116/116 120/120/120
f 121/121/121 109/109/109 111/111/111
f 116/116/116 121/121/121 111/111/111
f 121/121/121 120/120/120 122/122/122
f 123/123/123 121/121/121 122/122/122
f 124/124/124 121/121/121 123/123/123
f 121/121/121 124/124/124 109/109/109
f 124/124/124 123/123/123 125/125/125
f 123/123/123 126/126/126 125/125/125
f 127/127/127 125/125/125 126/126/126
f 128/128/128 127/127/127 126/126/126
f 129/129/129 123/123/123 122/122/122
f 129/129/129 126/126/126 123/123/123
f 128/128/128 126/126/126 129/129/129
f 130/130/130 129/129/129 122/122/122
f 130/130/130 131/131/131 129/129/129
f 131/131/131 132/132/132 129/129/129
f 132/132/132 128/128/128 129/129/129
f 119/119/119 117/117/117 133/133/133
f 133/133/133 117/117/117 134/134/134
f 133/133/133 134/134/134 135/135/135
f 133/133/133 135/135/135 136/136/136
f 135/135/135 137/137/137 136/136/136
f 135/135/135 138/138/138 137/137/137
f 135/135/135 139/139/139 138/138/138
f 134/134/134 139/139/139 135/135/135
f 139/139/139 140/140/140 138/138/138
f 138/138/138 141/141/141 137/137/137
f 138/138/138 142/142/142 141/141/141
f 142/142/142 143/143/143 141/141/141
f 143/143/143 142/142/142 1/1/1
f 142/142/142 4/4/4 1/1/1
f 4/4/4 142/142/142 7/7/7
f 142/142/142 144/144/144 7/7/7
f 138/138/138 140/140/140 144/144/144
f 142/142/142 138/138/138 144/144/144
f 7/7/7 144/144/144 16/16/16
f 144/144/144 145/145/145 16/16/16
f 16/16/16 145/145/145 146/146/146
f 19/19/19 16/16/16 146/146/146
f 20/20/20 19/19/19 146/146/146
f 96/96/96 20/20/20 146/146/146
f 140/140/140 139/139/139 147/147/147
f 148/148/148 140/140/140 147/147/147
f 148/148/148 145/145/145 144/144/144
f 140/140/140 148/148/148 144/144/144
f 147/147/147 149/149/149 148/148/148
f 149/149/149 150/150/150 148/148/148
f 145/145/145 148/148/148 150/150/150
f 149/149/149 147/147/147 151/151/151
f 151/151/151 147/147/147 134/134/134
f 147/147/147 139/139/139 134/134/134
f 134/134/134 115/115/115 151/151/151
f 112/112/112 151/151/151 115/115/115
f 117/117/117 115/115/115 134/134/134
f 114/114/114 151/151/151 112/112/112
f 114/114/114 149/149/149 151/151/151
f 145/145/145 150/150/150 152/152/152
f 146/146/146 145/145/145 152/152/152
f 146/146/146 152/152/152 96/96/96
f 153/153/153 152/152/152 150/150/150
f 149/149/149 153/153/153 150/150/150
f 149/149/149 114/114/114 153/153/153
f 114/114/114 113/113/113 153/153/153
f 154/154/154 153/153/153 113/113/113
f 152/152/152 153/153/153 154/154/154
f 155/155/155 154/154/154 113/113/113
f 154/154/154 155/155/155 103/103/103
f 154/154/154 103/103/103 97/97/97
f 98/98/98 154/154/154 97/97/97
f 98/98/98 152/152/152 154/154/154
f 155/155/155 104/104/104 103/103/103
f 107/107/107 104/104/104 155/155/155
f 155/155/155 113/113/113 110/110/110
f 107/107/107 155/155/155 110/110/110
f 152/152/152 98/98/98 96/96/96
f 31/31/31 14/14/14 15/15/15
f 27/27/27 31/31/31 15/15/15
f 31/31/31 33/33/33 14/14/14
f 33/33/33 13/13/13 14/14/14
f 156/156/156 87/87/87 77/77/77
f 80/80/80 156/156/156 77/77/77
f 157/157/157 156/156/156 80/80/80
f 81/81/81 157/157/157 80/80/80
f 81/81/81 84/84/84 157/157/157
f 157/157/157 84/84/84 34/34/34
f 35/35/35 157/157/157 34/34/34
f 156/156/156 157/157/157 35/35/35
f 158/158/158 156/156/156 35/35/35
f 35/35/35 36/36/36 158/158/158
f 36/36/36 24/24/24 158/158/158
f 158/158/158 24/24/24 25/25/25
f 159/159/159 158/158/158 25/25/25
f 159/159/159 87/87/87 156/156/156
f 158/158/158 159/159/159 156/156/156
f 25/25/25 17/17/17 159/159/159
f 17/17/17 18/18/18 159/159/159
f 159/159/159 18/18/18 21/21/21
f 87/87/87 159/159/159 21/21/21
f 162/162/162 161/161/161 160/160/160
f 163/163/163 162/162/162 160/160/160
f 162/162/162 164/164/164 161/161/161
f 164/164/164 165/165/165 161/161/161
f 166/166/166 160/160/160 161/161/161
f 167/167/167 166/166/166 161/161/161
f 161/161/161 165/165/165 167/167/167
f 168/168/168 166/166/166 167/167/167
f 169/169/169 168/168/168 167/167/167
f 167/167/167 170/170/170 169/169/169
f 165/165/165 170/170/170 167/167/167
f 170/170/170 165/165/165 171/171/171
f 172/172/172 170/170/170 171/171/171
f 171/171/171 173/173/173 172/172/172
f 173/173/173 171/171/171 174/174/174
f 173/173/173 174/174/174 175/175/175
f 176/176/176 173/173/173 175/175/175
f 177/177/177 173/173/173 176/176/176
f 173/173/173 177/177/177 172/172/172
f 178/178/178 177/177/177 176/176/176
f 171/171/171 179/179/179 174/174/174
f 179/179/179 171/171/171 165/165/165
f 164/164/164 179/179/179 165/165/165
f 176/176/176 175/175/175 127/127/127
f 128/128/128 176/176/176 127/127/127
f 176/176/176 128/128/128 178/178/178
f 128/128/128 132/132/132 178/178/178
f 180/180/180 177/177/177 178/178/178
f 181/181/181 180/180/180 178/178/178
f 181/181/181 178/178/178 132/132/132
f 170/170/170 182/182/182 169/169/169
f 177/177/177 180/180/180 183/183/183
f 172/172/172 177/177/177 183/183/183
f 131/131/131 181/181/181 132/132/132
f 183/183/183 182/182/182 170/170/170
f 172/172/172 183/183/183 170/170/170
f 127/127/127 175/175/175 105/105/105
f 106/106/106 127/127/127 105/105/105
f 127/127/127 106/106/106 125/125/125
f 124/124/124 125/125/125 106/106/106
f 108/108/108 124/124/124 106/106/106
f 124/124/124 108/108/108 109/109/109
f 174/174/174 105/105/105 175/175/175
f 105/105/105 174/174/174 102/102/102
f 174/174/174 179/179/179 102/102/102
f 164/164/164 102/102/102 179/179/179
f 102/102/102 164/164/164 100/100/100
f 164/164/164 162/162/162 100/100/100
f 162/162/162 163/163/163 100/100/100
f 163/163/163 101/101/101 100/100/100
f 101/101/101 163/163/163 91/91/91
f 92/92/92 91/91/91 163/163/163
f 160/160/160 92/92/92 163/163/163
f 93/93/93 92/92/92 160/160/160
f 166/166/166 93/93/93 160/160/160
f 94/94/94 93/93/93 166/166/166
f 168/168/168 94/94/94 166/166/166
f 89/89/89 99/99/99 101/101/101
f 89/89/89 88/88/88 99/99/99
f 88/88/88 95/95/95 99/99/99
f 90/90/90 89/89/89 101/101/101
f 136/136/136 119/119/119 133/133/133
