g G_CA_Prinzeugen_Pupil_Effect_001
v 0.02778002 -0.01485924 1.472387
v 0.02766298 -0.01724678 1.482827
v 0.03522351 -0.01595938 1.481657
v 0.03630024 -0.01361866 1.472387
v 0.04287766 -0.01401659 1.482827
v 0.0430181 -0.01125453 1.472387
v 0.02763958 -0.0179724 1.490926
v 0.03615979 -0.01673182 1.490926
v 0.04285425 -0.0147188 1.490926
v -0.02755459 -0.01542102 1.472411
v -0.0360046 -0.01378251 1.472528
v -0.03502149 -0.01680204 1.48161
v -0.02755459 -0.01851077 1.48264
v -0.04260542 -0.01457836 1.482921
v -0.04260542 -0.01109068 1.472715
v -0.02755459 -0.01979816 1.490692
v -0.0360046 -0.01815966 1.490809
v -0.04260542 -0.01586575 1.490973
v 0.02778002 -0.0147188 1.472387
v 0.02768639 -0.01708293 1.482827
v 0.03522351 -0.01579553 1.481657
v 0.03632364 -0.01347822 1.472387
v 0.04290107 -0.01385273 1.482827
v 0.0430181 -0.01109068 1.472387
v 0.02763958 -0.01780855 1.490926
v 0.0361832 -0.01656797 1.490926
v 0.04285425 -0.01457836 1.490926
v -0.02755459 -0.01525717 1.472411
v -0.0360046 -0.01361866 1.472528
v -0.03502149 -0.01663819 1.48161
v -0.02755459 -0.01834692 1.482663
v -0.04260542 -0.01443791 1.482921
v -0.04260542 -0.01095024 1.472715
v -0.02755459 -0.01963431 1.490692
v -0.0360046 -0.01801922 1.490809
v -0.04260542 -0.01572531 1.490973
vt 0.1678191 0.03467195
vt 0.1678191 0.4185407
vt 0.5057482 0.3702651
vt 0.5657033 0.03467195
vt 0.831219 0.4309989
vt 0.831219 0.03467195
vt 0.1678191 0.8109744
vt 0.5540237 0.8109744
vt 0.831219 0.8109744
vt 0.1678191 0.03467195
vt 0.5657033 0.03467195
vt 0.5057482 0.3702651
vt 0.1678191 0.4185407
vt 0.831219 0.4309989
vt 0.831219 0.03467195
vt 0.1678191 0.8109744
vt 0.5540237 0.8109744
vt 0.831219 0.8109744
vt 0.831219 0.03467195
vt 0.831219 0.4185407
vt 0.4925113 0.3702651
vt 0.4325562 0.03467195
vt 0.1678191 0.4309989
vt 0.1678191 0.03467195
vt 0.831219 0.8109744
vt 0.4450144 0.8109744
vt 0.1678191 0.8109744
vt 0.1678191 0.03467195
vt 0.5657033 0.03467195
vt 0.5057482 0.3702651
vt 0.1678191 0.4185407
vt 0.831219 0.4309989
vt 0.831219 0.03467195
vt 0.1678191 0.8109744
vt 0.5540237 0.8109744
vt 0.831219 0.8109744
vn 0.1377663 -0.9638381 -0.2281153
vn 0.1429617 -0.9794244 -0.1424424
vn 0.2105022 -0.9638381 -0.1634165
vn 0.2260885 -0.9482518 -0.2229405
vn 0.2832381 -0.9482518 -0.1435084
vn 0.2988244 -0.9274702 -0.2247288
vn 0.1481572 -0.9846198 -0.09259208
vn 0.2105022 -0.974229 -0.0810352
vn 0.2728472 -0.9586427 -0.0809848
vn -0.1791543 -0.9430565 -0.2802646
vn -0.2674764 -0.9170793 -0.2956719
vn -0.2518901 -0.937861 -0.2386798
vn -0.1895451 -0.9586427 -0.212313
vn -0.3298215 -0.9170793 -0.2240163
vn -0.3402123 -0.8962976 -0.2844401
vn -0.1947406 -0.9690335 -0.1518227
vn -0.2570856 -0.9534473 -0.1576237
vn -0.3142353 -0.9326656 -0.1771753
vn 0.1377663 -0.9638381 -0.2281153
vn 0.1429617 -0.9794244 -0.1424424
vn 0.2105022 -0.9638381 -0.1634165
vn 0.2260885 -0.9482518 -0.2229405
vn 0.2832381 -0.9482518 -0.1435084
vn 0.2988244 -0.9274702 -0.2247288
vn 0.1481572 -0.9846198 -0.09259208
vn 0.2105022 -0.974229 -0.0810352
vn 0.2728472 -0.9586427 -0.0809848
vn -0.1791543 -0.937861 -0.2971875
vn -0.2674764 -0.9170793 -0.2956719
vn -0.2518901 -0.937861 -0.2386798
vn -0.1895451 -0.9586427 -0.212313
vn -0.3298215 -0.9170793 -0.2240163
vn -0.3402123 -0.8962976 -0.2844401
vn -0.1947406 -0.9690335 -0.1518227
vn -0.2570856 -0.9534473 -0.1576237
vn -0.3142353 -0.9326656 -0.1771753
g G_CA_Prinzeugen_Pupil_Effect_001_0
f 3/3/3 2/2/2 1/1/1
f 4/4/4 3/3/3 1/1/1
f 3/3/3 4/4/4 5/5/5
f 4/4/4 6/6/6 5/5/5
f 2/2/2 3/3/3 7/7/7
f 3/3/3 8/8/8 7/7/7
f 3/3/3 5/5/5 9/9/9
f 8/8/8 3/3/3 9/9/9
f 12/12/12 11/11/11 10/10/10
f 13/13/13 12/12/12 10/10/10
f 11/11/11 12/12/12 14/14/14
f 15/15/15 11/11/11 14/14/14
f 12/12/12 13/13/13 16/16/16
f 17/17/17 12/12/12 16/16/16
f 12/12/12 17/17/17 18/18/18
f 14/14/14 12/12/12 18/18/18
f 21/21/21 20/20/20 19/19/19
f 22/22/22 21/21/21 19/19/19
f 21/21/21 22/22/22 23/23/23
f 22/22/22 24/24/24 23/23/23
f 20/20/20 21/21/21 25/25/25
f 21/21/21 26/26/26 25/25/25
f 21/21/21 23/23/23 27/27/27
f 26/26/26 21/21/21 27/27/27
f 30/30/30 29/29/29 28/28/28
f 31/31/31 30/30/30 28/28/28
f 29/29/29 30/30/30 32/32/32
f 33/33/33 29/29/29 32/32/32
f 30/30/30 31/31/31 34/34/34
f 35/35/35 30/30/30 34/34/34
f 30/30/30 35/35/35 36/36/36
f 32/32/32 30/30/30 36/36/36
