g G_CA_Prinzeugen_Body_H_001_lod
v 0.006814204 -0.03171549 1.460943
v -1.041591E-05 -0.03465081 1.462068
v -1.041591E-05 -0.03303639 1.481711
v 0.01381005 -0.02731251 1.478653
v -1.041591E-05 -0.03951855 1.512996
v 0.0374149 -0.03129966 1.519381
v 0.03787966 -0.02129511 1.485086
v 0.03538464 -0.02151526 1.452724
v 0.06368601 -0.003927805 1.484328
v 0.008893386 -0.03504219 1.446707
v 0.0362897 -0.02100158 1.441105
v 0.01987637 -0.02699452 1.430905
v 0.006691895 -0.03494434 1.437069
v -1.041591E-05 -0.04000777 1.441228
v -1.041591E-05 -0.03479758 1.430269
v 0.007254504 -0.032963 1.430538
v -1.041591E-05 -0.03161765 1.427799
v 0.006691895 -0.03063921 1.428386
v 0.01610938 -0.0216131 1.42002
v 0.01285607 -0.0288291 1.429144
v 0.01999868 -0.01160856 1.411043
v -1.041591E-05 -0.02442612 1.414761
v -1.041591E-05 -0.01735689 1.400182
v 0.05436637 -0.005101934 1.444163
v 0.02687222 0.009060979 1.415201
v 0.0546599 0.01899215 1.442328
v -1.041591E-05 0.001551457 1.402824
v 0.01285607 -0.0288291 1.429144
v 0.06970342 0.02143825 1.484915
v 0.07024156 -0.007107735 1.513216
v 0.07537837 0.02072888 1.512018
v 0.07584313 0.02092456 1.527208
v 0.07065739 -0.007254504 1.526963
v -1.041591E-05 -0.04159774 1.453287
v -1.041591E-05 -0.04538919 1.450645
v 0.006691895 -0.03063921 1.428386
v 0.005933605 -0.029514 1.425132
v -1.041591E-05 -0.03161765 1.427799
v -1.041591E-05 -0.03022337 1.42435
v -0.006810568 -0.03171549 1.460943
v -0.01380642 -0.02731251 1.478653
v -1.041591E-05 -0.03303639 1.481711
v -1.041591E-05 -0.03465081 1.462068
v -1.041591E-05 -0.03951855 1.512996
v -0.03741127 -0.03129966 1.519381
v -0.03787603 -0.02129511 1.485086
v -0.03538101 -0.02151526 1.452724
v -0.06370685 -0.003927805 1.484328
v -0.008889757 -0.03504219 1.446707
v -0.03631053 -0.02100158 1.441105
v -0.01987274 -0.02699452 1.430905
v -0.006688267 -0.03494434 1.437069
v -1.041591E-05 -0.04000777 1.441228
v -1.041591E-05 -0.03479758 1.430269
v -0.007250868 -0.032963 1.430538
v -1.041591E-05 -0.03161765 1.427799
v -0.006688267 -0.03063921 1.428386
v -0.01610575 -0.0216131 1.42002
v -0.0128769 -0.0288291 1.429144
v -0.02001951 -0.01160856 1.411043
v -1.041591E-05 -0.02442612 1.414761
v -1.041591E-05 -0.01735689 1.400182
v -0.05436274 -0.005101934 1.444163
v -0.02686859 0.009060979 1.415201
v -0.05468073 0.01899215 1.442328
v -1.041591E-05 0.001551457 1.402824
v -0.0128769 -0.0288291 1.429144
v -0.06969978 0.02143825 1.484915
v -0.07023792 -0.007107735 1.513216
v -0.07537474 0.02072888 1.512018
v -0.07583949 0.02092456 1.527208
v -0.07067822 -0.007254504 1.526963
v -1.041591E-05 -0.04159774 1.453287
v -1.041591E-05 -0.04538919 1.450645
v -0.006688267 -0.03063921 1.428386
v -0.005929977 -0.029514 1.425132
v -1.041591E-05 -0.03161765 1.427799
v -1.041591E-05 -0.03022337 1.42435
vt 0.9042212 0.3351303
vt 0.9801 0.3417697
vt 0.9772546 0.4413606
vt 0.8179091 0.4347212
vt 0.9801 0.5798394
vt 0.5722515 0.6016545
vt 0.5419 0.4574848
vt 0.5902727 0.2886545
vt 0.2639939 0.4375666
vt 0.8748182 0.2744273
vt 0.5769939 0.2345909
vt 0.7477212 0.1919091
vt 0.9013758 0.2251061
vt 0.9801 0.2478697
vt 0.9801 0.1909606
vt 0.8947363 0.1919091
vt 0.9801 0.1776818
vt 0.9004273 0.1805273
vt 0.7989394 0.1340515
vt 0.8302394 0.1786303
vt 0.761 0.08757576
vt 0.9801 0.1084424
vt 0.9801 0.03730606
vt 0.3854 0.2421788
vt 0.6623576 0.07524545
vt 0.3275424 0.2175182
vt 0.9801 0.0098
vt 0.8264455 0.1900121
vt 0.1862182 0.4252363
vt 0.2004455 0.5694061
vt 0.1245667 0.5665606
vt 0.1264636 0.6386455
vt 0.195703 0.633903
vt 0.9801 0.3085727
vt 0.9801 0.2962424
vt 0.9070667 0.1757849
vt 0.9099121 0.1634545
vt 0.9801 0.1729394
vt 0.9801 0.1596606
vt 0.9042212 0.3351303
vt 0.8179091 0.4347212
vt 0.9772546 0.4413606
vt 0.9801 0.3417697
vt 0.9801 0.5798394
vt 0.5722515 0.6016545
vt 0.5419 0.4574848
vt 0.5902727 0.2886545
vt 0.2639939 0.4375666
vt 0.8748182 0.2744273
vt 0.5769939 0.2345909
vt 0.7477212 0.1919091
vt 0.9013758 0.2251061
vt 0.9801 0.2478697
vt 0.9801 0.1909606
vt 0.8947363 0.1919091
vt 0.9801 0.1776818
vt 0.9004273 0.1805273
vt 0.7989394 0.1340515
vt 0.8302394 0.1786303
vt 0.761 0.08757576
vt 0.9801 0.1084424
vt 0.9801 0.03730606
vt 0.3854 0.2421788
vt 0.6623576 0.07524545
vt 0.3275424 0.2175182
vt 0.9801 0.0098
vt 0.8264455 0.1900121
vt 0.1862182 0.4252363
vt 0.2004455 0.5694061
vt 0.1245667 0.5665606
vt 0.1264636 0.6386455
vt 0.195703 0.633903
vt 0.9801 0.3085727
vt 0.9801 0.2962424
vt 0.9070667 0.1757849
vt 0.9099121 0.1634545
vt 0.9801 0.1729394
vt 0.9801 0.1596606
vn 0.4393285 -0.8589926 0.2629111
vn -0.003650248 -0.9133934 0.4070615
vn -0.003650248 -0.9988806 -0.04716213
vn 0.3227551 -0.9444796 -0.06154136
vn -0.003650248 -0.9833375 -0.1817528
vn 0.4237854 -0.8900788 -0.1678264
vn 0.4315569 -0.8978503 -0.08731194
vn 0.5008045 -0.8655604 0
vn 0.8123632 -0.5481303 -0.1990457
vn 0.5559018 -0.8279063 0.07446009
vn 0.5869881 -0.7812769 -0.212253
vn 0.4548716 -0.8201348 -0.3470891
vn 0.4393285 -0.8745357 -0.2053725
vn -0.003650248 -0.9367081 -0.3500923
vn -0.003650248 -0.8356779 -0.5492078
vn 0.3460698 -0.8201348 -0.4556475
vn -0.003650248 -0.8201348 -0.5721588
vn 0.237268 -0.8045917 -0.5443677
vn 0.4237854 -0.7346476 -0.5298102
vn 0.3538414 -0.8279063 -0.4351637
vn 0.5481303 -0.377156 -0.7465296
vn -0.003650248 -0.8589926 -0.511975
vn -0.003650248 -0.501501 -0.8651494
vn 0.8123632 -0.4237854 -0.4005895
vn 0.6258458 -0.07406533 -0.7764221
vn 0.851221 -0.06629372 -0.5206035
vn -0.003650248 0.06582278 -0.9978246
vn 0.3538414 -0.8279063 -0.4351637
vn 0.9522512 -0.1906387 -0.2384839
vn 0.8356779 -0.5403587 -0.09825985
vn 0.9755659 -0.1906387 -0.1092158
vn 0.9831443 -0.1828312 0
vn 0.8589926 -0.5092725 -0.05266227
vn -0.003650248 -0.7346476 0.678439
vn -0.003650248 -0.9600228 0.2798979
vn 0.237268 -0.8045917 -0.5443677
vn 0.2528111 -0.8667641 -0.4298914
vn -0.003650248 -0.8201348 -0.5721588
vn -0.003650248 -0.9056219 -0.4240704
vn -0.4388575 -0.8589926 0.2636965
vn -0.322284 -0.9444796 -0.06396251
vn -0.003650248 -0.9988806 -0.04716213
vn -0.003650248 -0.9133934 0.4070615
vn -0.003650248 -0.9833375 -0.1817528
vn -0.4233144 -0.8900788 -0.1690109
vn -0.4310859 -0.8978503 -0.08960892
vn -0.500452 -0.8657643 0
vn -0.8196637 -0.5481303 -0.166447
vn -0.5554308 -0.8279063 0.07789578
vn -0.586517 -0.7812769 -0.2135512
vn -0.4544006 -0.8201348 -0.3477055
vn -0.4388575 -0.8745357 -0.206377
vn -0.003650248 -0.9367081 -0.3500923
vn -0.003650248 -0.8356779 -0.5492078
vn -0.3455988 -0.8201348 -0.4560049
vn -0.003650248 -0.8201348 -0.5721588
vn -0.2367969 -0.8045917 -0.5445728
vn -0.4233144 -0.7346476 -0.5301866
vn -0.3533704 -0.8279063 -0.4355462
vn -0.5476592 -0.377156 -0.7468753
vn -0.003650248 -0.8589926 -0.511975
vn -0.003650248 -0.501501 -0.8651494
vn -0.8118922 -0.4237854 -0.4015433
vn -0.6253749 -0.07406533 -0.7768015
vn -0.8507499 -0.06629372 -0.521373
vn -0.003650248 0.06582278 -0.9978246
vn -0.3533704 -0.8279063 -0.4355462
vn -0.9517801 -0.1906387 -0.2403569
vn -0.8352068 -0.5403587 -0.1021865
vn -0.9750949 -0.1906387 -0.1133444
vn -0.9828665 -0.1828671 -0.02308969
vn -0.8585215 -0.5092725 -0.05985305
vn -0.003650248 -0.7346476 0.678439
vn -0.003650248 -0.9600228 0.2798979
vn -0.2367969 -0.8045917 -0.5445728
vn -0.2523401 -0.8667641 -0.430168
vn -0.003650248 -0.8201348 -0.5721588
vn -0.003650248 -0.9056219 -0.4240704
g G_CA_Prinzeugen_Body_H_001_lod_0
f 3/3/3 2/2/2 1/1/1
f 4/4/4 3/3/3 1/1/1
f 3/3/3 4/4/4 5/5/5
f 4/4/4 6/6/6 5/5/5
f 7/7/7 6/6/6 4/4/4
f 4/4/4 1/1/1 8/8/8
f 4/4/4 8/8/8 7/7/7
f 8/8/8 9/9/9 7/7/7
f 1/1/1 10/10/10 8/8/8
f 10/10/10 11/11/11 8/8/8
f 12/12/12 11/11/11 10/10/10
f 13/13/13 12/12/12 10/10/10
f 13/13/13 10/10/10 14/14/14
f 14/14/14 15/15/15 13/13/13
f 15/15/15 16/16/16 13/13/13
f 15/15/15 17/17/17 16/16/16
f 17/17/17 18/18/18 16/16/16
f 11/11/11 12/12/12 19/19/19
f 19/19/19 12/12/12 20/20/20
f 11/11/11 19/19/19 21/21/21
f 19/19/19 22/22/22 21/21/21
f 22/22/22 23/23/23 21/21/21
f 24/24/24 11/11/11 21/21/21
f 24/24/24 21/21/21 25/25/25
f 26/26/26 24/24/24 25/25/25
f 23/23/23 27/27/27 21/21/21
f 27/27/27 25/25/25 21/21/21
f 16/16/16 28/28/28 13/13/13
f 16/16/16 18/18/18 28/28/28
f 13/13/13 28/28/28 12/12/12
f 29/29/29 24/24/24 26/26/26
f 9/9/9 24/24/24 29/29/29
f 30/30/30 9/9/9 29/29/29
f 7/7/7 9/9/9 30/30/30
f 31/31/31 30/30/30 29/29/29
f 30/30/30 31/31/31 32/32/32
f 33/33/33 30/30/30 32/32/32
f 6/6/6 30/30/30 33/33/33
f 7/7/7 30/30/30 6/6/6
f 8/8/8 24/24/24 9/9/9
f 8/8/8 11/11/11 24/24/24
f 35/35/35 10/10/10 34/34/34
f 10/10/10 1/1/1 34/34/34
f 1/1/1 2/2/2 34/34/34
f 35/35/35 14/14/14 10/10/10
f 37/37/37 20/20/20 36/36/36
f 36/36/36 38/38/38 37/37/37
f 38/38/38 39/39/39 37/37/37
f 39/39/39 22/22/22 37/37/37
f 19/19/19 37/37/37 22/22/22
f 19/19/19 20/20/20 37/37/37
f 42/42/42 41/41/41 40/40/40
f 43/43/43 42/42/42 40/40/40
f 41/41/41 42/42/42 44/44/44
f 45/45/45 41/41/41 44/44/44
f 45/45/45 46/46/46 41/41/41
f 40/40/40 41/41/41 47/47/47
f 47/47/47 41/41/41 46/46/46
f 48/48/48 47/47/47 46/46/46
f 49/49/49 40/40/40 47/47/47
f 50/50/50 49/49/49 47/47/47
f 50/50/50 51/51/51 49/49/49
f 51/51/51 52/52/52 49/49/49
f 49/49/49 52/52/52 53/53/53
f 54/54/54 53/53/53 52/52/52
f 55/55/55 54/54/54 52/52/52
f 56/56/56 54/54/54 55/55/55
f 57/57/57 56/56/56 55/55/55
f 51/51/51 50/50/50 58/58/58
f 51/51/51 58/58/58 59/59/59
f 58/58/58 50/50/50 60/60/60
f 61/61/61 58/58/58 60/60/60
f 62/62/62 61/61/61 60/60/60
f 50/50/50 63/63/63 60/60/60
f 60/60/60 63/63/63 64/64/64
f 63/63/63 65/65/65 64/64/64
f 66/66/66 62/62/62 60/60/60
f 64/64/64 66/66/66 60/60/60
f 67/67/67 55/55/55 52/52/52
f 57/57/57 55/55/55 67/67/67
f 67/67/67 52/52/52 51/51/51
f 63/63/63 68/68/68 65/65/65
f 63/63/63 48/48/48 68/68/68
f 48/48/48 69/69/69 68/68/68
f 48/48/48 46/46/46 69/69/69
f 69/69/69 70/70/70 68/68/68
f 70/70/70 69/69/69 71/71/71
f 69/69/69 72/72/72 71/71/71
f 69/69/69 45/45/45 72/72/72
f 69/69/69 46/46/46 45/45/45
f 63/63/63 47/47/47 48/48/48
f 50/50/50 47/47/47 63/63/63
f 49/49/49 74/74/74 73/73/73
f 40/40/40 49/49/49 73/73/73
f 43/43/43 40/40/40 73/73/73
f 53/53/53 74/74/74 49/49/49
f 59/59/59 76/76/76 75/75/75
f 77/77/77 75/75/75 76/76/76
f 78/78/78 77/77/77 76/76/76
f 61/61/61 78/78/78 76/76/76
f 76/76/76 58/58/58 61/61/61
f 59/59/59 58/58/58 76/76/76
