g G_CA_Prinzeugen_Mech_002_P_lod
v 0.0002000332 -0.2916409 0.9277455
v 0.0002000332 -0.2991477 0.06806409
v 0.006693482 -0.3028907 0.9277455
v -0.006293446 -0.3028907 0.9277455
v 0.0002000332 -0.2991477 0.06806409
v -0.006293446 -0.3028907 0.9277455
v -0.001020074 -0.2991477 1.052362
v 0.0002000332 -0.2916409 0.9277455
v 0.006693482 -0.3028907 0.9277455
v -0.006293446 -0.3028907 0.9277455
v -0.006293446 -0.3028907 0.9277455
vt 0.2542125 0.4516829
vt 0.104 0.4525268
vt 0.2542125 0.4559023
vt 0.2542125 0.4483073
vt 0.104 0.4575901
vt 0.2542125 0.4609657
vt 0.9453588 0.3343821
vt 0.9571732 0.2339591
vt 0.9428271 0.2339591
vt 0.9672999 0.2339591
vt 0.9293249 0.2339591
vn 0.002619505 0.9996784 0.02522458
vn 0.01725161 -0.009935558 -0.9998018
vn 0.8659126 -0.5001104 -0.009222572
vn -0.8664676 -0.4992334 0
vn 0.01725161 -0.009935558 -0.9998018
vn -0.8664676 -0.4992334 0
vn -0.0120126 -0.002619505 0.9999244
vn 0.002619505 0.9996784 0.02522458
vn 0.8659126 -0.5001104 -0.009222572
vn -0.8664676 -0.4992334 0
vn -0.8664676 -0.4992334 0
g G_CA_Prinzeugen_Mech_002_P_lod_0
f 3/3/3 2/2/2 1/1/1
f 1/1/1 2/2/2 4/4/4
f 6/6/6 5/5/5 3/3/3
f 9/9/9 8/8/8 7/7/7
f 8/8/8 10/10/10 7/7/7
f 11/11/11 9/9/9 7/7/7
