g G_CA_Prinzeugen_Mech_002
v 0.004875988 -0.291499 0.9106585
v 0.003225237 -0.2943617 0.06186411
v 0.005670011 -0.2986034 0.06186411
v 0.008971512 -0.2986034 0.9106585
v -0.003315032 -0.291499 0.9106585
v -0.001664281 -0.2943617 0.06186411
v 0.003225237 -0.2943617 0.06186411
v 0.004875988 -0.291499 0.9106585
v -0.007410526 -0.2986034 0.9106585
v -0.004109055 -0.2986034 0.06186411
v -0.001664281 -0.2943617 0.06186411
v -0.003315032 -0.291499 0.9106585
v -0.003315032 -0.305687 0.9106585
v -0.001664281 -0.3028452 0.06186411
v -0.004109055 -0.2986034 0.06186411
v -0.007410526 -0.2986034 0.9106585
v 0.004875988 -0.305687 0.9106585
v 0.003225237 -0.3028452 0.06186411
v -0.001664281 -0.3028452 0.06186411
v -0.003315032 -0.305687 0.9106585
v 0.008971512 -0.2986034 0.9106585
v 0.005670011 -0.2986034 0.06186411
v 0.003225237 -0.3028452 0.06186411
v 0.004875988 -0.305687 0.9106585
v -0.001664281 -0.3028452 0.06186411
v 0.005670011 -0.2986034 0.06186411
v -0.001664281 -0.2943617 0.06186411
v -0.004109055 -0.2986034 0.06186411
v 0.003225237 -0.2943617 0.06186411
v 0.003225237 -0.3028452 0.06186411
v 0.009953588 -0.2986034 0.9130405
v 0.00535658 -0.2906632 0.9130405
v 0.004875988 -0.291499 0.9106585
v 0.008971512 -0.2986034 0.9106585
v 0.01091477 -0.2986034 1.023389
v 0.005858064 -0.2898064 1.023389
v 0.00982821 -0.2986034 1.025646
v 0.005314797 -0.2907467 1.025646
v 0.00535658 -0.2906632 0.9130405
v -0.003795624 -0.2906632 0.9130405
v -0.003315032 -0.291499 0.9106585
v 0.004875988 -0.291499 0.9106585
v 0.005858064 -0.2898064 1.023389
v -0.004297107 -0.2898064 1.023389
v 0.005314797 -0.2907467 1.025646
v -0.003753841 -0.2907467 1.025646
v -0.003795624 -0.2906632 0.9130405
v -0.008392632 -0.2986034 0.9130405
v -0.007410526 -0.2986034 0.9106585
v -0.003315032 -0.291499 0.9106585
v -0.004297107 -0.2898064 1.023389
v -0.009353817 -0.2986034 1.023389
v -0.003753841 -0.2907467 1.025646
v -0.008267254 -0.2986034 1.025646
v -0.008392632 -0.2986034 0.9130405
v -0.003795624 -0.3065437 0.9130405
v -0.003315032 -0.305687 0.9106585
v -0.007410526 -0.2986034 0.9106585
v -0.009353817 -0.2986034 1.023389
v -0.004297107 -0.3073795 1.023389
v -0.008267254 -0.2986034 1.025646
v -0.003753841 -0.3064392 1.025646
v -0.003795624 -0.3065437 0.9130405
v 0.00535658 -0.3065437 0.9130405
v 0.004875988 -0.305687 0.9106585
v -0.003315032 -0.305687 0.9106585
v -0.004297107 -0.3073795 1.023389
v 0.005858064 -0.3073795 1.023389
v -0.003753841 -0.3064392 1.025646
v 0.005314797 -0.3064392 1.025646
v 0.00535658 -0.3065437 0.9130405
v 0.009953588 -0.2986034 0.9130405
v 0.008971512 -0.2986034 0.9106585
v 0.004875988 -0.305687 0.9106585
v 0.005858064 -0.3073795 1.023389
v 0.01091477 -0.2986034 1.023389
v 0.005314797 -0.3064392 1.025646
v 0.00982821 -0.2986034 1.025646
v 0.008428216 -0.2878423 1.040043
v 0.005314797 -0.2907467 1.025646
v 0.00982821 -0.2986034 1.025646
v 0.01371476 -0.2986034 1.040043
v 0.01287895 -0.2986034 1.05398
v 0.006819278 -0.2881348 1.05398
v -0.003753841 -0.2907467 1.025646
v 0.005314797 -0.2907467 1.025646
v 0.008428216 -0.2878423 1.040043
v -0.008726954 -0.2878423 1.040043
v 0.006819278 -0.2881348 1.05398
v -0.0108583 -0.2881348 1.05398
v -0.008267254 -0.2986034 1.025646
v -0.003753841 -0.2907467 1.025646
v -0.008726954 -0.2878423 1.040043
v -0.0140135 -0.2986034 1.040043
v -0.0108583 -0.2881348 1.05398
v -0.01689708 -0.2986034 1.05398
v -0.008726954 -0.3093646 1.040043
v -0.003753841 -0.3064392 1.025646
v -0.008267254 -0.2986034 1.025646
v -0.0140135 -0.2986034 1.040043
v -0.0108583 -0.309072 1.05398
v -0.01689708 -0.2986034 1.05398
v 0.008428216 -0.3093646 1.040043
v 0.005314797 -0.3064392 1.025646
v -0.003753841 -0.3064392 1.025646
v -0.008726954 -0.3093646 1.040043
v 0.006819278 -0.309072 1.05398
v -0.0108583 -0.309072 1.05398
v 0.008428216 -0.3093646 1.040043
v 0.01371476 -0.2986034 1.040043
v 0.00982821 -0.2986034 1.025646
v 0.005314797 -0.3064392 1.025646
v 0.01287895 -0.2986034 1.05398
v 0.006819278 -0.309072 1.05398
v 0.006819278 -0.2881348 1.05398
v 0.01287895 -0.2986034 1.05398
v -0.007515013 -0.2986034 1.060019
v -0.0108583 -0.2881348 1.05398
v -0.01689708 -0.2986034 1.05398
v -0.0108583 -0.309072 1.05398
v -0.01689708 -0.2986034 1.05398
v -0.007515013 -0.2986034 1.060019
v 0.006819278 -0.309072 1.05398
v 0.01287895 -0.2986034 1.05398
vt 0.2539547 0.4527246
vt 0.10399 0.4536119
vt 0.10399 0.4553866
vt 0.2539547 0.4553866
vt 0.2539547 0.4500625
vt 0.10399 0.4518372
vt 0.10399 0.4536119
vt 0.2539547 0.4527246
vt 0.2539547 0.4474004
vt 0.10399 0.4509498
vt 0.10399 0.4518372
vt 0.2539547 0.4500625
vt 0.2539547 0.4598235
vt 0.10399 0.4580488
vt 0.10399 0.4589361
vt 0.2539547 0.4615982
vt 0.2539547 0.4571614
vt 0.10399 0.456274
vt 0.10399 0.4580488
vt 0.2539547 0.4598235
vt 0.2539547 0.4553866
vt 0.10399 0.4553866
vt 0.10399 0.456274
vt 0.2539547 0.4571614
vt 0.1590067 0.4429635
vt 0.1652182 0.4403014
vt 0.159894 0.4358646
vt 0.1581193 0.4394141
vt 0.1634435 0.4358646
vt 0.1625561 0.4438509
vt 0.946987 0.2353201
vt 0.9531986 0.2353201
vt 0.9531986 0.232658
vt 0.946987 0.232658
vt 0.9460996 0.3329302
vt 0.9523112 0.3329302
vt 0.9452123 0.3355923
vt 0.9523112 0.3355923
vt 0.9531986 0.2353201
vt 0.9602975 0.2353201
vt 0.9602975 0.232658
vt 0.9531986 0.232658
vt 0.9523112 0.3329302
vt 0.9602975 0.3329302
vt 0.9523112 0.3355923
vt 0.9602975 0.3355923
vt 0.9602975 0.2353201
vt 0.9682838 0.2353201
vt 0.9673964 0.232658
vt 0.9602975 0.232658
vt 0.9602975 0.3329302
vt 0.9682838 0.3329302
vt 0.9602975 0.3355923
vt 0.9673964 0.3355923
vt 0.9256902 0.2353201
vt 0.9336765 0.2353201
vt 0.9327892 0.232658
vt 0.9265776 0.232658
vt 0.9230282 0.3329302
vt 0.9310145 0.3329302
vt 0.9230282 0.3355923
vt 0.9310145 0.3355923
vt 0.9336765 0.2353201
vt 0.9398881 0.2353201
vt 0.9398881 0.232658
vt 0.9327892 0.232658
vt 0.9310145 0.3329302
vt 0.9381134 0.3329302
vt 0.9310145 0.3355923
vt 0.9381134 0.3355923
vt 0.9398881 0.2353201
vt 0.946987 0.2353201
vt 0.946987 0.232658
vt 0.9398881 0.232658
vt 0.9381134 0.3329302
vt 0.9460996 0.3329302
vt 0.9381134 0.3355923
vt 0.9452123 0.3355923
vt 0.7322446 0.2646031
vt 0.7357941 0.2477432
vt 0.7251457 0.2477432
vt 0.7215962 0.2654905
vt 0.7242584 0.2841251
vt 0.7340193 0.278801
vt 0.7455551 0.2477432
vt 0.7357941 0.2477432
vt 0.7322446 0.2646031
vt 0.7491046 0.2654905
vt 0.7340193 0.278801
vt 0.7482172 0.2814631
vt 0.7562035 0.2477432
vt 0.7455551 0.2477432
vt 0.7491046 0.2654905
vt 0.7597529 0.2681526
vt 0.7482172 0.2814631
vt 0.7579782 0.2876746
vt 0.6887637 0.2654905
vt 0.6914258 0.2477432
vt 0.6816648 0.2477432
vt 0.6763406 0.2672652
vt 0.6887637 0.2814631
vt 0.6798901 0.2876746
vt 0.7047363 0.2646031
vt 0.7020742 0.2477432
vt 0.6914258 0.2477432
vt 0.6887637 0.2654905
vt 0.7029616 0.278801
vt 0.6887637 0.2814631
vt 0.7047363 0.2646031
vt 0.7153847 0.2663779
vt 0.7118352 0.2477432
vt 0.7020742 0.2477432
vt 0.7136099 0.2841251
vt 0.7029616 0.278801
vt 0.7340193 0.278801
vt 0.7242584 0.2841251
vt 0.7455551 0.2947735
vt 0.7482172 0.2814631
vt 0.7579782 0.2876746
vt 0.6887637 0.2814631
vt 0.6798901 0.2876746
vt 0.6914258 0.2947735
vt 0.7029616 0.278801
vt 0.7136099 0.2841251
vn 0.8509739 0.4901923 -0.1885602
vn 0.8666601 0.4980353 -0.02934592
vn 0.8666601 0.4980353 -0.02934592
vn 0.8509739 0.4901923 -0.1885602
vn -0.003921509 0.9843061 -0.176426
vn -0.003921509 0.9999923 -0.000345267
vn -0.003921509 0.9999923 -0.000345267
vn -0.003921509 0.9843061 -0.176426
vn -0.8509738 0.4901923 -0.1885604
vn -0.86666 0.4980353 -0.02934795
vn -0.86666 0.4980353 -0.02934795
vn -0.8509738 0.4901923 -0.1885604
vn -0.8509738 -0.4901924 -0.1885602
vn -0.86666 -0.4980354 -0.02934592
vn -0.86666 -0.4980354 -0.02934592
vn -0.8509738 -0.4901924 -0.1885602
vn -0.003921509 -0.9843062 -0.1764254
vn -0.003921509 -0.9999924 0
vn -0.003921509 -0.9999924 0
vn -0.003921509 -0.9843062 -0.1764254
vn 0.8509739 -0.4901924 -0.1885601
vn 0.8666601 -0.4980354 -0.02934388
vn 0.8666601 -0.4980354 -0.02934388
vn 0.8509739 -0.4901924 -0.1885601
vn -0.003921509 0.003921509 -0.9999846
vn -0.003921509 0.003921509 -0.9999846
vn -0.003921509 0.003921509 -0.9999846
vn -0.003921509 0.003921509 -0.9999846
vn -0.003921509 0.003921509 -0.9999846
vn -0.003921509 0.003921509 -0.9999846
vn 0.8509739 0.4901923 -0.1885602
vn 0.8509739 0.4901923 -0.1885602
vn 0.8509739 0.4901923 -0.1885602
vn 0.8509739 0.4901923 -0.1885602
vn 0.8509739 0.4901923 0.1885602
vn 0.8509739 0.4901923 0.1885602
vn 0.8745031 0.4823492 0.05082877
vn 0.8745031 0.4823492 0.05082877
vn -0.003921509 0.9843061 -0.176426
vn -0.003921509 0.9843061 -0.176426
vn -0.003921509 0.9843061 -0.176426
vn -0.003921509 0.9843061 -0.176426
vn -0.003921509 0.9843061 0.176426
vn -0.003921509 0.9843061 0.176426
vn -0.003921509 0.9921492 0.1249981
vn -0.003921509 0.9921492 0.1249981
vn -0.8509738 0.4901923 -0.1885604
vn -0.8509738 0.4901923 -0.1885604
vn -0.8509738 0.4901923 -0.1885604
vn -0.8509738 0.4901923 -0.1885604
vn -0.8509738 0.4901923 0.1885604
vn -0.8509738 0.4901923 0.1885604
vn -0.874503 0.4823492 0.05083052
vn -0.874503 0.4823492 0.05083052
vn -0.8509738 -0.4901924 -0.1885602
vn -0.8509738 -0.4901924 -0.1885602
vn -0.8509738 -0.4901924 -0.1885602
vn -0.8509738 -0.4901924 -0.1885602
vn -0.8509738 -0.4901924 0.1885602
vn -0.8509738 -0.4901924 0.1885602
vn -0.874503 -0.4823493 0.05082935
vn -0.874503 -0.4823493 0.05082935
vn -0.003921509 -0.9843062 -0.1764254
vn -0.003921509 -0.9843062 -0.1764254
vn -0.003921509 -0.9843062 -0.1764254
vn -0.003921509 -0.9843062 -0.1764254
vn -0.003921509 -0.9843062 0.1764254
vn -0.003921509 -0.9843062 0.1764254
vn 0.003921568 -0.9921493 0.1249976
vn 0.003921568 -0.9921493 0.1249976
vn 0.8509739 -0.4901924 -0.1885601
vn 0.8509739 -0.4901924 -0.1885601
vn 0.8509739 -0.4901924 -0.1885601
vn 0.8509739 -0.4901924 -0.1885601
vn 0.8509739 -0.4901924 0.1885601
vn 0.8509739 -0.4901924 0.1885601
vn 0.8745031 -0.4823493 0.05082759
vn 0.8745031 -0.4823493 0.05082759
vn 0.8823462 0.466663 -0.06075203
vn 0.8745031 0.4823492 0.05082877
vn 0.8745031 0.4823492 0.05082877
vn 0.8823462 0.466663 -0.06075203
vn 0.8823462 0.466663 0.06075203
vn 0.8823462 0.466663 0.06075203
vn -0.003921509 0.9921492 0.1249981
vn -0.003921509 0.9921492 0.1249981
vn -0.003921509 0.9999923 -0.000345267
vn -0.003921509 0.9999923 -0.000345267
vn -0.003921509 0.9999923 -0.000345267
vn -0.003921509 0.9999923 -0.000345267
vn -0.874503 0.4823492 0.05083052
vn -0.874503 0.4823492 0.05083052
vn -0.8509738 0.4509768 -0.2691902
vn -0.8588169 0.4509768 -0.2430092
vn -0.874503 0.466663 -0.1321745
vn -0.874503 0.466663 -0.1321745
vn -0.8509738 -0.450977 -0.26919
vn -0.874503 -0.4823493 0.05082935
vn -0.874503 -0.4823493 0.05082935
vn -0.8588169 -0.450977 -0.243009
vn -0.874503 -0.4666631 -0.1321741
vn -0.874503 -0.4666631 -0.1321741
vn 0.003921568 -0.9999924 0
vn 0.003921568 -0.9921493 0.1249976
vn 0.003921568 -0.9921493 0.1249976
vn 0.003921568 -0.9999924 0
vn -0.003921509 -0.9999924 0
vn -0.003921509 -0.9999924 0
vn 0.8823462 -0.4666631 -0.06075117
vn 0.8823462 -0.4666631 -0.06075117
vn 0.8745031 -0.4823493 0.05082759
vn 0.8745031 -0.4823493 0.05082759
vn 0.8823462 -0.4666631 0.06075117
vn 0.8823462 -0.4666631 0.06075117
vn 0.1921554 0.2784292 0.9410385
vn 0.2862723 0.003921509 0.9581403
vn -0.1529399 -0.003921568 0.9882277
vn -0.2235277 0.4352907 0.8720994
vn -0.5372508 -0.003921568 0.8434135
vn -0.2235277 -0.4352908 0.8720993
vn -0.5372508 -0.003921568 0.8434135
vn -0.1529399 -0.003921568 0.9882277
vn 0.1921554 -0.2784293 0.9410385
vn 0.2862723 0.003921509 0.9581403
g G_CA_Prinzeugen_Mech_002_0
f 3/3/3 2/2/2 1/1/1
f 4/4/4 3/3/3 1/1/1
f 7/7/7 6/6/6 5/5/5
f 8/8/8 7/7/7 5/5/5
f 11/11/11 10/10/10 9/9/9
f 12/12/12 11/11/11 9/9/9
f 15/15/15 14/14/14 13/13/13
f 16/16/16 15/15/15 13/13/13
f 19/19/19 18/18/18 17/17/17
f 20/20/20 19/19/19 17/17/17
f 23/23/23 22/22/22 21/21/21
f 24/24/24 23/23/23 21/21/21
f 27/27/27 26/26/26 25/25/25
f 28/28/28 27/27/27 25/25/25
f 29/29/29 26/26/26 27/27/27
f 25/25/25 26/26/26 30/30/30
f 33/33/33 32/32/32 31/31/31
f 34/34/34 33/33/33 31/31/31
f 31/31/31 32/32/32 35/35/35
f 32/32/32 36/36/36 35/35/35
f 35/35/35 36/36/36 37/37/37
f 36/36/36 38/38/38 37/37/37
f 41/41/41 40/40/40 39/39/39
f 42/42/42 41/41/41 39/39/39
f 39/39/39 40/40/40 43/43/43
f 40/40/40 44/44/44 43/43/43
f 43/43/43 44/44/44 45/45/45
f 44/44/44 46/46/46 45/45/45
f 49/49/49 48/48/48 47/47/47
f 50/50/50 49/49/49 47/47/47
f 47/47/47 48/48/48 51/51/51
f 48/48/48 52/52/52 51/51/51
f 51/51/51 52/52/52 53/53/53
f 52/52/52 54/54/54 53/53/53
f 57/57/57 56/56/56 55/55/55
f 58/58/58 57/57/57 55/55/55
f 55/55/55 56/56/56 59/59/59
f 56/56/56 60/60/60 59/59/59
f 59/59/59 60/60/60 61/61/61
f 60/60/60 62/62/62 61/61/61
f 65/65/65 64/64/64 63/63/63
f 66/66/66 65/65/65 63/63/63
f 63/63/63 64/64/64 67/67/67
f 64/64/64 68/68/68 67/67/67
f 67/67/67 68/68/68 69/69/69
f 68/68/68 70/70/70 69/69/69
f 73/73/73 72/72/72 71/71/71
f 74/74/74 73/73/73 71/71/71
f 71/71/71 72/72/72 75/75/75
f 72/72/72 76/76/76 75/75/75
f 75/75/75 76/76/76 77/77/77
f 76/76/76 78/78/78 77/77/77
f 81/81/81 80/80/80 79/79/79
f 82/82/82 81/81/81 79/79/79
f 82/82/82 79/79/79 83/83/83
f 79/79/79 84/84/84 83/83/83
f 87/87/87 86/86/86 85/85/85
f 88/88/88 87/87/87 85/85/85
f 89/89/89 87/87/87 88/88/88
f 90/90/90 89/89/89 88/88/88
f 93/93/93 92/92/92 91/91/91
f 94/94/94 93/93/93 91/91/91
f 95/95/95 93/93/93 94/94/94
f 96/96/96 95/95/95 94/94/94
f 99/99/99 98/98/98 97/97/97
f 100/100/100 99/99/99 97/97/97
f 100/100/100 97/97/97 101/101/101
f 102/102/102 100/100/100 101/101/101
f 105/105/105 104/104/104 103/103/103
f 106/106/106 105/105/105 103/103/103
f 106/106/106 103/103/103 107/107/107
f 108/108/108 106/106/106 107/107/107
f 111/111/111 110/110/110 109/109/109
f 112/112/112 111/111/111 109/109/109
f 109/109/109 110/110/110 113/113/113
f 114/114/114 109/109/109 113/113/113
f 117/117/117 116/116/116 115/115/115
f 117/117/117 115/115/115 118/118/118
f 117/117/117 118/118/118 119/119/119
f 122/122/122 121/121/121 120/120/120
f 122/122/122 120/120/120 123/123/123
f 122/122/122 123/123/123 124/124/124
