g G_CA_Prinzeugen_SD_Hair_001
v 0.0002163947 -0.005146921 0.978086
v 0.02810207 -0.0610193 0.9704074
v 0.0002163947 -0.06588921 0.9704074
v 0.0002163947 -0.1427365 0.9443605
v 0.05968565 -0.1283289 0.9443605
v 0.0002163947 -0.1911525 0.9091398
v 0.0817315 -0.1739967 0.9091398
v 0.0002163947 -0.2265148 0.8612692
v 0.1037773 -0.2107735 0.8619361
v 0.1247724 -0.2424985 0.8002644
v 0.0002163947 -0.2588056 0.8010322
v 0.1037773 -0.2554916 0.7289537
v 0.0002163947 -0.2706065 0.7291962
v 0.06376746 -0.2525818 0.6566126
v 0.009026647 -0.2658983 0.6564713
v 0.01983741 -0.2377499 0.6148448
v -0.02768949 -0.0610193 0.9704074
v -0.08131891 -0.1739967 0.9091398
v -0.102415 -0.2102279 0.8619361
v -0.1193081 -0.2554916 0.7289537
v -0.1243598 -0.2424985 0.8002644
v -0.1049005 -0.2554714 0.6770419
v -0.0484421 -0.2592905 0.6441045
v -0.07430708 -0.2506621 0.6394569
v -0.0409655 -0.2458529 0.6213918
v -0.05927306 -0.1283289 0.9443605
v 0.06403014 -0.2411042 0.6563904
v 0.09848312 -0.230738 0.7289537
v 0.0002163947 -0.2413265 0.731318
v 0.0002163947 -0.2497731 0.6649985
v 0.0002163947 -0.2222511 0.7997996
v 0.1221859 -0.2131175 0.8002239
v 0.0002163947 -0.1907483 0.8628253
v 0.09979658 -0.1823826 0.8643812
v 0.01983741 -0.2377499 0.6148448
v -0.1043347 -0.2396695 0.6773854
v -0.1140139 -0.230738 0.7289537
v -0.1217734 -0.2131175 0.8002239
v -0.09936377 -0.1823826 0.8643812
v -0.05310991 -0.2396291 0.6440035
v 0.06376746 -0.2525818 0.6566126
v 0.1037773 -0.2554916 0.7289537
v 0.09848312 -0.230738 0.7289537
v 0.06403014 -0.2411042 0.6563904
v 0.1247724 -0.2424985 0.8002644
v 0.1221859 -0.2131175 0.8002239
v 0.01983741 -0.2377499 0.6148448
v -0.1049005 -0.2554714 0.6770419
v -0.1043347 -0.2396695 0.6773854
v -0.1140139 -0.230738 0.7289537
v -0.1193081 -0.2554916 0.7289537
v -0.1243598 -0.2424985 0.8002644
v -0.1217734 -0.2131175 0.8002239
v -0.0484421 -0.2592905 0.6441045
v 0.01983741 -0.2377499 0.6148448
v -0.05310991 -0.2396291 0.6440035
v -0.05310991 -0.2396291 0.6440035
v -0.07446873 -0.243812 0.6393356
v -0.0409655 -0.2458529 0.6213918
v -0.1043347 -0.2396695 0.6773854
v -0.1049005 -0.2554714 0.6770419
v -0.07430708 -0.2506621 0.6394569
v -0.07446873 -0.243812 0.6393356
v -0.05310991 -0.2396291 0.6440035
v -0.0409655 -0.2458529 0.6213918
v -0.0484421 -0.2592905 0.6441045
v -0.07430708 -0.2506621 0.6394569
v -0.0409655 -0.2458529 0.6213918
v -0.07446873 -0.243812 0.6393356
v -0.05310991 -0.2396291 0.6440035
v -0.1043347 -0.2396695 0.6773854
v -0.07446873 -0.243812 0.6393356
v 0.1209533 0.05030113 0.9808948
v 0.1905261 0.0858655 0.9500589
v 0.1836557 0.006916672 0.9451486
v 0.1201854 0.001420379 0.9732767
v 0.1073136 0.1153071 0.9750954
v 0.1444541 0.158732 0.9544034
v 0.05802867 0.1272899 0.9878864
v 0.07554814 0.1970041 0.9580204
v 0.0002163947 0.1301188 0.9887553
v 0.0002163947 0.2090475 0.9593743
v 0.1579726 -0.0175136 0.9118475
v 0.1017162 -0.01747319 0.9435725
v 0.05592713 0.0003291965 0.985401
v 0.05623025 0.04912913 0.993403
v 0.0002163947 0.04826024 0.9925543
v 0.0002163947 -0.0009640455 0.9828146
v 0.0468542 -0.01725093 0.954363
v 0.0002163947 -0.01743278 0.9516755
v 0.1784423 0.1927606 0.918738
v 0.2354261 0.1062544 0.9130801
v 0.2096823 0.2226468 0.8679174
v 0.2732132 0.1209449 0.8665433
v 0.3035237 0.131594 0.79008
v 0.2355877 0.2470973 0.7916157
v 0.108526 0.290219 0.8674325
v 0.1204683 0.3156193 0.7927473
v 0.0002163947 0.33716 0.7925655
v 0.0002163947 0.3089105 0.8683619
v 0.3256908 0.1363628 0.7031292
v 0.2494699 0.258494 0.7061198
v 0.1277025 0.3241466 0.7056752
v 0.2539963 0.2527755 0.612238
v 0.3308638 0.1383229 0.6179769
v 0.1296423 0.3161447 0.6085199
v 0.2730515 0.02518383 0.8607843
v 0.2336681 0.01384768 0.9070179
v 0.09337074 0.2506133 0.9200919
v 0.0002163947 0.267082 0.9198697
v 0.2078031 -0.01757422 0.8717769
v 0.2382551 -0.01763484 0.8253412
v 0.3017657 0.03708574 0.7831692
v 0.2530668 -0.02119127 0.7703984
v 0.324054 0.04231936 0.6989261
v 0.2495306 -0.03313363 0.693935
v 0.2347794 0.2248494 0.5217915
v 0.3178707 0.1328064 0.5270251
v 0.3128594 0.04244062 0.6198965
v 0.2862467 0.03896502 0.5310664
v 0.2246557 -0.008016318 0.5301168
v 0.2448223 0.02851799 0.4302132
v 0.2244537 -0.02723318 0.6214525
v 0.2822659 0.08323857 0.4556337
v 0.2084901 0.1399799 0.4189983
v 0.1515872 0.2257384 0.4433478
v 0.1219435 0.2859958 0.5169418
v 0.0002163947 0.3089509 0.5155272
v 0.0002163947 0.250391 0.3950329
v 0.0002163947 0.3355434 0.6089847
v 0.0002163947 0.3439697 0.706039
v 0.1393417 0.02823508 0.4906524
v 0.2448223 0.02851799 0.4302132
v 0.2822659 0.08323857 0.4556337
v 0.2084901 0.1399799 0.4189983
v 0.1515872 0.2257384 0.4433478
v 0.07912481 0.06935635 0.4693542
v 0.0002163947 0.250391 0.3950329
v 0.0002163947 0.09200841 0.4595539
v 0.2246557 -0.008016318 0.5301168
v 0.0002163947 0.06606263 0.6930661
v 0.1186295 0.01986939 0.6930863
v 0.2244537 -0.02723318 0.6214525
v 0.2495306 -0.03313363 0.693935
v -0.1205407 0.05030113 0.9808948
v -0.1197729 0.001420379 0.9732767
v -0.1832431 0.006916672 0.9451486
v -0.1901135 0.0858655 0.9500589
v -0.106901 0.1153071 0.9750954
v -0.1440415 0.158732 0.9544034
v -0.05759588 0.1272899 0.9878864
v -0.07511535 0.1970041 0.9580204
v 0.0002163947 0.1301188 0.9887553
v 0.0002163947 0.2090475 0.9593743
v -0.15756 -0.0175136 0.9118475
v -0.1013036 -0.01747319 0.9435725
v -0.05551454 0.0003291965 0.985401
v -0.05581766 0.04912913 0.993403
v 0.0002163947 0.04826024 0.9925543
v 0.0002163947 -0.0009640455 0.9828146
v -0.04644161 -0.01725093 0.954363
v 0.0002163947 -0.01743278 0.9516755
v -0.2332555 0.01384768 0.9070179
v -0.2349932 0.1062544 0.9130801
v -0.2726389 0.02518383 0.8607843
v -0.2728006 0.1209449 0.8665433
v -0.2092697 0.2226468 0.8679174
v -0.3031111 0.131594 0.79008
v -0.2351751 0.2470973 0.7916157
v -0.1081134 0.290219 0.8674325
v -0.1200558 0.3156193 0.7927473
v 0.0002163947 0.33716 0.7925655
v 0.0002163947 0.3089105 0.8683619
v -0.325258 0.1363628 0.7031292
v -0.2490574 0.258494 0.7061198
v -0.1272899 0.3241466 0.7056752
v -0.2535837 0.2527755 0.612238
v -0.3304512 0.1383229 0.6179769
v -0.1292298 0.3161447 0.6085199
v -0.1780297 0.1927606 0.918738
v -0.09293795 0.2506133 0.9200919
v 0.0002163947 0.267082 0.9198697
v -0.2343669 0.2248494 0.5217915
v -0.3174581 0.1328064 0.5270251
v -0.1215107 0.2859958 0.5169418
v -0.3124467 0.04244062 0.6198965
v -0.2858341 0.03896502 0.5310664
v -0.2242431 -0.008016318 0.5301168
v -0.2444097 0.02851799 0.4302132
v -0.2240411 -0.02723318 0.6214525
v -0.2818331 0.08323857 0.4556337
v -0.2080775 0.1399799 0.4189983
v -0.1511746 0.2257384 0.4433478
v 0.0002163947 0.3089509 0.5155272
v 0.0002163947 0.250391 0.3950329
v -0.3236414 0.04231936 0.6989261
v -0.3013531 0.03708574 0.7831692
v -0.2526542 -0.02119127 0.7703984
v -0.2378425 -0.01763484 0.8253412
v -0.249118 -0.03313363 0.693935
v -0.2073905 -0.01757422 0.8717769
v 0.0002163947 0.3355434 0.6089847
v 0.0002163947 0.3439697 0.706039
v -0.1389291 0.02823508 0.4906524
v -0.2818331 0.08323857 0.4556337
v -0.2444097 0.02851799 0.4302132
v -0.2080775 0.1399799 0.4189983
v -0.1511746 0.2257384 0.4433478
v -0.0787122 0.06935635 0.4693542
v 0.0002163947 0.250391 0.3950329
v 0.0002163947 0.09200841 0.4595539
v -0.2242431 -0.008016318 0.5301168
v 0.0002163947 0.06606263 0.6930661
v -0.1182169 0.01986939 0.6930863
v -0.2240411 -0.02723318 0.6214525
v -0.249118 -0.03313363 0.693935
v -0.1952259 -0.1781392 0.3107494
v -0.2033289 -0.1477882 0.4061063
v -0.2534423 -0.06538403 0.363813
v -0.2069459 -0.1336433 0.4737594
v -0.2689613 -0.02937514 0.4519358
v -0.2117956 -0.1280056 0.556689
v -0.2746799 -0.01088572 0.5504045
v -0.271083 -0.006864518 0.64952
v -0.2056931 -0.1384728 0.6494392
v -0.196115 -0.1355226 0.7246497
v -0.2636872 -0.006217897 0.7234372
v -0.2411968 -0.004237592 0.8001431
v -0.1790805 -0.1257626 0.8010927
v -0.1217734 -0.2131175 0.8002239
v -0.1538217 -0.1929913 0.7211943
v -0.1630563 -0.1161643 0.8668869
v -0.09936377 -0.1823826 0.8643812
v -0.2135738 -0.005995601 0.8592082
v -0.1733821 -0.1716729 0.684559
v -0.2220002 -0.1543151 0.64952
v -0.2267084 -0.1449391 0.5590532
v -0.165764 -0.2204931 0.7240031
v -0.1243598 -0.2424985 0.8002644
v -0.1935082 -0.1939411 0.6820532
v -0.2223032 -0.1493442 0.4803671
v -0.217979 -0.1621352 0.4100871
v -0.2016517 -0.192567 0.3085266
v 0.0002163947 -0.005146921 0.978086
v -0.02768949 -0.0610193 0.9704074
v -0.05199853 -0.04798579 0.9704074
v -0.06725484 -0.02971864 0.9704074
v -0.0712558 -0.005571246 0.9704074
v -0.05927306 -0.1283289 0.9443605
v -0.1099118 -0.09775567 0.9443605
v -0.1366053 -0.05766493 0.9443605
v -0.1444052 -0.006177455 0.9443605
v -0.08131891 -0.1739967 0.9091398
v -0.1471534 -0.1315418 0.9091398
v -0.102415 -0.2102279 0.8619361
v -0.1828389 -0.1624181 0.8622797
v -0.1809395 -0.07641706 0.9091398
v -0.2207271 -0.09050135 0.8622797
v -0.1243598 -0.2424985 0.8002644
v -0.2049454 -0.1795335 0.7997996
v -0.2543112 -0.09773546 0.7997996
v -0.2160795 -0.1756941 0.7238616
v -0.2712447 -0.0915319 0.7239627
v -0.165764 -0.2204931 0.7240031
v -0.1935082 -0.1939411 0.6820532
v -0.261424 -0.001469225 0.7997996
v -0.2792669 -0.0001557767 0.723902
v -0.2840155 -0.09161273 0.64952
v -0.2220002 -0.1543151 0.64952
v -0.2267084 -0.1449391 0.5590532
v -0.2869859 -0.09682614 0.5560423
v -0.2839953 -0.1105467 0.4739412
v -0.2223032 -0.1493442 0.4803671
v -0.2846419 -0.03070879 0.4505617
v -0.267183 -0.06863734 0.3652275
v -0.2652027 -0.1353205 0.3889505
v -0.2016517 -0.192567 0.3085266
v -0.217979 -0.1621352 0.4100871
v -0.2925631 -0.008218378 0.5504854
v -0.289532 0.0001473427 0.64952
v -0.2308508 -0.003692001 0.8622797
v -0.1918311 -0.006824106 0.9091398
v -0.2308508 -0.003692001 0.8622797
v -0.261424 -0.001469225 0.7997996
v -0.2411968 -0.004237592 0.8001431
v -0.2135738 -0.005995601 0.8592082
v -0.2792669 -0.0001557767 0.723902
v -0.2636872 -0.006217897 0.7234372
v -0.289532 0.0001473427 0.64952
v -0.271083 -0.006864518 0.64952
v -0.2925631 -0.008218378 0.5504854
v -0.2746799 -0.01088572 0.5504045
v -0.2846419 -0.03070879 0.4505617
v -0.2689613 -0.02937514 0.4519358
v -0.267183 -0.06863734 0.3652275
v -0.2534423 -0.06538403 0.363813
v -0.1952259 -0.1781392 0.3107494
v -0.2534423 -0.06538403 0.363813
v -0.267183 -0.06863734 0.3652275
v -0.2016517 -0.192567 0.3085266
v 0.1956587 -0.1781392 0.3107494
v 0.2538549 -0.06538403 0.363813
v 0.2037415 -0.1477882 0.4061063
v 0.2073585 -0.1336433 0.4737594
v 0.2693739 -0.02937514 0.4519358
v 0.2122082 -0.1280056 0.556689
v 0.2750924 -0.01088572 0.5504045
v 0.2714956 -0.006864518 0.64952
v 0.2061057 -0.1384728 0.6494392
v 0.1965276 -0.1355226 0.7246497
v 0.2640998 -0.006217897 0.7234372
v 0.2416094 -0.004237592 0.8001431
v 0.179493 -0.1257626 0.8010927
v 0.1221859 -0.2131175 0.8002239
v 0.1542545 -0.1929913 0.7211943
v 0.1634689 -0.1161643 0.8668869
v 0.09979658 -0.1823826 0.8643812
v 0.2139864 -0.005995601 0.8592082
v 0.1737947 -0.1716729 0.684559
v 0.2224128 -0.1543151 0.64952
v 0.227121 -0.1449391 0.5590532
v 0.1661766 -0.2204931 0.7240031
v 0.1247724 -0.2424985 0.8002644
v 0.1939209 -0.1939411 0.6820532
v 0.2227159 -0.1493442 0.4803671
v 0.2183916 -0.1621352 0.4100871
v 0.2020643 -0.192567 0.3085266
v 0.0002163947 -0.005146921 0.978086
v 0.05241111 -0.04798579 0.9704074
v 0.02810207 -0.0610193 0.9704074
v 0.06766742 -0.02971864 0.9704074
v 0.07166842 -0.005571246 0.9704074
v 0.05968565 -0.1283289 0.9443605
v 0.1103244 -0.09775567 0.9443605
v 0.1370179 -0.05766493 0.9443605
v 0.1448178 -0.006177455 0.9443605
v 0.0817315 -0.1739967 0.9091398
v 0.147566 -0.1315418 0.9091398
v 0.1028276 -0.2102279 0.8619361
v 0.1832515 -0.1624181 0.8622797
v 0.1813521 -0.07641706 0.9091398
v 0.2211397 -0.09050135 0.8622797
v 0.1247724 -0.2424985 0.8002644
v 0.205358 -0.1795335 0.7997996
v 0.2547238 -0.09773546 0.7997996
v 0.2164921 -0.1756941 0.7238616
v 0.2716573 -0.0915319 0.7239627
v 0.1661766 -0.2204931 0.7240031
v 0.1939209 -0.1939411 0.6820532
v 0.2618366 -0.001469225 0.7997996
v 0.2796794 -0.0001557767 0.723902
v 0.2844281 -0.09161273 0.64952
v 0.2224128 -0.1543151 0.64952
v 0.227121 -0.1449391 0.5590532
v 0.2873985 -0.09682614 0.5560423
v 0.2844079 -0.1105467 0.4739412
v 0.2227159 -0.1493442 0.4803671
v 0.2850545 -0.03070879 0.4505617
v 0.2675956 -0.06863734 0.3652275
v 0.2656153 -0.1353205 0.3889505
v 0.2020643 -0.192567 0.3085266
v 0.2183916 -0.1621352 0.4100871
v 0.2929757 -0.008218378 0.5504854
v 0.2899446 0.0001473427 0.64952
v 0.2312634 -0.003692001 0.8622797
v 0.1922437 -0.006824106 0.9091398
v 0.2312634 -0.003692001 0.8622797
v 0.2139864 -0.005995601 0.8592082
v 0.2416094 -0.004237592 0.8001431
v 0.2618366 -0.001469225 0.7997996
v 0.2796794 -0.0001557767 0.723902
v 0.2640998 -0.006217897 0.7234372
v 0.2899446 0.0001473427 0.64952
v 0.2714956 -0.006864518 0.64952
v 0.2929757 -0.008218378 0.5504854
v 0.2750924 -0.01088572 0.5504045
v 0.2850545 -0.03070879 0.4505617
v 0.2693739 -0.02937514 0.4519358
v 0.2675956 -0.06863734 0.3652275
v 0.2538549 -0.06538403 0.363813
v 0.1956587 -0.1781392 0.3107494
v 0.2020643 -0.192567 0.3085266
v 0.2675956 -0.06863734 0.3652275
v 0.2538549 -0.06538403 0.363813
vt 0.5773789 0.9239223
vt 0.6497766 0.8746919
vt 0.6169563 0.8553859
vt 0.6681173 0.7665781
vt 0.7405149 0.8090514
vt 0.70866 0.6970764
vt 0.8071208 0.7549945
vt 0.750168 0.6266093
vt 0.8746919 0.6980417
vt 0.9480549 0.6275746
vt 0.7984331 0.5406975
vt 0.9586732 0.5416628
vt 0.8380104 0.4731263
vt 0.9615691 0.4499591
vt 0.8968939 0.3930062
vt 0.9586732 0.3370187
vt 0.5831708 0.8360798
vt 0.6101992 0.6401235
vt 0.625644 0.555177
vt 0.6961111 0.3901103
vt 0.6488113 0.4538203
vt 0.750168 0.3457065
vt 0.8389758 0.3302616
vt 0.8003637 0.3138515
vt 0.8360798 0.2839271
vt 0.596685 0.7250701
vt 0.7134865 0.8515247
vt 0.7395496 0.8418717
vt 0.7395496 0.8804837
vt 0.7125212 0.8804837
vt 0.7636822 0.8804837
vt 0.7636822 0.8322186
vt 0.791676 0.8804837
vt 0.791676 0.8341492
vt 0.6874233 0.8727613
vt 0.718313 0.9210264
vt 0.7395496 0.9268183
vt 0.7636822 0.9287488
vt 0.791676 0.925853
vt 0.7038335 0.9026857
vt 0.9741181 0.1931887
vt 0.964465 0.2462804
vt 0.9480549 0.2414538
vt 0.9663956 0.1912581
vt 0.9432284 0.2906843
vt 0.9248877 0.286823
vt 0.9731527 0.1516808
vt 0.945159 0.2018765
vt 0.9364712 0.1989806
vt 0.9190958 0.2298702
vt 0.9355059 0.235662
vt 0.9113734 0.2781353
vt 0.8930327 0.2713782
vt 0.3264004 0.2935801
vt 0.4287224 0.309025
vt 0.3321922 0.2665517
vt 0.7038335 0.9026857
vt 0.7019029 0.9113734
vt 0.6932152 0.8997898
vt 0.9364712 0.1989806
vt 0.945159 0.2018765
vt 0.9519161 0.1709868
vt 0.9470896 0.1690562
vt 0.3321922 0.2665517
vt 0.296476 0.2713782
vt 0.3264004 0.2935801
vt 0.9519161 0.1709868
vt 0.9567426 0.145889
vt 0.9470896 0.1690562
vt 0.7038335 0.9026857
vt 0.718313 0.9210264
vt 0.7019029 0.9113734
vt 0.1198258 0.8708307
vt 0.1420278 0.8100167
vt 0.07252601 0.8042249
vt 0.0657689 0.8660042
vt 0.1767786 0.881449
vt 0.216356 0.842837
vt 0.1922234 0.9287488
vt 0.2665517 0.8988245
vt 0.1999459 0.9818404
vt 0.296476 0.964465
vt 0.02426091 0.8071208
vt 0.02426091 0.8660042
vt 0.05997708 0.9219917
vt 0.1111381 0.9297141
vt 0.1092075 0.9808751
vt 0.05418527 0.9692915
vt 0.02426091 0.9142693
vt 0.02426091 0.9519161
vt 0.245315 0.801329
vt 0.1565073 0.7607863
vt 0.2723435 0.7530639
vt 0.1690562 0.7134865
vt 0.184501 0.6536378
vt 0.3003373 0.6883886
vt 0.3708043 0.8119473
vt 0.4103817 0.7463068
vt 0.5069119 0.8061555
vt 0.4441673 0.881449
vt 0.1989806 0.5841361
vt 0.3235045 0.6198522
vt 0.4422366 0.6661867
vt 0.3399146 0.5397322
vt 0.216356 0.5107731
vt 0.4634733 0.5735177
vt 0.08797084 0.699007
vt 0.08024842 0.750168
vt 0.3235045 0.8592471
vt 0.3765961 0.9316447
vt 0.02426091 0.7472721
vt 0.02426091 0.6912845
vt 0.09858917 0.638193
vt 0.02426091 0.6314359
vt 0.1101728 0.5657953
vt 0.02426091 0.5542117
vt 0.3534289 0.4547856
vt 0.2366273 0.4364448
vt 0.1265829 0.4924323
vt 0.145889 0.4094164
vt 0.08797084 0.3901103
vt 0.155542 0.3235045
vt 0.02426091 0.4789181
vt 0.2173213 0.3669431
vt 0.3312269 0.3341228
vt 0.4364448 0.4074858
vt 0.4760222 0.4798834
vt 0.5783442 0.5001548
vt 0.5783442 0.3765961
vt 0.5783442 0.6044074
vt 0.5580729 0.7125212
vt 0.8882062 0.8582818
vt 0.8264269 0.8244962
vt 0.8264269 0.7878147
vt 0.8708307 0.7723699
vt 0.9084775 0.7405149
vt 0.9306794 0.8399411
vt 0.9741181 0.7144518
vt 0.9741181 0.8322186
vt 0.8264269 0.881449
vt 0.9741181 0.9770139
vt 0.9065469 0.9770139
vt 0.8264269 0.9345406
vt 0.8264269 0.9770139
vt 0.1198258 0.8708307
vt 0.0657689 0.8660042
vt 0.07252601 0.8042249
vt 0.1420278 0.8100167
vt 0.1767786 0.881449
vt 0.216356 0.842837
vt 0.1922234 0.9287488
vt 0.2665517 0.8988245
vt 0.1999459 0.9818404
vt 0.296476 0.964465
vt 0.02426091 0.8071208
vt 0.02426091 0.8660042
vt 0.05997708 0.9219917
vt 0.1111381 0.9297141
vt 0.1092075 0.9808751
vt 0.05418527 0.9692915
vt 0.02426091 0.9142693
vt 0.02426091 0.9519161
vt 0.08024842 0.750168
vt 0.1565073 0.7607863
vt 0.08797084 0.699007
vt 0.1690562 0.7134865
vt 0.2723435 0.7530639
vt 0.184501 0.6536378
vt 0.3003373 0.6883886
vt 0.3708043 0.8119473
vt 0.4103817 0.7463068
vt 0.5069119 0.8061555
vt 0.4441673 0.881449
vt 0.1989806 0.5841361
vt 0.3235045 0.6198522
vt 0.4422366 0.6661867
vt 0.3399146 0.5397322
vt 0.216356 0.5107731
vt 0.4634733 0.5735177
vt 0.245315 0.801329
vt 0.3235045 0.8592471
vt 0.3765961 0.9316447
vt 0.3534289 0.4547856
vt 0.2366273 0.4364448
vt 0.4760222 0.4798834
vt 0.1265829 0.4924323
vt 0.145889 0.4094164
vt 0.08797084 0.3901103
vt 0.155542 0.3235045
vt 0.02426091 0.4789181
vt 0.2173213 0.3669431
vt 0.3312269 0.3341228
vt 0.4364448 0.4074858
vt 0.5783442 0.5001548
vt 0.5783442 0.3765961
vt 0.1101728 0.5657953
vt 0.09858917 0.638193
vt 0.02426091 0.6314359
vt 0.02426091 0.6912845
vt 0.02426091 0.5542117
vt 0.02426091 0.7472721
vt 0.5783442 0.6044074
vt 0.5580729 0.7125212
vt 0.8882062 0.8582818
vt 0.8264269 0.7878147
vt 0.8264269 0.8244962
vt 0.8708307 0.7723699
vt 0.9084775 0.7405149
vt 0.9306794 0.8399411
vt 0.9741181 0.7144518
vt 0.9741181 0.8322186
vt 0.8264269 0.881449
vt 0.9741181 0.9770139
vt 0.9065469 0.9770139
vt 0.8264269 0.9345406
vt 0.8264269 0.9770139
vt 0.2540028 0.2819965
vt 0.226009 0.2810312
vt 0.226009 0.257864
vt 0.1970499 0.2781353
vt 0.2009112 0.2511069
vt 0.1700215 0.2723435
vt 0.174848 0.2424191
vt 0.1478196 0.2327661
vt 0.1391318 0.2665517
vt 0.1130687 0.2646211
vt 0.1285135 0.2250437
vt 0.1034157 0.2173213
vt 0.08990145 0.2549681
vt 0.07445662 0.286823
vt 0.104381 0.2848924
vt 0.0686648 0.248211
vt 0.05515058 0.2723435
vt 0.08507493 0.2144254
vt 0.1188605 0.27717
vt 0.1372012 0.2858577
vt 0.1690562 0.2887536
vt 0.1014851 0.296476
vt 0.07252601 0.2945454
vt 0.1198258 0.2926148
vt 0.1980153 0.2906843
vt 0.226009 0.2887536
vt 0.2607599 0.2819965
vt 0.9712221 0.03584453
vt 0.9355059 0.1034157
vt 0.9104081 0.08604024
vt 0.8959286 0.06287299
vt 0.8949633 0.03584453
vt 0.881449 0.1864316
vt 0.8351145 0.1410624
vt 0.8138779 0.09279735
vt 0.810982 0.03584453
vt 0.8244962 0.2491762
vt 0.7733352 0.1796745
vt 0.7511333 0.3003373
vt 0.7028682 0.2115295
vt 0.750168 0.1121034
vt 0.6835622 0.1275482
vt 0.6584643 0.3399146
vt 0.6237134 0.2366273
vt 0.6092339 0.1343053
vt 0.5387669 0.2424191
vt 0.5252526 0.1352706
vt 0.5590382 0.3013026
vt 0.5020854 0.2684823
vt 0.606338 0.03584453
vt 0.5223567 0.03584453
vt 0.4441673 0.1343053
vt 0.4441673 0.2346967
vt 0.337984 0.2124948
vt 0.337984 0.1314094
vt 0.2424191 0.1265829
vt 0.2414538 0.1951194
vt 0.2414538 0.03584453
vt 0.1478196 0.03584453
vt 0.1545767 0.1198258
vt 0.04839346 0.1507155
vt 0.1545767 0.1777439
vt 0.337984 0.03584453
vt 0.4441673 0.03584453
vt 0.6777703 0.03584453
vt 0.7434109 0.03584453
vt 0.08604024 0.2086336
vt 0.1072769 0.2105642
vt 0.1034157 0.2173213
vt 0.08507493 0.2144254
vt 0.1304441 0.2192519
vt 0.1285135 0.2250437
vt 0.1497502 0.2269743
vt 0.1478196 0.2327661
vt 0.1758133 0.2366273
vt 0.174848 0.2424191
vt 0.2018765 0.2472457
vt 0.2009112 0.2511069
vt 0.226009 0.2568987
vt 0.226009 0.257864
vt 0.2540028 0.2819965
vt 0.226009 0.257864
vt 0.226009 0.2568987
vt 0.2607599 0.2819965
vt 0.2540028 0.2819965
vt 0.226009 0.257864
vt 0.226009 0.2810312
vt 0.1970499 0.2781353
vt 0.2009112 0.2511069
vt 0.1700215 0.2723435
vt 0.174848 0.2424191
vt 0.1478196 0.2327661
vt 0.1391318 0.2665517
vt 0.1130687 0.2646211
vt 0.1285135 0.2250437
vt 0.1034157 0.2173213
vt 0.08990145 0.2549681
vt 0.07445662 0.286823
vt 0.104381 0.2848924
vt 0.0686648 0.248211
vt 0.05515058 0.2723435
vt 0.08507493 0.2144254
vt 0.1188605 0.27717
vt 0.1372012 0.2858577
vt 0.1690562 0.2887536
vt 0.1014851 0.296476
vt 0.07252601 0.2945454
vt 0.1198258 0.2926148
vt 0.1980153 0.2906843
vt 0.226009 0.2887536
vt 0.2607599 0.2819965
vt 0.9712221 0.03584453
vt 0.9104081 0.08604024
vt 0.9355059 0.1034157
vt 0.8959286 0.06287299
vt 0.8949633 0.03584453
vt 0.881449 0.1864316
vt 0.8351145 0.1410624
vt 0.8138779 0.09279735
vt 0.810982 0.03584453
vt 0.8244962 0.2491762
vt 0.7733352 0.1796745
vt 0.7511333 0.3003373
vt 0.7028682 0.2115295
vt 0.750168 0.1121034
vt 0.6835622 0.1275482
vt 0.6584643 0.3399146
vt 0.6237134 0.2366273
vt 0.6092339 0.1343053
vt 0.5387669 0.2424191
vt 0.5252526 0.1352706
vt 0.5590382 0.3013026
vt 0.5020854 0.2684823
vt 0.606338 0.03584453
vt 0.5223567 0.03584453
vt 0.4441673 0.1343053
vt 0.4441673 0.2346967
vt 0.337984 0.2124948
vt 0.337984 0.1314094
vt 0.2424191 0.1265829
vt 0.2414538 0.1951194
vt 0.2414538 0.03584453
vt 0.1478196 0.03584453
vt 0.1545767 0.1198258
vt 0.04839346 0.1507155
vt 0.1545767 0.1777439
vt 0.337984 0.03584453
vt 0.4441673 0.03584453
vt 0.6777703 0.03584453
vt 0.7434109 0.03584453
vt 0.08604024 0.2086336
vt 0.08507493 0.2144254
vt 0.1034157 0.2173213
vt 0.1072769 0.2105642
vt 0.1304441 0.2192519
vt 0.1285135 0.2250437
vt 0.1497502 0.2269743
vt 0.1478196 0.2327661
vt 0.1758133 0.2366273
vt 0.174848 0.2424191
vt 0.2018765 0.2472457
vt 0.2009112 0.2511069
vt 0.226009 0.2568987
vt 0.226009 0.257864
vt 0.2540028 0.2819965
vt 0.2607599 0.2819965
vt 0.226009 0.2568987
vt 0.226009 0.257864
vn 0.003470659 -0.08970481 0.9959624
vn 0.08186531 -0.2229757 0.9713804
vn 0.003470659 -0.2386547 0.9710983
vn 0.003470659 -0.4738387 0.8806049
vn 0.175939 -0.4346414 0.883251
vn -0.004368782 -0.6933438 0.7205938
vn 0.2386547 -0.6384674 0.7317125
vn -0.004368782 -0.8344541 0.5510601
vn 0.1289021 -0.8344541 0.5357897
vn 0.3562467 -0.8736514 0.3313933
vn 0.003470659 -0.9442067 0.3293353
vn 0.1524205 -0.983404 0.09841017
vn 0.01131016 -0.9990829 0.04129659
vn 0.1916178 -0.9598856 -0.2047004
vn 0.06618643 -0.9520461 -0.2987099
vn 0.1210627 -0.8344541 -0.5376152
vn -0.08276343 -0.2229757 0.9713043
vn -0.2473923 -0.6384674 0.7288048
vn -0.2944291 -0.7717384 0.5636767
vn -0.1298002 -0.9912435 0.02425485
vn -0.3493053 -0.8814909 0.3177413
vn -0.1376398 -0.983404 -0.1182029
vn -0.1298002 -0.9442067 -0.3026974
vn -0.2317133 -0.8971698 -0.3760256
vn -0.1768371 -0.8187752 -0.5462013
vn -0.1768371 -0.4346414 0.8830717
vn -0.1219608 0.9921416 -0.02793997
vn -0.09844244 0.9764626 -0.191911
vn -0.01220822 0.9843022 -0.1760689
vn -0.004368782 0.999981 0.004339939
vn -0.004368782 0.9372653 -0.3485896
vn -0.07492399 0.9372653 -0.3404705
vn 0.003470659 0.8902285 -0.455501
vn -0.06708455 0.8902285 -0.4505473
vn -0.02788723 0.9764626 0.2138762
vn 0.08970481 0.9921416 -0.08722451
vn 0.08186531 0.9764626 -0.1995465
vn 0.07402587 0.9372653 -0.340667
vn 0.06618643 0.8902285 -0.4506801
vn 0.1053838 0.9764626 0.1881889
vn 0.8030963 0.05140555 -0.5936276
vn 0.9128488 0.1298002 -0.3871163
vn 0.9128488 0.1298002 -0.3871163
vn 0.7952568 0.04356611 -0.6047054
vn 0.9363672 0.1376398 -0.3229114
vn 0.9363672 0.1376398 -0.3229114
vn 0.08186531 -0.07402587 -0.9938905
vn -0.9607837 0.1376398 -0.2407279
vn -0.9607837 0.1376398 -0.2407279
vn -0.9764626 0.1454792 -0.1592375
vn -0.9764626 0.1454792 -0.1592375
vn -0.9843022 0.1454792 -0.09992532
vn -0.9843022 0.1454792 -0.09992532
vn -0.3649843 -0.08970481 -0.926682
vn 0.08186531 -0.07402587 -0.9938905
vn -0.3649843 -0.08970481 -0.926682
vn -0.1141213 0.9372653 -0.3294088
vn -0.1141213 0.9372653 -0.3294088
vn -0.1141213 0.9372653 -0.3294088
vn -0.780476 0.02004778 -0.6248643
vn -0.780476 0.02004778 -0.6248643
vn -0.780476 0.02004778 -0.6248643
vn -0.780476 0.02004778 -0.6248643
vn 0.8814909 0.208195 0.4238261
vn 0.8814909 0.208195 0.4238261
vn 0.8814909 0.208195 0.4238261
vn -0.4747368 -0.02698904 -0.8797139
vn -0.4747368 -0.02698904 -0.8797139
vn -0.4747368 -0.02698904 -0.8797139
vn -0.1454792 0.9686232 -0.2015068
vn -0.1454792 0.9686232 -0.2015068
vn -0.1454792 0.9686232 -0.2015068
vn 0.3092099 -0.0191496 0.950801
vn 0.513036 0.07492399 0.8550909
vn 0.4738387 -0.5208755 0.7100462
vn 0.277852 -0.5600728 0.7804593
vn 0.2700126 0.1846765 0.9449803
vn 0.3719256 0.3257869 0.8692147
vn 0.1289021 0.208195 0.9695562
vn 0.1837784 0.4433789 0.8772916
vn 0.003470659 0.2160344 0.9763796
vn 0.003470659 0.4747368 0.8801209
vn 0.3092099 -0.8579725 0.4102102
vn 0.1680995 -0.8736514 0.4565914
vn 0.07402587 -0.5600728 0.8251295
vn 0.09754425 -0.04266798 0.9943161
vn 0.003470659 -0.05834693 0.9982903
vn 0.003470659 -0.5914307 0.8063484
vn 0.03482854 -0.8736514 0.4853041
vn 0.003470659 -0.8736514 0.4865399
vn 0.4973571 0.4668974 0.7311927
vn 0.6776648 0.1533186 0.7192106
vn 0.6149491 0.5923288 0.5205615
vn 0.8266147 0.208195 0.5228413
vn 0.9206883 0.2395527 0.3081356
vn 0.6698253 0.6785629 0.3014738
vn 0.3170493 0.8039944 0.5030634
vn 0.3327283 0.9059074 0.2619612
vn 0.003470659 0.9764626 0.2156588
vn 0.003470659 0.8745496 0.4849236
vn 0.9598856 0.2395527 0.1457194
vn 0.6776648 0.7255998 0.1194798
vn 0.3248888 0.9451048 0.03498715
vn 0.6619859 0.7412786 -0.1108183
vn 0.967725 0.2160344 -0.129759
vn 0.3170493 0.9294258 -0.1888052
vn 0.8109357 -0.395444 0.4312856
vn 0.6463069 -0.4738387 0.5981339
vn 0.2543336 0.6393656 0.7256212
vn 0.003470659 0.6864024 0.7272136
vn 0.4738387 -0.8030963 0.3612662
vn 0.6541464 -0.7168621 0.241249
vn 0.8971698 -0.3719256 0.2382387
vn 0.7168621 -0.6776648 0.1639486
vn 0.9128488 -0.395444 0.1016423
vn 0.6933438 -0.7168621 -0.07336985
vn 0.5992701 0.6785629 -0.4247679
vn 0.9050093 0.208195 -0.3709622
vn 0.8579725 -0.4895176 -0.1557425
vn 0.7952568 -0.5679122 -0.2122319
vn 0.6071096 -0.7795779 -0.153871
vn 0.7560595 -0.6071096 -0.244524
vn 0.630628 -0.7560595 -0.1751639
vn 0.8814909 -0.05834693 -0.4685823
vn 0.6071096 0.5139341 -0.6060442
vn 0.4424808 0.7177602 -0.5376161
vn 0.3092099 0.8667101 -0.3914115
vn 0.003470659 0.9294258 -0.3689927
vn 0.003470659 0.8745496 -0.4849236
vn 0.003470659 0.9843022 -0.1764574
vn 0.003470659 0.999981 0.0050861
vn -0.3806632 -0.74822 -0.5433806
vn -0.4904157 0.1533186 -0.8578962
vn -0.208195 -0.08186531 -0.9746553
vn -0.1533186 -0.3562467 -0.9217276
vn -0.02004778 -0.2700126 -0.962648
vn -0.2473923 -0.6698253 -0.7000936
vn 0.003470659 -0.3170493 -0.9484027
vn 0.003470659 -0.7168621 -0.6972063
vn -0.3336264 -0.9206883 -0.2025501
vn 0.003470659 -0.9912435 -0.1320013
vn -0.3885026 -0.9206883 -0.03740056
vn -0.4512184 -0.8893304 -0.07411789
vn -0.3726074 -0.9279891 0
vn -0.3101079 -0.0191496 0.9505085
vn -0.2787502 -0.5600728 0.780139
vn -0.4747368 -0.5208755 0.709446
vn -0.5139341 0.07492399 0.8545514
vn -0.2709106 0.1846765 0.9447232
vn -0.3728237 0.3257869 0.8688298
vn -0.1298002 0.208195 0.9694363
vn -0.1846765 0.4433789 0.877103
vn 0.003470659 0.2160344 0.9763796
vn 0.003470659 0.4747368 0.8801209
vn -0.3101079 -0.8579725 0.4095317
vn -0.1689976 -0.8736514 0.4562597
vn -0.07492399 -0.5600728 0.8250484
vn -0.09844244 -0.04266798 0.9942276
vn 0.003470659 -0.05834693 0.9982903
vn 0.003470659 -0.5914307 0.8063484
vn -0.03572667 -0.8736514 0.4852389
vn 0.003470659 -0.8736514 0.4865399
vn -0.647205 -0.4738387 0.5971621
vn -0.6785629 0.1533186 0.7183633
vn -0.8118339 -0.395444 0.4295927
vn -0.8275127 0.208195 0.5214188
vn -0.6158472 0.5923288 0.5194986
vn -0.9215864 0.2395527 0.305439
vn -0.6707234 0.6785629 0.2994703
vn -0.3179475 0.8039944 0.5024961
vn -0.3336264 0.9059074 0.2608165
vn 0.003470659 0.9764626 0.2156588
vn 0.003470659 0.8745496 0.4849236
vn -0.9607837 0.2395527 0.1396751
vn -0.6785629 0.7255998 0.114269
vn -0.3257869 0.9451048 0.02529184
vn -0.6550446 0.7412786 -0.1463647
vn -0.9686232 0.2160344 -0.1228752
vn -0.3101079 0.9294258 -0.2000017
vn -0.4982551 0.4668974 0.730581
vn -0.2552317 0.6393656 0.7253057
vn 0.003470659 0.6864024 0.7272136
vn -0.6001682 0.6785629 -0.423498
vn -0.9059074 0.208195 -0.3687637
vn -0.3101079 0.8667101 -0.3907003
vn -0.8588706 -0.4895176 -0.150711
vn -0.7961549 -0.5679122 -0.2088377
vn -0.6001682 -0.7795779 -0.1790432
vn -0.7569575 -0.6071096 -0.2417297
vn -0.6315261 -0.7560595 -0.1718977
vn -0.8823891 -0.05834693 -0.4668888
vn -0.6080077 0.5139341 -0.6051433
vn -0.4433789 0.7177602 -0.5368756
vn 0.003470659 0.9294258 -0.3689927
vn 0.003470659 0.8745496 -0.4849236
vn -0.913747 -0.395444 0.09322304
vn -0.898068 -0.3719256 0.2348303
vn -0.7177602 -0.6776648 0.1599712
vn -0.647205 -0.7168621 0.259296
vn -0.6942419 -0.7168621 -0.06431843
vn -0.4747368 -0.8030963 0.3600851
vn 0.003470659 0.9843022 -0.1764574
vn 0.003470659 0.999981 0.0050861
vn 0.3797651 -0.74822 -0.5440086
vn 0.2072968 -0.08186531 -0.9748467
vn 0.4895176 0.1533186 -0.8584089
vn 0.1524205 -0.3562467 -0.9218765
vn 0.0191496 -0.2700126 -0.9626663
vn 0.2464941 -0.6698253 -0.7004104
vn 0.003470659 -0.3170493 -0.9484027
vn 0.003470659 -0.7168621 -0.6972063
vn 0.3405677 -0.9206883 -0.1906482
vn 0.003470659 -0.9912435 -0.1320013
vn 0.3876045 -0.9206883 -0.04578011
vn 0.4503202 -0.8893304 -0.07939226
vn 0.3718341 -0.9282992 0
vn 0.9442067 -0.277852 0.176839
vn 0.9912435 -0.05050749 0.1220056
vn 0.865812 0.4982551 -0.0459497
vn 0.9912435 -0.08186531 0.1036072
vn 0.865812 0.4982551 -0.0459497
vn 0.9952677 -0.09717175 0
vn 0.8804345 0.4741678 0
vn 0.8893304 0.4512184 -0.074118
vn 0.9442067 0.03572667 -0.3274101
vn 0.8344541 0.5217736 -0.1773095
vn 0.8736514 0.4512184 -0.1820306
vn 0.8579725 0.4277 -0.2845274
vn 0.8109357 0.4982551 -0.306798
vn 0.8736514 0.2630712 -0.4093002
vn 0.8893304 0.09844244 -0.4465429
vn 0.7874173 0.4982551 -0.3629268
vn 0.7168621 0.5766499 -0.3918974
vn 0.8579725 0.4041816 -0.3170495
vn 0.8344541 0.1062819 -0.5407314
vn 0.630628 -0.5757517 -0.5204021
vn 0.7301601 -0.6832761 0
vn 0.7717384 -0.3170493 -0.5512708
vn 0.8501331 -0.2386547 -0.4693801
vn 0.5522333 -0.4032835 -0.7296579
vn 0.7325411 -0.6698253 0.1213161
vn 0.7560595 -0.6149491 0.2240795
vn 0.7874173 -0.5600728 0.2574733
vn 0.003470659 -0.08970481 0.9959624
vn -0.08276343 -0.2229757 0.9713043
vn -0.1533186 -0.175939 0.9723882
vn -0.2160344 -0.08970481 0.9722562
vn -0.2317133 -0.03482854 0.9721605
vn -0.1768371 -0.4346414 0.8830717
vn -0.3257869 -0.3405677 0.8819731
vn -0.4433789 -0.1680995 0.8804304
vn -0.4825763 -0.07402587 0.8727201
vn -0.2473923 -0.6384674 0.7288048
vn -0.4668974 -0.4581597 0.7563706
vn -0.2944291 -0.7717384 0.5636767
vn -0.6001682 -0.5600728 0.5710662
vn -0.6393656 -0.2229757 0.7358624
vn -0.7883154 -0.2543336 0.5602439
vn -0.3493053 -0.8814909 0.3177413
vn -0.7099208 -0.6463069 0.2798211
vn -0.898068 -0.3013704 0.3203901
vn -0.7491181 -0.6619859 0.02442932
vn -0.9372653 -0.3327283 0.1040467
vn -0.6393656 -0.7638989 0.08757913
vn -0.7177602 -0.6933438 -0.06399023
vn -0.9372653 -0.08186531 0.3388685
vn -0.9764626 -0.07402587 0.2025856
vn -0.9215864 -0.3876045 0.02100567
vn -0.7412786 -0.6698253 -0.04289551
vn -0.6294627 -0.7770308 0
vn -0.8970301 -0.4419695 0
vn -0.8810098 -0.473098 0
vn -0.5609709 -0.8266147 0.04494243
vn -0.9921416 -0.05834693 -0.1106828
vn -0.9451048 -0.1210627 -0.3035139
vn -0.8510312 -0.5051966 -0.1432563
vn -0.7726365 -0.6071096 -0.185609
vn -0.5374525 -0.8344541 0.1217834
vn -0.9987268 -0.05044414 0
vn -0.9921416 -0.06618643 0.106181
vn -0.8275127 -0.08970481 0.5542344
vn -0.6864024 -0.09754425 0.7206503
vn 0.1288403 0.9916653 0
vn 0.1994573 0.9764626 -0.08208246
vn 0.175939 0.9843022 -0.01395451
vn 0.1288403 0.9916653 0
vn 0.3013704 0.9529443 -0.03275763
vn 0.2935309 0.9529443 -0.07574145
vn 0.3086373 0.9511797 0
vn 0.3086373 0.9511797 0
vn 0.16026 0.9764626 -0.1443519
vn 0.1524205 0.9764626 -0.1526064
vn -0.04356611 0.9529443 -0.2999987
vn -0.05140555 0.9529443 -0.2987552
vn -0.1376398 0.898068 -0.417767
vn -0.1376398 0.898068 -0.417767
vn -0.2317133 0.3101079 -0.9220315
vn -0.2317133 0.3101079 -0.9220315
vn -0.2317133 0.3101079 -0.9220315
vn -0.2317133 0.3101079 -0.9220315
vn -0.9451048 -0.277852 0.1719741
vn -0.8667101 0.4982551 -0.02356937
vn -0.9921416 -0.05050749 0.1144729
vn -0.9921416 -0.08186531 0.09462088
vn -0.8667101 0.4982551 -0.02356937
vn -0.9921416 -0.09754425 -0.07835917
vn -0.8806359 0.4737936 0
vn -0.8902285 0.4512184 -0.06241136
vn -0.9451048 0.03572667 -0.3248083
vn -0.8353523 0.5217736 -0.1730285
vn -0.8745496 0.4512184 -0.1776653
vn -0.8588706 0.4277 -0.2818048
vn -0.8118339 0.4982551 -0.3044136
vn -0.8745496 0.2630712 -0.4073776
vn -0.8902285 0.09844244 -0.4447497
vn -0.7883154 0.4982551 -0.3609718
vn -0.7177602 0.5766499 -0.3902502
vn -0.8588706 0.4041816 -0.3146085
vn -0.8353523 0.1062819 -0.5393429
vn -0.6315261 -0.5757517 -0.5193118
vn -0.7305776 -0.6828297 0
vn -0.7726365 -0.3170493 -0.5500113
vn -0.8510312 -0.2386547 -0.4677498
vn -0.5531315 -0.4032835 -0.7289773
vn -0.7334392 -0.6698253 0.1157627
vn -0.7569575 -0.6149491 0.2210269
vn -0.7883154 -0.5600728 0.2547102
vn 0.003470659 -0.08970481 0.9959624
vn 0.1524205 -0.175939 0.9725294
vn 0.08186531 -0.2229757 0.9713804
vn 0.2151363 -0.08970481 0.9724554
vn 0.2308152 -0.03482854 0.9723741
vn 0.175939 -0.4346414 0.883251
vn 0.3248888 -0.3405677 0.8823043
vn 0.4424808 -0.1680995 0.8808821
vn 0.4816781 -0.07402587 0.8732161
vn 0.2386547 -0.6384674 0.7317125
vn 0.4659992 -0.4581597 0.7569243
vn 0.4503202 -0.6855043 0.5720975
vn 0.5992701 -0.5600728 0.5720086
vn 0.6384674 -0.2229757 0.7366418
vn 0.7874173 -0.2543336 0.5615055
vn 0.3562467 -0.8736514 0.3313933
vn 0.7090226 -0.6463069 0.2820891
vn 0.9050093 -0.3013704 0.3002232
vn 0.74822 -0.6619859 0.04406349
vn 0.9363672 -0.3327283 0.1118407
vn 0.645902 -0.7634203 0
vn 0.7168621 -0.6933438 -0.07336964
vn 0.9363672 -0.08186531 0.3413422
vn 0.983404 -0.07402587 0.1656405
vn 0.9206883 -0.3876045 0.04577995
vn 0.7403805 -0.6698253 -0.05630949
vn 0.6289217 -0.7774686 0
vn 0.8968546 -0.4423254 0
vn 0.8808088 -0.473472 0
vn 0.5600728 -0.8266147 0.05501513
vn 0.9912435 -0.05834693 -0.1184568
vn 0.9442067 -0.1210627 -0.3062966
vn 0.8501331 -0.5051966 -0.1484931
vn 0.7717384 -0.6071096 -0.1893087
vn 0.5365544 -0.8344541 0.125681
vn 0.9987247 -0.05048937 0
vn 0.9912435 -0.06618643 0.1142617
vn 0.8266147 -0.08970481 0.5555729
vn 0.6855043 -0.09754425 0.7215047
vn -0.1297228 0.9915503 0
vn -0.1297228 0.9915503 0
vn -0.1768263 0.9842421 0
vn -0.2003554 0.9764626 -0.07986534
vn -0.3022685 0.9529443 -0.02304253
vn -0.2944291 0.9529443 -0.07217154
vn -0.3022685 0.9529443 -0.02304253
vn -0.309448 0.9509164 0
vn -0.1533186 0.9764626 -0.1517043
vn -0.1533186 0.9764626 -0.1517043
vn 0.04266798 0.9529443 -0.3001277
vn 0.05050749 0.9529443 -0.2989083
vn 0.1445811 0.898068 -0.4154157
vn 0.1445811 0.898068 -0.4154157
vn 0.2308152 0.3101079 -0.9222567
vn 0.2308152 0.3101079 -0.9222567
vn 0.2308152 0.3101079 -0.9222567
vn 0.2308152 0.3101079 -0.9222567
g G_CA_Prinzeugen_SD_Hair_001_0
f 3/3/3 2/2/2 1/1/1
f 2/2/2 3/3/3 4/4/4
f 5/5/5 2/2/2 4/4/4
f 4/4/4 6/6/6 5/5/5
f 6/6/6 7/7/7 5/5/5
f 6/6/6 8/8/8 7/7/7
f 8/8/8 9/9/9 7/7/7
f 9/9/9 8/8/8 10/10/10
f 8/8/8 11/11/11 10/10/10
f 12/12/12 10/10/10 11/11/11
f 13/13/13 12/12/12 11/11/11
f 14/14/14 12/12/12 13/13/13
f 15/15/15 14/14/14 13/13/13
f 16/16/16 14/14/14 15/15/15
f 17/17/17 3/3/3 1/1/1
f 3/3/3 17/17/17 4/4/4
f 8/8/8 6/6/6 18/18/18
f 19/19/19 8/8/8 18/18/18
f 20/20/20 13/13/13 11/11/11
f 21/21/21 20/20/20 11/11/11
f 8/8/8 19/19/19 21/21/21
f 11/11/11 8/8/8 21/21/21
f 20/20/20 22/22/22 13/13/13
f 22/22/22 15/15/15 13/13/13
f 23/23/23 16/16/16 15/15/15
f 22/22/22 23/23/23 15/15/15
f 22/22/22 24/24/24 23/23/23
f 24/24/24 25/25/25 23/23/23
f 17/17/17 26/26/26 4/4/4
f 6/6/6 4/4/4 26/26/26
f 18/18/18 6/6/6 26/26/26
f 29/29/29 28/28/28 27/27/27
f 30/30/30 29/29/29 27/27/27
f 28/28/28 29/29/29 31/31/31
f 32/32/32 28/28/28 31/31/31
f 31/31/31 33/33/33 32/32/32
f 33/33/33 34/34/34 32/32/32
f 35/35/35 30/30/30 27/27/27
f 30/30/30 36/36/36 29/29/29
f 36/36/36 37/37/37 29/29/29
f 29/29/29 37/37/37 31/31/31
f 33/33/33 31/31/31 38/38/38
f 37/37/37 38/38/38 31/31/31
f 39/39/39 33/33/33 38/38/38
f 30/30/30 40/40/40 36/36/36
f 30/30/30 35/35/35 40/40/40
f 43/43/43 42/42/42 41/41/41
f 44/44/44 43/43/43 41/41/41
f 45/45/45 42/42/42 43/43/43
f 46/46/46 45/45/45 43/43/43
f 41/41/41 47/47/47 44/44/44
f 50/50/50 49/49/49 48/48/48
f 51/51/51 50/50/50 48/48/48
f 51/51/51 52/52/52 50/50/50
f 52/52/52 53/53/53 50/50/50
f 56/56/56 55/55/55 54/54/54
f 59/59/59 58/58/58 57/57/57
f 62/62/62 61/61/61 60/60/60
f 63/63/63 62/62/62 60/60/60
f 66/66/66 65/65/65 64/64/64
f 69/69/69 68/68/68 67/67/67
f 72/72/72 71/71/71 70/70/70
f 75/75/75 74/74/74 73/73/73
f 76/76/76 75/75/75 73/73/73
f 73/73/73 74/74/74 77/77/77
f 74/74/74 78/78/78 77/77/77
f 77/77/77 78/78/78 79/79/79
f 73/73/73 77/77/77 79/79/79
f 78/78/78 80/80/80 79/79/79
f 79/79/79 80/80/80 81/81/81
f 80/80/80 82/82/82 81/81/81
f 75/75/75 76/76/76 83/83/83
f 76/76/76 84/84/84 83/83/83
f 85/85/85 76/76/76 73/73/73
f 76/76/76 85/85/85 84/84/84
f 86/86/86 85/85/85 73/73/73
f 86/86/86 73/73/73 79/79/79
f 86/86/86 79/79/79 81/81/81
f 86/86/86 87/87/87 85/85/85
f 87/87/87 86/86/86 81/81/81
f 87/87/87 88/88/88 85/85/85
f 85/85/85 88/88/88 89/89/89
f 85/85/85 89/89/89 84/84/84
f 88/88/88 90/90/90 89/89/89
f 78/78/78 91/91/91 80/80/80
f 78/78/78 74/74/74 91/91/91
f 74/74/74 92/92/92 91/91/91
f 93/93/93 91/91/91 92/92/92
f 94/94/94 93/93/93 92/92/92
f 93/93/93 94/94/94 95/95/95
f 96/96/96 93/93/93 95/95/95
f 97/97/97 93/93/93 96/96/96
f 98/98/98 97/97/97 96/96/96
f 98/98/98 99/99/99 97/97/97
f 99/99/99 100/100/100 97/97/97
f 95/95/95 101/101/101 96/96/96
f 101/101/101 102/102/102 96/96/96
f 96/96/96 102/102/102 103/103/103
f 98/98/98 96/96/96 103/103/103
f 102/102/102 101/101/101 104/104/104
f 101/101/101 105/105/105 104/104/104
f 102/102/102 104/104/104 106/106/106
f 103/103/103 102/102/102 106/106/106
f 107/107/107 94/94/94 92/92/92
f 94/94/94 107/107/107 95/95/95
f 108/108/108 107/107/107 92/92/92
f 93/93/93 97/97/97 109/109/109
f 91/91/91 93/93/93 109/109/109
f 97/97/97 100/100/100 110/110/110
f 109/109/109 97/97/97 110/110/110
f 107/107/107 108/108/108 111/111/111
f 112/112/112 107/107/107 111/111/111
f 113/113/113 107/107/107 112/112/112
f 114/114/114 113/113/113 112/112/112
f 115/115/115 113/113/113 114/114/114
f 116/116/116 115/115/115 114/114/114
f 104/104/104 105/105/105 117/117/117
f 105/105/105 118/118/118 117/117/117
f 107/107/107 113/113/113 95/95/95
f 113/113/113 115/115/115 101/101/101
f 95/95/95 113/113/113 101/101/101
f 115/115/115 119/119/119 101/101/101
f 119/119/119 120/120/120 118/118/118
f 120/120/120 119/119/119 121/121/121
f 122/122/122 120/120/120 121/121/121
f 119/119/119 123/123/123 121/121/121
f 115/115/115 116/116/116 123/123/123
f 119/119/119 115/115/115 123/123/123
f 105/105/105 119/119/119 118/118/118
f 119/119/119 105/105/105 101/101/101
f 120/120/120 122/122/122 124/124/124
f 118/118/118 120/120/120 124/124/124
f 118/118/118 124/124/124 125/125/125
f 117/117/117 118/118/118 125/125/125
f 117/117/117 125/125/125 126/126/126
f 127/127/127 117/117/117 126/126/126
f 104/104/104 117/117/117 127/127/127
f 106/106/106 104/104/104 127/127/127
f 127/127/127 128/128/128 106/106/106
f 129/129/129 128/128/128 127/127/127
f 126/126/126 129/129/129 127/127/127
f 128/128/128 130/130/130 106/106/106
f 106/106/106 130/130/130 103/103/103
f 130/130/130 131/131/131 103/103/103
f 103/103/103 131/131/131 98/98/98
f 131/131/131 99/99/99 98/98/98
f 134/134/134 133/133/133 132/132/132
f 134/134/134 132/132/132 135/135/135
f 135/135/135 132/132/132 136/136/136
f 132/132/132 137/137/137 136/136/136
f 138/138/138 136/136/136 137/137/137
f 139/139/139 138/138/138 137/137/137
f 132/132/132 133/133/133 140/140/140
f 137/137/137 132/132/132 141/141/141
f 139/139/139 137/137/137 141/141/141
f 141/141/141 132/132/132 142/142/142
f 142/142/142 132/132/132 140/140/140
f 143/143/143 142/142/142 140/140/140
f 144/144/144 142/142/142 143/143/143
f 108/108/108 92/92/92 74/74/74
f 75/75/75 108/108/108 74/74/74
f 108/108/108 75/75/75 111/111/111
f 75/75/75 83/83/83 111/111/111
f 91/91/91 109/109/109 80/80/80
f 80/80/80 109/109/109 82/82/82
f 109/109/109 110/110/110 82/82/82
f 147/147/147 146/146/146 145/145/145
f 148/148/148 147/147/147 145/145/145
f 148/148/148 145/145/145 149/149/149
f 150/150/150 148/148/148 149/149/149
f 150/150/150 149/149/149 151/151/151
f 149/149/149 145/145/145 151/151/151
f 152/152/152 150/150/150 151/151/151
f 152/152/152 151/151/151 153/153/153
f 154/154/154 152/152/152 153/153/153
f 146/146/146 147/147/147 155/155/155
f 156/156/156 146/146/146 155/155/155
f 146/146/146 157/157/157 145/145/145
f 157/157/157 146/146/146 156/156/156
f 157/157/157 158/158/158 145/145/145
f 145/145/145 158/158/158 151/151/151
f 151/151/151 158/158/158 153/153/153
f 159/159/159 158/158/158 157/157/157
f 158/158/158 159/159/159 153/153/153
f 160/160/160 159/159/159 157/157/157
f 160/160/160 157/157/157 161/161/161
f 161/161/161 157/157/157 156/156/156
f 162/162/162 160/160/160 161/161/161
f 163/163/163 147/147/147 148/148/148
f 164/164/164 163/163/163 148/148/148
f 165/165/165 163/163/163 164/164/164
f 166/166/166 165/165/165 164/164/164
f 167/167/167 166/166/166 164/164/164
f 166/166/166 167/167/167 168/168/168
f 165/165/165 166/166/166 168/168/168
f 167/167/167 169/169/169 168/168/168
f 167/167/167 170/170/170 169/169/169
f 170/170/170 171/171/171 169/169/169
f 172/172/172 171/171/171 170/170/170
f 173/173/173 172/172/172 170/170/170
f 174/174/174 168/168/168 169/169/169
f 175/175/175 174/174/174 169/169/169
f 169/169/169 171/171/171 176/176/176
f 175/175/175 169/169/169 176/176/176
f 174/174/174 175/175/175 177/177/177
f 178/178/178 174/174/174 177/177/177
f 175/175/175 176/176/176 179/179/179
f 177/177/177 175/175/175 179/179/179
f 180/180/180 167/167/167 164/164/164
f 167/167/167 180/180/180 181/181/181
f 170/170/170 167/167/167 181/181/181
f 170/170/170 181/181/181 182/182/182
f 173/173/173 170/170/170 182/182/182
f 178/178/178 177/177/177 183/183/183
f 184/184/184 178/178/178 183/183/183
f 177/177/177 179/179/179 185/185/185
f 183/183/183 177/177/177 185/185/185
f 186/186/186 178/178/178 184/184/184
f 178/178/178 186/186/186 174/174/174
f 187/187/187 186/186/186 184/184/184
f 186/186/186 187/187/187 188/188/188
f 187/187/187 189/189/189 188/188/188
f 190/190/190 186/186/186 188/188/188
f 189/189/189 187/187/187 191/191/191
f 187/187/187 184/184/184 191/191/191
f 191/191/191 184/184/184 192/192/192
f 184/184/184 183/183/183 192/192/192
f 192/192/192 183/183/183 193/193/193
f 183/183/183 185/185/185 193/193/193
f 194/194/194 185/185/185 179/179/179
f 194/194/194 195/195/195 185/185/185
f 195/195/195 193/193/193 185/185/185
f 196/196/196 186/186/186 190/190/190
f 186/186/186 196/196/196 174/174/174
f 196/196/196 197/197/197 174/174/174
f 197/197/197 196/196/196 198/198/198
f 197/197/197 198/198/198 199/199/199
f 165/165/165 197/197/197 199/199/199
f 196/196/196 200/200/200 198/198/198
f 200/200/200 196/196/196 190/190/190
f 165/165/165 199/199/199 201/201/201
f 163/163/163 165/165/165 201/201/201
f 197/197/197 165/165/165 168/168/168
f 197/197/197 168/168/168 174/174/174
f 147/147/147 163/163/163 201/201/201
f 155/155/155 147/147/147 201/201/201
f 202/202/202 194/194/194 179/179/179
f 202/202/202 179/179/179 176/176/176
f 203/203/203 202/202/202 176/176/176
f 203/203/203 176/176/176 171/171/171
f 172/172/172 203/203/203 171/171/171
f 206/206/206 205/205/205 204/204/204
f 204/204/204 205/205/205 207/207/207
f 204/204/204 207/207/207 208/208/208
f 209/209/209 204/204/204 208/208/208
f 208/208/208 210/210/210 209/209/209
f 210/210/210 211/211/211 209/209/209
f 206/206/206 204/204/204 212/212/212
f 204/204/204 209/209/209 213/213/213
f 209/209/209 211/211/211 213/213/213
f 204/204/204 213/213/213 214/214/214
f 204/204/204 214/214/214 212/212/212
f 214/214/214 215/215/215 212/212/212
f 214/214/214 216/216/216 215/215/215
f 148/148/148 150/150/150 180/180/180
f 164/164/164 148/148/148 180/180/180
f 180/180/180 150/150/150 152/152/152
f 181/181/181 180/180/180 152/152/152
f 181/181/181 152/152/152 154/154/154
f 182/182/182 181/181/181 154/154/154
f 219/219/219 218/218/218 217/217/217
f 220/220/220 218/218/218 219/219/219
f 221/221/221 220/220/220 219/219/219
f 220/220/220 221/221/221 222/222/222
f 221/221/221 223/223/223 222/222/222
f 223/223/223 224/224/224 222/222/222
f 224/224/224 225/225/225 222/222/222
f 226/226/226 225/225/225 224/224/224
f 227/227/227 226/226/226 224/224/224
f 226/226/226 227/227/227 228/228/228
f 229/229/229 226/226/226 228/228/228
f 229/229/229 230/230/230 226/226/226
f 230/230/230 231/231/231 226/226/226
f 229/229/229 232/232/232 230/230/230
f 232/232/232 233/233/233 230/230/230
f 234/234/234 232/232/232 229/229/229
f 228/228/228 234/234/234 229/229/229
f 231/231/231 235/235/235 226/226/226
f 225/225/225 226/226/226 235/235/235
f 225/225/225 236/236/236 222/222/222
f 225/225/225 235/235/235 236/236/236
f 236/236/236 237/237/237 222/222/222
f 238/238/238 231/231/231 230/230/230
f 239/239/239 238/238/238 230/230/230
f 240/240/240 235/235/235 231/231/231
f 238/238/238 240/240/240 231/231/231
f 235/235/235 240/240/240 236/236/236
f 220/220/220 222/222/222 237/237/237
f 241/241/241 220/220/220 237/237/237
f 218/218/218 220/220/220 241/241/241
f 242/242/242 218/218/218 241/241/241
f 217/217/217 218/218/218 242/242/242
f 243/243/243 217/217/217 242/242/242
f 246/246/246 245/245/245 244/244/244
f 247/247/247 246/246/246 244/244/244
f 248/248/248 247/247/247 244/244/244
f 245/245/245 246/246/246 249/249/249
f 246/246/246 250/250/250 249/249/249
f 251/251/251 250/250/250 246/246/246
f 247/247/247 251/251/251 246/246/246
f 251/251/251 247/247/247 248/248/248
f 252/252/252 251/251/251 248/248/248
f 253/253/253 249/249/249 250/250/250
f 254/254/254 253/253/253 250/250/250
f 253/253/253 254/254/254 255/255/255
f 254/254/254 256/256/256 255/255/255
f 256/256/256 254/254/254 257/257/257
f 250/250/250 251/251/251 257/257/257
f 254/254/254 250/250/250 257/257/257
f 251/251/251 252/252/252 257/257/257
f 258/258/258 256/256/256 257/257/257
f 259/259/259 255/255/255 256/256/256
f 260/260/260 259/259/259 256/256/256
f 260/260/260 256/256/256 258/258/258
f 261/261/261 260/260/260 258/258/258
f 260/260/260 261/261/261 262/262/262
f 261/261/261 263/263/263 262/262/262
f 264/264/264 259/259/259 260/260/260
f 262/262/262 264/264/264 260/260/260
f 264/264/264 262/262/262 265/265/265
f 263/263/263 261/261/261 266/266/266
f 267/267/267 263/263/263 266/266/266
f 263/263/263 268/268/268 262/262/262
f 263/263/263 267/267/267 268/268/268
f 268/268/268 269/269/269 262/262/262
f 269/269/269 265/265/265 262/262/262
f 269/269/269 268/268/268 270/270/270
f 268/268/268 271/271/271 270/270/270
f 271/271/271 272/272/272 270/270/270
f 272/272/272 273/273/273 270/270/270
f 272/272/272 271/271/271 274/274/274
f 272/272/272 274/274/274 275/275/275
f 276/276/276 272/272/272 275/275/275
f 272/272/272 276/276/276 273/273/273
f 276/276/276 275/275/275 277/277/277
f 276/276/276 277/277/277 278/278/278
f 276/276/276 278/278/278 273/273/273
f 271/271/271 279/279/279 274/274/274
f 271/271/271 268/268/268 279/279/279
f 267/267/267 280/280/280 268/268/268
f 268/268/268 280/280/280 279/279/279
f 281/281/281 266/266/266 261/261/261
f 258/258/258 281/281/281 261/261/261
f 282/282/282 281/281/281 258/258/258
f 257/257/257 282/282/282 258/258/258
f 252/252/252 282/282/282 257/257/257
f 285/285/285 284/284/284 283/283/283
f 286/286/286 285/285/285 283/283/283
f 284/284/284 285/285/285 287/287/287
f 285/285/285 288/288/288 287/287/287
f 287/287/287 288/288/288 289/289/289
f 288/288/288 290/290/290 289/289/289
f 289/289/289 290/290/290 291/291/291
f 290/290/290 292/292/292 291/291/291
f 293/293/293 291/291/291 292/292/292
f 294/294/294 293/293/293 292/292/292
f 293/293/293 294/294/294 295/295/295
f 294/294/294 296/296/296 295/295/295
f 299/299/299 298/298/298 297/297/297
f 300/300/300 299/299/299 297/297/297
f 303/303/303 302/302/302 301/301/301
f 303/303/303 304/304/304 302/302/302
f 304/304/304 305/305/305 302/302/302
f 305/305/305 304/304/304 306/306/306
f 307/307/307 305/305/305 306/306/306
f 308/308/308 307/307/307 306/306/306
f 309/309/309 308/308/308 306/306/306
f 309/309/309 310/310/310 308/308/308
f 310/310/310 311/311/311 308/308/308
f 312/312/312 311/311/311 310/310/310
f 313/313/313 312/312/312 310/310/310
f 314/314/314 313/313/313 310/310/310
f 315/315/315 314/314/314 310/310/310
f 316/316/316 313/313/313 314/314/314
f 317/317/317 316/316/316 314/314/314
f 318/318/318 312/312/312 313/313/313
f 316/316/316 318/318/318 313/313/313
f 319/319/319 315/315/315 310/310/310
f 310/310/310 309/309/309 319/319/319
f 320/320/320 309/309/309 306/306/306
f 309/309/309 320/320/320 319/319/319
f 321/321/321 320/320/320 306/306/306
f 315/315/315 322/322/322 314/314/314
f 322/322/322 323/323/323 314/314/314
f 315/315/315 319/319/319 324/324/324
f 322/322/322 315/315/315 324/324/324
f 320/320/320 324/324/324 319/319/319
f 304/304/304 325/325/325 321/321/321
f 304/304/304 303/303/303 325/325/325
f 303/303/303 326/326/326 325/325/325
f 303/303/303 301/301/301 326/326/326
f 301/301/301 327/327/327 326/326/326
f 306/306/306 304/304/304 321/321/321
f 330/330/330 329/329/329 328/328/328
f 329/329/329 331/331/331 328/328/328
f 331/331/331 332/332/332 328/328/328
f 329/329/329 330/330/330 333/333/333
f 334/334/334 329/329/329 333/333/333
f 335/335/335 331/331/331 329/329/329
f 334/334/334 335/335/335 329/329/329
f 331/331/331 335/335/335 332/332/332
f 335/335/335 336/336/336 332/332/332
f 333/333/333 337/337/337 334/334/334
f 337/337/337 338/338/338 334/334/334
f 338/338/338 337/337/337 339/339/339
f 340/340/340 338/338/338 339/339/339
f 338/338/338 340/340/340 341/341/341
f 334/334/334 338/338/338 341/341/341
f 335/335/335 334/334/334 341/341/341
f 336/336/336 335/335/335 341/341/341
f 340/340/340 342/342/342 341/341/341
f 339/339/339 343/343/343 340/340/340
f 343/343/343 344/344/344 340/340/340
f 340/340/340 344/344/344 342/342/342
f 344/344/344 345/345/345 342/342/342
f 345/345/345 344/344/344 346/346/346
f 347/347/347 345/345/345 346/346/346
f 348/348/348 346/346/346 344/344/344
f 343/343/343 348/348/348 344/344/344
f 346/346/346 348/348/348 349/349/349
f 345/345/345 347/347/347 350/350/350
f 347/347/347 351/351/351 350/350/350
f 352/352/352 347/347/347 346/346/346
f 351/351/351 347/347/347 352/352/352
f 353/353/353 352/352/352 346/346/346
f 349/349/349 353/353/353 346/346/346
f 352/352/352 353/353/353 354/354/354
f 355/355/355 352/352/352 354/354/354
f 356/356/356 355/355/355 354/354/354
f 357/357/357 356/356/356 354/354/354
f 355/355/355 356/356/356 358/358/358
f 358/358/358 356/356/356 359/359/359
f 356/356/356 360/360/360 359/359/359
f 360/360/360 356/356/356 357/357/357
f 359/359/359 360/360/360 361/361/361
f 361/361/361 360/360/360 362/362/362
f 362/362/362 360/360/360 357/357/357
f 363/363/363 355/355/355 358/358/358
f 352/352/352 355/355/355 363/363/363
f 364/364/364 351/351/351 352/352/352
f 364/364/364 352/352/352 363/363/363
f 350/350/350 365/365/365 345/345/345
f 365/365/365 342/342/342 345/345/345
f 365/365/365 366/366/366 342/342/342
f 366/366/366 341/341/341 342/342/342
f 366/366/366 336/336/336 341/341/341
f 369/369/369 368/368/368 367/367/367
f 370/370/370 369/369/369 367/367/367
f 369/369/369 370/370/370 371/371/371
f 372/372/372 369/369/369 371/371/371
f 372/372/372 371/371/371 373/373/373
f 374/374/374 372/372/372 373/373/373
f 374/374/374 373/373/373 375/375/375
f 376/376/376 374/374/374 375/375/375
f 375/375/375 377/377/377 376/376/376
f 377/377/377 378/378/378 376/376/376
f 378/378/378 377/377/377 379/379/379
f 380/380/380 378/378/378 379/379/379
f 383/383/383 382/382/382 381/381/381
f 384/384/384 383/383/383 381/381/381
