g G_CA_Prinzeugen_Hair_001_lod
v 0.08481629 0.07077992 1.492469
v 0.08825137 0.04706518 1.46939
v 0.07400216 0.03195085 1.499746
v 0.07262814 0.02917734 1.473919
v 0.07529986 0.008083425 1.426363
v 0.07206835 0.01436834 1.42308
v 0.06486741 0.001493171 1.428246
v 0.05273014 0.001340501 1.404887
v 0.07990541 0.02808321 1.424149
v 0.07206835 0.01436834 1.42308
v 0.08825137 0.04706518 1.46939
v 0.07402761 0.03431723 1.422292
v 0.06397683 0.01988991 1.410892
v 0.08608855 0.06996569 1.464098
v 0.08481629 0.07077992 1.492469
v 0.05891328 -0.0167509 1.382165
v 0.06837882 -0.01148378 1.382496
v 0.07247546 -0.01224713 1.353106
v 0.07018542 -0.01593666 1.348399
v 0.08043975 -0.006522007 1.344455
v 0.05552909 -0.01390106 1.42504
v 0.0727808 -0.004257403 1.423131
v 0.04713224 -0.04611444 1.536514
v 0.03972774 -0.04143256 1.508525
v 0.03423162 -0.04591088 1.509873
v 0.0368779 -0.05112711 1.536336
v 0.03204335 -0.03893895 1.498855
v -4.280359E-05 -0.04532564 1.487431
v -4.280359E-05 -0.05016019 1.497125
v 0.01575854 -0.04517297 1.497456
v -4.280359E-05 -0.05685223 1.512825
v 0.0297533 -0.04741213 1.513639
v 0.02642 -0.05939673 1.535903
v -4.280359E-05 -0.06341705 1.535929
v 0.0368779 -0.05112711 1.536336
v -4.280359E-05 0.1552319 1.519313
v 0.01822671 0.1518986 1.518626
v 0.02848105 0.1357156 1.55313
v -4.280359E-05 0.1409827 1.554478
v 0.01542776 0.1619239 1.479823
v -4.280359E-05 0.1675982 1.481578
v 0.008888394 0.1597611 1.435345
v -4.280359E-05 0.1646975 1.436795
v -4.280359E-05 0.1488707 1.413462
v 0.0284556 0.1504482 1.51855
v 0.04853171 0.1462498 1.503995
v 0.04079643 0.1384891 1.433258
v 0.02784492 0.1534507 1.432902
v 0.01593666 0.13111 1.399213
v 0.0234175 0.1225605 1.398857
v 0.01555499 0.1163265 1.38359
v 0.01382472 0.1180059 1.383183
v 0.008023262 0.1311609 1.401198
v 0.01000797 0.118413 1.383895
v 0.01537687 0.1512625 1.430841
v 0.03036398 0.1599901 1.479008
v 0.04278114 0.1514152 1.470204
v 0.01901551 0.1613896 1.47855
v 0.0284556 0.1504482 1.51855
v 0.04853171 0.1462498 1.503995
v 0.01822671 0.1518986 1.518626
v 0.01850661 0.1171153 1.37677
v 0.02084754 0.146606 1.433767
v 0.01171279 0.1571657 1.433894
v 0.001000442 0.1345197 1.40677
v 0.007183574 0.1291508 1.405752
v 0.02746325 0.154952 1.4785
v 0.01835394 0.1595321 1.47883
v -0.01238364 0.1102197 1.39191
v -0.007727198 0.1328912 1.409722
v -0.004622906 0.1538833 1.437991
v -0.002002068 0.1600664 1.480561
v 0.01822671 0.1518986 1.518626
v -4.280359E-05 0.1518477 1.518804
v 0.02934618 0.1477002 1.517176
v 0.06855693 -0.03217057 1.536667
v 0.08957451 0.002307408 1.536641
v 0.08952362 0.004063115 1.497863
v 0.07107599 -0.02868461 1.498397
v 0.0779207 -0.001407564 1.440663
v 0.06323893 -0.02659812 1.44252
v 0.05896417 -0.03743769 1.498906
v 0.05509653 -0.02891361 1.442826
v 0.05504563 -0.04229768 1.527099
v 0.04713224 -0.04611444 1.536514
v 0.05133066 -0.04295926 1.509771
v 0.05418051 -0.0409491 1.509492
v 0.05092354 -0.04339182 1.501171
v 0.05514742 -0.03148356 1.39448
v 0.04957496 -0.02774315 1.393233
v 0.05507108 -0.03776848 1.360104
v 0.05077088 -0.0320179 1.35873
v 0.06527453 -0.01568221 1.39074
v 0.06127966 -0.0289645 1.357178
v 0.05822626 -0.03181434 1.335041
v 0.06064354 -0.03771759 1.335142
v 0.06911673 -0.03293393 1.318934
v 0.06858238 -0.03079654 1.319799
v 0.06364605 -0.03224691 1.33588
v 0.06952384 -0.03094921 1.319952
v 0.07395127 -0.0307711 1.314583
v 0.09270424 0.01958457 1.507507
v 0.08316237 0.01673473 1.478678
v 0.07494363 0.003732331 1.479365
v 0.08433284 0.003299765 1.506794
v 0.08603765 0.001493171 1.536769
v 0.09367116 0.01770164 1.538422
v 0.0924498 0.03434268 1.508092
v 0.08339137 0.02329955 1.478907
v 0.09402739 0.03312132 1.540254
v 0.05985474 -0.001789235 1.452138
v 0.06664856 0.01037348 1.452291
v 0.08092321 0.02882111 1.469288
v 0.09990519 0.07055092 1.492621
v 0.1068262 0.06859165 1.459441
v 0.1021952 0.05322286 1.455624
v 0.09229712 0.03948256 1.492698
v 0.09283147 0.07418956 1.543232
v 0.09402739 0.03312132 1.540254
v 0.1130603 0.07551269 1.432164
v 0.09832759 0.09640305 1.494148
v 0.09644466 0.06258664 1.46135
v 0.106241 0.08317164 1.458703
v 0.1002105 0.09808242 1.457736
v 0.09211901 0.07253563 1.436286
v 0.1026024 0.06614894 1.437991
v 0.09280603 0.04910077 1.44191
v 0.08448551 0.03953345 1.420408
v 0.0906432 0.05039847 1.420434
v 0.0830097 0.05406256 1.419925
v 0.09364571 0.06212862 1.432317
v 0.0794474 0.04220518 1.40532
v 0.08191556 0.04800664 1.40621
v 0.07825148 0.04920256 1.406083
v 0.1011265 0.1031205 1.457584
v 0.08733535 0.1170644 1.45822
v 0.07440928 0.1261737 1.498932
v 0.09575765 0.08322254 1.434251
v 0.09211901 0.07253563 1.436286
v 0.0819919 0.07067814 1.414862
v 0.07814971 0.06469856 1.414225
v 0.08341682 0.09195016 1.432444
v 0.07652122 0.07520735 1.414429
v 0.08028708 0.07594526 1.401681
v 0.08415473 0.1266317 1.458703
v 0.07608865 0.09759896 1.429823
v 0.07896394 0.10938 1.428347
v 0.07061798 0.1318734 1.45911
v 0.06066898 0.146377 1.45967
v 0.04853171 0.1462498 1.503995
v 0.02848105 0.1357156 1.55313
v 0.06420584 0.1165809 1.548422
v 0.06117788 0.1342398 1.431808
v 0.06863327 0.1203213 1.432673
v 0.05059276 0.1115683 1.40822
v 0.05412962 0.1031714 1.408628
v 0.03573287 0.1005251 1.388908
v 0.03649622 0.09833686 1.388908
v 0.04278114 0.1514152 1.470204
v 0.03893895 0.1343924 1.432164
v 0.03527486 0.1127642 1.409315
v 0.0353512 0.1010595 1.381401
v 0.03112733 0.1009577 1.389213
v 0.06700478 0.1095072 1.427024
v 0.06420584 0.09299341 1.410307
v 0.06010919 0.09454556 1.409645
v 0.0575138 0.09345143 1.397355
v 0.061585 0.08729373 1.411248
v 0.0779207 0.04782853 1.394887
v 0.09769147 0.06416422 1.426439
v 0.1055794 0.05856632 1.428627
v 0.1026024 0.06614894 1.437991
v 0.09211901 0.07253563 1.436286
v 0.0906432 0.05039847 1.420434
v 0.1032385 0.05360454 1.414378
v 0.09855659 0.05144171 1.413971
v 0.09985429 0.05818464 1.407304
v 0.1003123 0.05691239 1.414556
v -0.08487646 0.07077992 1.492469
v -0.07406233 0.03195085 1.499746
v -0.08831154 0.04706518 1.46939
v -0.07271375 0.02917734 1.473919
v -0.07536003 0.008083425 1.426363
v -0.0721285 0.01436834 1.42308
v -0.06492758 0.001493171 1.428246
v -0.05281575 0.001340501 1.404887
v -0.07999101 0.02808321 1.424149
v -0.08831154 0.04706518 1.46939
v -0.0721285 0.01436834 1.42308
v -0.07411322 0.03431723 1.422292
v -0.064037 0.01988991 1.410892
v -0.08617415 0.06996569 1.464098
v -0.08487646 0.07077992 1.492469
v -0.07253563 -0.01224713 1.353106
v -0.06843898 -0.01148378 1.382496
v -0.05899888 -0.0167509 1.382165
v -0.07024558 -0.01593666 1.348399
v -0.08052537 -0.006522007 1.344455
v -0.05558926 -0.01390106 1.42504
v -0.07284097 -0.004257403 1.423131
v -0.03696351 -0.05112711 1.536336
v -0.03431723 -0.04591088 1.509873
v -0.0397879 -0.04143256 1.508525
v -0.04719239 -0.04611444 1.536514
v -0.03212896 -0.03893895 1.498855
v -4.280359E-05 -0.04532564 1.487431
v -0.01584415 -0.04517297 1.497456
v -4.280359E-05 -0.05016019 1.497125
v -4.280359E-05 -0.05685223 1.512825
v -0.02981347 -0.04741213 1.513639
v -0.02648017 -0.05939673 1.535903
v -4.280359E-05 -0.06341705 1.535929
v -0.03696351 -0.05112711 1.536336
v -0.02854121 0.1357156 1.55313
v -0.01828687 0.1518986 1.518626
v -4.280359E-05 0.1552319 1.519313
v -4.280359E-05 0.1409827 1.554478
v -0.01548792 0.1619239 1.479823
v -4.280359E-05 0.1675982 1.481578
v -4.280359E-05 0.1646975 1.436795
v -0.008948557 0.1597611 1.435345
v -4.280359E-05 0.1488707 1.413462
v -0.02851577 0.1504482 1.51855
v -0.04861732 0.1462498 1.503995
v -0.0408566 0.1384891 1.433258
v -0.02347766 0.1225605 1.398857
v -0.01602226 0.13111 1.399213
v -0.02790509 0.1534507 1.432902
v -0.01561515 0.1163265 1.38359
v -0.01388489 0.1180059 1.383183
v -0.01006813 0.118413 1.383895
v -0.008083425 0.1311609 1.401198
v -0.01543704 0.1512625 1.430841
v -0.03042415 0.1599901 1.479008
v -0.0428413 0.1514152 1.470204
v -0.01907568 0.1613896 1.47855
v -0.04861732 0.1462498 1.503995
v -0.02851577 0.1504482 1.51855
v -0.01828687 0.1518986 1.518626
v -0.01856677 0.1171153 1.37677
v -0.007243745 0.1291508 1.405752
v -0.001060605 0.1345197 1.40677
v -0.0117984 0.1571657 1.433894
v -0.02093315 0.146606 1.433767
v -0.01843955 0.1595321 1.47883
v -0.02752341 0.154952 1.4785
v 0.01232347 0.1102197 1.39191
v 0.007667035 0.1328912 1.409722
v 0.004537299 0.1538833 1.437991
v 0.001941904 0.1600664 1.480561
v -0.01828687 0.1518986 1.518626
v -4.280359E-05 0.1518477 1.518804
v -0.02940634 0.1477002 1.517176
v -0.08958378 0.004063115 1.497863
v -0.08963467 0.002307408 1.536641
v -0.06861709 -0.03217057 1.536667
v -0.07113615 -0.02868461 1.498397
v -0.06329909 -0.02659812 1.44252
v -0.05902433 -0.03743769 1.498906
v -0.05515669 -0.02891361 1.442826
v -0.07798086 -0.001407564 1.440663
v -0.05510581 -0.04229768 1.527099
v -0.04719239 -0.04611444 1.536514
v -0.05424067 -0.0409491 1.509492
v -0.05139083 -0.04295926 1.509771
v -0.05100915 -0.04339182 1.501171
v -0.04963513 -0.02774315 1.393233
v -0.05520758 -0.03148356 1.39448
v -0.05083103 -0.0320179 1.35873
v -0.05513124 -0.03776848 1.360104
v -0.06533469 -0.01568221 1.39074
v -0.06133983 -0.0289645 1.357178
v -0.05828643 -0.03181434 1.335041
v -0.06070369 -0.03771759 1.335142
v -0.06917688 -0.03293393 1.318934
v -0.06864254 -0.03079654 1.319799
v -0.0637062 -0.03224691 1.33588
v -0.06960945 -0.03094921 1.319952
v -0.07401145 -0.0307711 1.314583
v -0.08324797 0.01673473 1.478678
v -0.09276441 0.01958457 1.507507
v -0.08439301 0.003299765 1.506794
v -0.07502924 0.003732331 1.479365
v -0.08609782 0.001493171 1.536769
v -0.09373131 0.01770164 1.538422
v -0.09408756 0.03312132 1.540254
v -0.09250996 0.03434268 1.508092
v -0.08347698 0.02329955 1.478907
v -0.0599149 -0.001789235 1.452138
v -0.06670873 0.01037348 1.452291
v -0.08098337 0.02882111 1.469288
v -0.09996535 0.07055092 1.492621
v -0.09238273 0.03948256 1.492698
v -0.1022554 0.05322286 1.455624
v -0.1068864 0.06859165 1.459441
v -0.09289163 0.07418956 1.543232
v -0.09408756 0.03312132 1.540254
v -0.1131204 0.07551269 1.432164
v -0.09838776 0.09640305 1.494148
v -0.1063012 0.08317164 1.458703
v -0.09650482 0.06258664 1.46135
v -0.1002707 0.09808242 1.457736
v -0.09217918 0.07253563 1.436286
v -0.102688 0.06614894 1.437991
v -0.09286618 0.04910077 1.44191
v -0.09070337 0.05039847 1.420434
v -0.08454567 0.03953345 1.420408
v -0.08197573 0.04800664 1.40621
v -0.07953301 0.04220518 1.40532
v -0.07833709 0.04920256 1.406083
v -0.08306986 0.05406256 1.419925
v -0.09373131 0.06212862 1.432317
v -0.1011867 0.1031205 1.457584
v -0.0744949 0.1261737 1.498932
v -0.08739552 0.1170644 1.45822
v -0.09217918 0.07253563 1.436286
v -0.09584326 0.08322254 1.434251
v -0.0820775 0.07067814 1.414862
v -0.07820986 0.06469856 1.414225
v -0.08347698 0.09195016 1.432444
v -0.07660682 0.07520735 1.414429
v -0.08034724 0.07594526 1.401681
v -0.08421488 0.1266317 1.458703
v -0.07902411 0.10938 1.428347
v -0.07614882 0.09759896 1.429823
v -0.07067814 0.1318734 1.45911
v -0.0607546 0.146377 1.45967
v -0.04861732 0.1462498 1.503995
v -0.02854121 0.1357156 1.55313
v -0.064266 0.1165809 1.548422
v -0.06869343 0.1203213 1.432673
v -0.06123805 0.1342398 1.431808
v -0.05065292 0.1115683 1.40822
v -0.05418979 0.1031714 1.408628
v -0.03579304 0.1005251 1.388908
v -0.03655639 0.09833686 1.388908
v -0.0428413 0.1514152 1.470204
v -0.03899911 0.1343924 1.432164
v -0.03533503 0.1127642 1.409315
v -0.03541136 0.1010595 1.381401
v -0.03118749 0.1009577 1.389213
v -0.06706496 0.1095072 1.427024
v -0.06429145 0.09299341 1.410307
v -0.06016935 0.09454556 1.409645
v -0.05757396 0.09345143 1.397355
v -0.06164517 0.08729373 1.411248
v -0.07798086 0.04782853 1.394887
v -0.102688 0.06614894 1.437991
v -0.1056396 0.05856632 1.428627
v -0.09775163 0.06416422 1.426439
v -0.09217918 0.07253563 1.436286
v -0.09070337 0.05039847 1.420434
v -0.1032986 0.05360454 1.414378
v -0.0986422 0.05144171 1.413971
v -0.09991446 0.05818464 1.407304
v -0.1003725 0.05691239 1.414556
v -0.1003725 0.05691239 1.414556
vt 0.3177335 0.0056
vt 0.3071689 0.04785807
vt 0.2514651 0.0056
vt 0.2677921 0.059383
vt 0.3167731 0.1390971
vt 0.3292584 0.1352554
vt 0.3014065 0.150622
vt 0.3225355 0.1871176
vt 0.3782393 0.1698302
vt 0.3667144 0.1842364
vt 0.3455854 0.06418505
vt 0.3926455 0.1688698
vt 0.3907247 0.2120883
vt 0.365754 0.04497684
vt 0.3234959 0.008481232
vt 0.5040531 0.5645589
vt 0.5213405 0.5635985
vt 0.5194197 0.5309446
vt 0.5136572 0.5299842
vt 0.5232613 0.5174989
vt 0.4925282 0.6058566
vt 0.5232613 0.6039358
vt 0.9381587 0.6433126
vt 0.9564065 0.5539944
vt 0.9861792 0.5539944
vt 0.9813772 0.6654021
vt 0.971773 0.5088552
vt 0.8133053 0.05746217
vt 0.8421176 0.1122056
vt 0.8872569 0.09972024
vt 0.8661279 0.1842364
vt 0.950644 0.171751
vt 0.9227921 0.2812378
vt 0.8517217 0.2821983
vt 0.9871396 0.2764358
vt 0.4925282 0.09395777
vt 0.5213405 0.09299736
vt 0.548232 0.02480821
vt 0.4915678 0.02672903
vt 0.5136572 0.1544636
vt 0.4886865 0.1535032
vt 0.4963698 0.2245736
vt 0.4819637 0.220732
vt 0.4694783 0.2629901
vt 0.5453507 0.09491818
vt 0.5866484 0.09491818
vt 0.5520736 0.365754
vt 0.5203801 0.3686352
vt 0.5299842 0.3014065
vt 0.548232 0.3004461
vt 0.5472715 0.2706733
vt 0.5434299 0.2697129
vt 0.5174989 0.2975648
vt 0.5376675 0.2687525
vt 0.5021323 0.3580707
vt 0.5184593 0.4425868
vt 0.548232 0.4445077
vt 0.5002115 0.440666
vt 0.5184593 0.5078948
vt 0.548232 0.5059739
vt 0.4982907 0.5088552
vt 0.5511132 0.258188
vt 0.494449 0.3628727
vt 0.4723596 0.3686352
vt 0.4608346 0.3090898
vt 0.4723596 0.3023669
vt 0.494449 0.4435472
vt 0.4762012 0.4425868
vt 0.440666 0.2610692
vt 0.4445077 0.3100502
vt 0.4435472 0.370556
vt 0.4454681 0.4425868
vt 0.4704387 0.510776
vt 0.4425868 0.5088552
vt 0.4925282 0.5117364
vt 0.6010545 0.9026235
vt 0.59049 0.7940971
vt 0.4867657 0.7998595
vt 0.4963698 0.9007027
vt 0.3331 0.8257906
vt 0.3398229 0.9103068
vt 0.4992511 0.9400795
vt 0.3398229 0.9362379
vt 0.5770443 0.9564065
vt 0.6087378 0.9794564
vt 0.5261425 0.9881001
vt 0.5242217 0.9727334
vt 0.4906074 0.9881001
vt 0.2120883 0.9160692
vt 0.2120883 0.9362379
vt 0.1352554 0.91799
vt 0.1352554 0.9362379
vt 0.2082466 0.8632467
vt 0.129493 0.8891777
vt 0.09107655 0.9362379
vt 0.08915572 0.9208713
vt 0.03825396 0.9275942
vt 0.03921437 0.9362379
vt 0.0872349 0.9045443
vt 0.03537273 0.9218317
vt 0.01520411 0.9362379
vt 0.5078948 0.7460766
vt 0.4281807 0.7585619
vt 0.4320223 0.8008199
vt 0.5117364 0.7940971
vt 0.5914505 0.7931367
vt 0.5933713 0.7441558
vt 0.5040531 0.7066997
vt 0.4262598 0.7422349
vt 0.5962525 0.7028581
vt 0.3455854 0.8152261
vt 0.3513478 0.7816117
vt 0.3993683 0.7335912
vt 0.3484666 0.4108933
vt 0.3840018 0.3110106
vt 0.4329827 0.3225355
vt 0.4272203 0.4435472
vt 0.2860399 0.5290238
vt 0.382081 0.5703214
vt 0.3859226 0.2303361
vt 0.2889211 0.3926455
vt 0.3667144 0.3186939
vt 0.3311792 0.3052481
vt 0.2966044 0.290842
vt 0.3215751 0.2216924
vt 0.3436645 0.2303361
vt 0.3667144 0.2380194
vt 0.3580707 0.1803947
vt 0.3436645 0.1813551
vt 0.3302188 0.1813551
vt 0.3369417 0.2111279
vt 0.3503874 0.1573449
vt 0.3417437 0.1583053
vt 0.3340604 0.1583053
vt 0.279317 0.290842
vt 0.2389798 0.2831587
vt 0.2015238 0.3753581
vt 0.2889211 0.2053654
vt 0.3100502 0.2082466
vt 0.2821983 0.1496616
vt 0.290842 0.14582
vt 0.258188 0.2005634
vt 0.2716337 0.1496616
vt 0.279317 0.1237305
vt 0.2188112 0.2812378
vt 0.2303361 0.1871176
vt 0.2188112 0.1938405
vt 0.1899989 0.2725942
vt 0.1371763 0.2802774
vt 0.1275721 0.3715164
vt 0.07955161 0.4934886
vt 0.1727114 0.4896469
vt 0.134295 0.2159299
vt 0.1803947 0.2034446
vt 0.1246909 0.1371763
vt 0.1563845 0.1304534
vt 0.1237305 0.06514546
vt 0.1323742 0.06514546
vt 0.07667039 0.2754754
vt 0.08051202 0.2120883
vt 0.09011613 0.1314138
vt 0.1237305 0.04785807
vt 0.1141264 0.06226423
vt 0.2015238 0.1899989
vt 0.2082466 0.1467804
vt 0.1986425 0.14582
vt 0.1986425 0.117968
vt 0.2130487 0.1410179
vt 0.3388625 0.1390971
vt 0.9285546 0.7335912
vt 0.9007027 0.7297496
vt 0.8872569 0.7720076
vt 0.9256734 0.8123449
vt 0.8690091 0.7047789
vt 0.9064651 0.6740457
vt 0.8930194 0.6692437
vt 0.9122276 0.639471
vt 0.9199109 0.6711645
vt 0.3177335 0.0056
vt 0.2514651 0.0056
vt 0.3071689 0.04785807
vt 0.2677921 0.059383
vt 0.3167731 0.1390971
vt 0.3292584 0.1352554
vt 0.3014065 0.150622
vt 0.3225355 0.1871176
vt 0.3782393 0.1698302
vt 0.3455854 0.06418505
vt 0.3667144 0.1842364
vt 0.3926455 0.1688698
vt 0.3907247 0.2120883
vt 0.365754 0.04497684
vt 0.3234959 0.008481232
vt 0.5194197 0.5309446
vt 0.5213405 0.5635985
vt 0.5040531 0.5645589
vt 0.5136572 0.5299842
vt 0.5232613 0.5174989
vt 0.4925282 0.6058566
vt 0.5232613 0.6039358
vt 0.9813772 0.6654021
vt 0.9861792 0.5539944
vt 0.9564065 0.5539944
vt 0.9381587 0.6433126
vt 0.971773 0.5088552
vt 0.8133053 0.05746217
vt 0.8872569 0.09972024
vt 0.8421176 0.1122056
vt 0.8661279 0.1842364
vt 0.950644 0.171751
vt 0.9227921 0.2812378
vt 0.8517217 0.2821983
vt 0.9871396 0.2764358
vt 0.548232 0.02480821
vt 0.5213405 0.09299736
vt 0.4925282 0.09395777
vt 0.4915678 0.02672903
vt 0.5136572 0.1544636
vt 0.4886865 0.1535032
vt 0.4819637 0.220732
vt 0.4963698 0.2245736
vt 0.4694783 0.2629901
vt 0.5453507 0.09491818
vt 0.5866484 0.09491818
vt 0.5520736 0.365754
vt 0.548232 0.3004461
vt 0.5299842 0.3014065
vt 0.5203801 0.3686352
vt 0.5472715 0.2706733
vt 0.5434299 0.2697129
vt 0.5376675 0.2687525
vt 0.5174989 0.2975648
vt 0.5021323 0.3580707
vt 0.5184593 0.4425868
vt 0.548232 0.4445077
vt 0.5002115 0.440666
vt 0.548232 0.5059739
vt 0.5184593 0.5078948
vt 0.4982907 0.5088552
vt 0.5511132 0.258188
vt 0.4723596 0.3023669
vt 0.4608346 0.3090898
vt 0.4723596 0.3686352
vt 0.494449 0.3628727
vt 0.4762012 0.4425868
vt 0.494449 0.4435472
vt 0.440666 0.2610692
vt 0.4445077 0.3100502
vt 0.4435472 0.370556
vt 0.4454681 0.4425868
vt 0.4704387 0.510776
vt 0.4425868 0.5088552
vt 0.4925282 0.5117364
vt 0.4867657 0.7998595
vt 0.59049 0.7940971
vt 0.6010545 0.9026235
vt 0.4963698 0.9007027
vt 0.3398229 0.9103068
vt 0.4992511 0.9400795
vt 0.3398229 0.9362379
vt 0.3331 0.8257906
vt 0.5770443 0.9564065
vt 0.6087378 0.9794564
vt 0.5242217 0.9727334
vt 0.5261425 0.9881001
vt 0.4906074 0.9881001
vt 0.2120883 0.9362379
vt 0.2120883 0.9160692
vt 0.1352554 0.9362379
vt 0.1352554 0.91799
vt 0.2082466 0.8632467
vt 0.129493 0.8891777
vt 0.09107655 0.9362379
vt 0.08915572 0.9208713
vt 0.03825396 0.9275942
vt 0.03921437 0.9362379
vt 0.0872349 0.9045443
vt 0.03537273 0.9218317
vt 0.01520411 0.9362379
vt 0.4281807 0.7585619
vt 0.5078948 0.7460766
vt 0.5117364 0.7940971
vt 0.4320223 0.8008199
vt 0.5914505 0.7931367
vt 0.5933713 0.7441558
vt 0.5962525 0.7028581
vt 0.5040531 0.7066997
vt 0.4262598 0.7422349
vt 0.3455854 0.8152261
vt 0.3513478 0.7816117
vt 0.3993683 0.7335912
vt 0.3484666 0.4108933
vt 0.4272203 0.4435472
vt 0.4329827 0.3225355
vt 0.3840018 0.3110106
vt 0.2860399 0.5290238
vt 0.382081 0.5703214
vt 0.3859226 0.2303361
vt 0.2889211 0.3926455
vt 0.3311792 0.3052481
vt 0.3667144 0.3186939
vt 0.2966044 0.290842
vt 0.3215751 0.2216924
vt 0.3436645 0.2303361
vt 0.3667144 0.2380194
vt 0.3436645 0.1813551
vt 0.3580707 0.1803947
vt 0.3417437 0.1583053
vt 0.3503874 0.1573449
vt 0.3340604 0.1583053
vt 0.3302188 0.1813551
vt 0.3369417 0.2111279
vt 0.279317 0.290842
vt 0.2015238 0.3753581
vt 0.2389798 0.2831587
vt 0.3100502 0.2082466
vt 0.2889211 0.2053654
vt 0.2821983 0.1496616
vt 0.290842 0.14582
vt 0.258188 0.2005634
vt 0.2716337 0.1496616
vt 0.279317 0.1237305
vt 0.2188112 0.2812378
vt 0.2188112 0.1938405
vt 0.2303361 0.1871176
vt 0.1899989 0.2725942
vt 0.1371763 0.2802774
vt 0.1275721 0.3715164
vt 0.07955161 0.4934886
vt 0.1727114 0.4896469
vt 0.1803947 0.2034446
vt 0.134295 0.2159299
vt 0.1246909 0.1371763
vt 0.1563845 0.1304534
vt 0.1237305 0.06514546
vt 0.1323742 0.06514546
vt 0.07667039 0.2754754
vt 0.08051202 0.2120883
vt 0.09011613 0.1314138
vt 0.1237305 0.04785807
vt 0.1141264 0.06226423
vt 0.2015238 0.1899989
vt 0.2082466 0.1467804
vt 0.1986425 0.14582
vt 0.1986425 0.117968
vt 0.2130487 0.1410179
vt 0.3388625 0.1390971
vt 0.8872569 0.7720076
vt 0.9007027 0.7297496
vt 0.9285546 0.7335912
vt 0.9256734 0.8123449
vt 0.8690091 0.7047789
vt 0.9064651 0.6740457
vt 0.8930194 0.6692437
vt 0.9122276 0.639471
vt 0.9199109 0.6711645
vt 0.9199109 0.6711645
vn 0.9758519 -0.0666219 0.2080255
vn 0.9680137 -0.2312239 0.09739094
vn 0.8817936 -0.4193404 0.2158555
vn 0.7642208 -0.6309716 0.1335721
vn 0.8661172 -0.4663696 -0.1798342
vn 0.8269263 -0.1293274 -0.5472361
vn 0.5663624 -0.8241562 0
vn 0.6388097 -0.5917806 -0.491648
vn 0.8817936 -0.08229828 -0.4643996
vn 0.8269263 -0.1293274 -0.5472361
vn 0.9680137 -0.2312239 0.09739094
vn 0.6152952 0.3723167 -0.6948325
vn 0.6780007 -0.152842 -0.7189954
vn 0.9915283 0.1058182 -0.07532726
vn 0.9758519 -0.0666219 0.2080255
vn 0.4898841 -0.8661172 0.09926951
vn 0.4820459 -0.8739554 0.06191601
vn 0.6780007 -0.7093534 0.1926986
vn 0.6936771 -0.6936771 0.1939697
vn 0.7015153 -0.6858389 0.1936527
vn 0.4898841 -0.8661172 0.09926951
vn 0.4977223 -0.8661172 0.04597175
vn 0.4742078 -0.8739554 -0.1064372
vn 0.5133987 -0.7563826 -0.4053482
vn 0.5055605 -0.772059 -0.385141
vn 0.5133987 -0.8190881 -0.2559619
vn 0.4506932 -0.7093534 -0.5419348
vn 0.003916383 -0.89747 -0.4410581
vn 0.003916383 -0.9053082 -0.4247373
vn 0.2860912 -0.8739554 -0.3928787
vn 0.003916383 -0.9288228 -0.3705036
vn 0.3487967 -0.8504409 -0.3938162
vn 0.3801495 -0.858279 -0.3447368
vn 0.003916383 -0.9601755 -0.2793702
vn 0.5133987 -0.8190881 -0.2559619
vn 0.003916383 0.9523427 0.305005
vn 0.1685184 0.9445046 0.2819799
vn 0.3252822 0.8661227 0.3795037
vn 0.003916383 0.9288282 0.37049
vn 0.3252822 0.9366663 0.1297988
vn 0.003916383 0.9915337 0.1297905
vn 0.4036641 0.8582844 -0.3168646
vn 0.003916383 0.9601809 -0.2793515
vn 0.003916383 0.8269317 -0.5622888
vn 0.278253 0.9131518 0.2978742
vn 0.4585314 0.8661227 0.1989485
vn 0.6858389 0.5839478 -0.4343155
vn 0.3252822 0.8582844 -0.3969123
vn 0.2390621 0.7485498 -0.6184841
vn 0.6152952 0.5525951 -0.5621837
vn 0.7015153 0.7015206 -0.1254797
vn 0.3409585 0.8974754 -0.2797948
vn -0.1293328 0.8112553 -0.5702087
vn 0.003916383 0.8661227 -0.4998162
vn -0.09798008 0.9053136 -0.4132883
vn 0.3723113 0.9209899 0.1147251
vn 0.4036641 0.9131518 -0.05664904
vn 0.09797466 0.9915337 0.08521662
vn 0.278253 0.9131518 0.2978742
vn 0.4585314 0.8661227 0.1989485
vn 0.1685184 0.9445046 0.2819799
vn 0.4115022 0.8974754 0.1587569
vn 0.6780007 0.591786 -0.4360096
vn 0.2312239 0.8896372 -0.3938035
vn 0.01959276 0.6701679 -0.7419509
vn 0.3409585 0.5134041 -0.7875046
vn 0.4736297 0.8807241 0
vn 0.2390621 0.9680191 0.07608183
vn -0.09014183 0.5525951 -0.8285609
vn -0.3331258 0.7093589 -0.621158
vn -0.2233911 0.9288282 -0.295592
vn 0.01959276 0.9993718 0.02953093
vn 0.1685184 0.9445046 0.2819799
vn 0.003916383 0.9758573 0.2183739
vn 0.3644731 0.9209899 0.1376115
vn 0.732868 -0.6780007 -0.05674077
vn 0.8504409 -0.5212369 -0.07115076
vn 0.8661172 -0.4977223 -0.04597175
vn 0.7485444 -0.6544861 -0.1064387
vn 0.858279 -0.5055605 -0.0881231
vn 0.6152952 -0.7798972 -0.1147705
vn 0.5761042 -0.8112499 -0.09988753
vn 0.2704148 -0.9601755 -0.07027689
vn 0.4977223 -0.8661172 -0.04597175
vn 0.4742078 -0.8739554 -0.1064372
vn 0.575299 -0.8179432 0
vn 0.5519864 -0.8338531 0
vn 0.575299 -0.8179432 0
vn 0.1606802 -0.9758519 0.1479696
vn -0.5604332 -0.8190881 0.1225126
vn -0.01175994 -0.9993665 0.0335913
vn -0.8034171 -0.5917806 -0.06570105
vn 0.8426027 -0.5369133 -0.04177196
vn 0.8347645 -0.5369133 0.1220343
vn -0.8504463 -0.3409585 -0.4006101
vn -0.05878907 -0.9758519 -0.2103733
vn 0.003916383 -0.8426027 -0.5385215
vn -0.7799025 0.05878907 -0.623134
vn 0.8426027 -0.4898841 0.2236835
vn 0.8190881 -0.3879877 0.4225639
vn 0.07446009 -0.9209846 -0.3824174
vn 0.9680137 -0.2077093 -0.1407349
vn 0.8896318 -0.2547385 -0.3790297
vn 0.7955735 -0.5055605 -0.3338732
vn 0.8739554 -0.4585314 -0.1610927
vn 0.9053082 -0.4193404 -0.06760668
vn 0.974786 -0.2231417 0
vn 0.9836901 0.01959819 -0.1788008
vn 0.9366609 -0.02743095 -0.3491616
vn 0.9993665 0.01175994 -0.0335911
vn 0.8190881 -0.4506932 -0.354923
vn 0.8190881 -0.4350168 -0.373972
vn 0.9601755 -0.05094552 -0.2747136
vn 0.9915283 -0.09013647 0.09352597
vn 0.9288228 -0.3252822 0.1774254
vn 0.9366609 -0.2939294 0.1904516
vn 0.9758519 -0.1685184 0.1389772
vn 0.9601755 0.1998765 0.195224
vn 0.9993665 0.01175994 -0.0335911
vn 0.9366609 -0.317444 0.1479717
vn 0.9288228 0.3331258 0.1622205
vn 0.9209846 -0.3487967 0.1735749
vn 0.9915283 0.03527457 -0.1250096
vn 0.9915283 0.01175994 -0.1293576
vn 0.8504409 0.1998765 -0.4866207
vn 0.9758519 0.1058182 -0.1910906
vn 0.8661172 -0.4977223 -0.04597175
vn 0.8426027 -0.4506932 -0.294782
vn 0.8896318 -0.2939294 -0.349515
vn 0.3723113 0.717197 -0.5890779
vn 0.7955735 0.3174494 -0.5160316
vn 0.8896318 -0.3252822 -0.3205413
vn 0.8190881 0.3566403 -0.4493355
vn 0.3096058 0.9131518 -0.2651379
vn 0.9131464 0.3566403 -0.1974117
vn 0.858279 0.4820513 -0.1760217
vn 0.7093534 0.6780061 0.1926796
vn 0.8896318 0.1058182 -0.4442496
vn 0.8504409 0.1998765 -0.4866207
vn 0.9053082 -0.02743095 -0.4238686
vn 0.8112499 -0.4898841 -0.3191976
vn 0.5055605 0.5604332 -0.6559902
vn 0.6231334 0.717197 -0.3119829
vn 0.9651228 0.2617978 0
vn 0.7015153 0.6936825 -0.163343
vn 0.8896318 -0.278253 -0.3621194
vn 0.7015153 0.3958313 -0.5926162
vn 0.6466479 0.7407116 -0.1821888
vn 0.4820459 0.8582844 -0.1760101
vn 0.4585314 0.8661227 0.1989485
vn 0.3252822 0.8661227 0.3795037
vn 0.6623243 0.6780061 0.3188012
vn 0.4663696 0.7093589 -0.5284973
vn 0.7877353 0.3801549 -0.4847219
vn 0.4350168 0.5525951 -0.7109143
vn 0.7015153 0.262582 -0.6625157
vn 0.5369133 0.756388 -0.3736326
vn 0.858279 0.2939348 -0.4206655
vn 0.4036641 0.9131518 -0.05664904
vn -0.003921807 0.8269317 -0.5622888
vn 0.01959276 0.7955789 -0.6055331
vn 0.4506932 0.8896372 0.07362975
vn 0.0666219 0.9523427 -0.2976658
vn 0.113651 0.7642261 -0.6348557
vn 0.7877353 0.1136565 -0.6054381
vn 0.3801495 0.8347699 -0.3983034
vn 0.8739554 0.176362 -0.4528778
vn 0.8034117 -0.4350168 -0.4065587
vn 0.9209846 0.2077147 -0.3296089
vn 0.5839424 0.7328734 -0.349153
vn 0.9444991 -0.1920329 0.2665421
vn 0.9758519 0.1058182 -0.1910906
vn 0.8504409 0.1998765 -0.4866207
vn 0.8896318 -0.2939294 -0.349515
vn 0.9053082 -0.3566349 -0.2307132
vn 0.4036641 -0.9131464 -0.05673631
vn 0.8817936 -0.08229828 -0.4643996
vn 0.7171916 0.6780061 -0.161071
vn -0.9758573 -0.0666219 0.208
vn -0.881799 -0.4193404 0.2158334
vn -0.9680191 -0.2312239 0.09733768
vn -0.7642261 -0.6309716 0.1335413
vn -0.8661227 -0.4663696 -0.1798082
vn -0.8269317 -0.1293274 -0.547228
vn -0.5663661 -0.8241538 0
vn -0.6388151 -0.5917806 -0.4916411
vn -0.881799 -0.08229828 -0.4643893
vn -0.9680191 -0.2312239 0.09733768
vn -0.8269317 -0.1293274 -0.547228
vn -0.6153006 0.3723167 -0.6948277
vn -0.6780061 -0.152842 -0.7189903
vn -0.9915337 0.1058182 -0.07525562
vn -0.9758573 -0.0666219 0.208
vn -0.6780061 -0.7093534 0.1926796
vn -0.4820513 -0.8739554 0.06187412
vn -0.4898896 -0.8661172 0.09924279
vn -0.6936825 -0.6936771 0.1939503
vn -0.7015206 -0.6858389 0.1936333
vn -0.4898896 -0.8661172 0.09924279
vn -0.4977277 -0.8661172 0.04591337
vn -0.5134041 -0.8190881 -0.255951
vn -0.5055659 -0.772059 -0.3851337
vn -0.5134041 -0.7563826 -0.4053414
vn -0.4742132 -0.8739554 -0.1064131
vn -0.4506986 -0.7093534 -0.5419304
vn 0.003916383 -0.89747 -0.4410581
vn -0.2860966 -0.8739554 -0.3928747
vn 0.003916383 -0.9053082 -0.4247373
vn 0.003916383 -0.9288228 -0.3705036
vn -0.3488021 -0.8504409 -0.3938114
vn -0.3801549 -0.858279 -0.3447308
vn 0.003916383 -0.9601755 -0.2793702
vn -0.5134041 -0.8190881 -0.255951
vn -0.3252875 0.8661227 0.3794991
vn -0.1685237 0.9445046 0.2819767
vn 0.003916383 0.9523427 0.305005
vn 0.003916383 0.9288282 0.37049
vn -0.3252875 0.9366663 0.1297855
vn 0.003916383 0.9915337 0.1297905
vn 0.003916383 0.9601809 -0.2793515
vn -0.4036694 0.8582844 -0.3168578
vn 0.003916383 0.8269317 -0.5622888
vn -0.2782584 0.9131518 0.2978692
vn -0.4585368 0.8661227 0.1989361
vn -0.6858442 0.5839478 -0.434307
vn -0.6153006 0.5525951 -0.5621778
vn -0.2390675 0.7485498 -0.618482
vn -0.3252875 0.8582844 -0.3969079
vn -0.7015206 0.7015206 -0.1254498
vn -0.3409639 0.8974754 -0.2797883
vn -0.003921807 0.8661227 -0.4998161
vn 0.1293274 0.8112553 -0.5702099
vn 0.09797466 0.9053136 -0.4132896
vn -0.3723167 0.9209899 0.1147079
vn -0.4036694 0.9131518 -0.05661115
vn -0.09798008 0.9915337 0.08521032
vn -0.4585368 0.8661227 0.1989361
vn -0.2782584 0.9131518 0.2978692
vn -0.1685237 0.9445046 0.2819767
vn -0.4115077 0.8974754 0.1587429
vn -0.3409639 0.5134041 -0.7875023
vn -0.01959819 0.6701679 -0.7419508
vn -0.2312292 0.8896372 -0.3938003
vn -0.6780061 0.591786 -0.4360012
vn -0.2390675 0.9680191 0.07606459
vn -0.4736339 0.8807219 0
vn 0.09013647 0.5525951 -0.8285614
vn 0.3331203 0.7093589 -0.6211609
vn 0.2233857 0.9288282 -0.295596
vn -0.01959819 0.9993718 0.02952689
vn -0.1685237 0.9445046 0.2819767
vn 0.003916383 0.9758573 0.2183739
vn -0.3644785 0.9209899 0.1375972
vn -0.8661227 -0.4977223 -0.04586986
vn -0.8504463 -0.5212369 -0.07108623
vn -0.7328734 -0.6780007 -0.0566714
vn -0.7485498 -0.6544861 -0.1064009
vn -0.6153006 -0.7798972 -0.1147414
vn -0.5761096 -0.8112499 -0.0998565
vn -0.2704203 -0.9601755 -0.07025611
vn -0.8582844 -0.5055605 -0.08807066
vn -0.4977277 -0.8661172 -0.04591337
vn -0.4742132 -0.8739554 -0.1064131
vn -0.5519902 -0.8338507 0
vn -0.5753025 -0.8179407 0
vn -0.5753025 -0.8179407 0
vn 0.5604278 -0.8190881 0.1225369
vn -0.1606856 -0.9758519 0.1479637
vn 0.8034117 -0.5917806 -0.06576724
vn 0.01175457 -0.9993665 0.03359308
vn -0.842608 -0.5369133 -0.04166337
vn -0.8347699 -0.5369133 0.1219972
vn 0.8504409 -0.3409585 -0.4006215
vn 0.05878371 -0.9758519 -0.2103749
vn -0.003921807 -0.8426027 -0.5385215
vn 0.7798972 0.05878907 -0.6231406
vn -0.842608 -0.4898841 0.2236632
vn -0.8190935 -0.3879877 0.4225534
vn -0.07446545 -0.9209846 -0.3824164
vn -0.8896372 -0.2547385 -0.3790171
vn -0.9680191 -0.2077093 -0.1406981
vn -0.8739608 -0.4585314 -0.1610636
vn -0.7955789 -0.5055605 -0.3338605
vn -0.9053136 -0.4193404 -0.06753479
vn -0.9747863 -0.2231405 0
vn -0.9993718 0.01175994 -0.03343102
vn -0.9836954 0.01959819 -0.1787713
vn -0.9366663 -0.02743095 -0.3491472
vn -0.8190935 -0.4506932 -0.3549104
vn -0.8190935 -0.4350168 -0.3739601
vn -0.9601809 -0.05094552 -0.2746946
vn -0.9915337 -0.09013647 0.09346828
vn -0.9758573 -0.1685184 0.138939
vn -0.9366663 -0.2939294 0.1904251
vn -0.9288282 -0.3252822 0.1773971
vn -0.9601809 0.1998765 0.1951973
vn -0.9993718 0.01175994 -0.03343102
vn -0.9366663 -0.317444 0.1479377
vn -0.9288282 0.3331258 0.1621895
vn -0.9915337 0.03527457 -0.1249664
vn -0.9209899 -0.3487967 0.1735466
vn -0.9915337 0.01175994 -0.1293159
vn -0.8504463 0.1998765 -0.4866113
vn -0.9758573 0.1058182 -0.1910628
vn -0.8661227 -0.4977223 -0.04586986
vn -0.8896372 -0.2939294 -0.3495013
vn -0.842608 -0.4506932 -0.2947666
vn -0.8190935 0.3566403 -0.4493256
vn -0.8896372 -0.3252822 -0.3205265
vn -0.3096111 0.9131518 -0.2651316
vn -0.3723167 0.717197 -0.5890746
vn -0.7955789 0.3174494 -0.5160233
vn -0.9131518 0.3566403 -0.1973867
vn -0.7093589 0.6780061 0.1926596
vn -0.8582844 0.4820513 -0.1759955
vn -0.8504463 0.1998765 -0.4866113
vn -0.8896372 0.1058182 -0.4442389
vn -0.9053136 -0.02743095 -0.4238572
vn -0.8112553 -0.4898841 -0.319184
vn -0.5055659 0.5604332 -0.655986
vn -0.6231387 0.717197 -0.3119722
vn -0.9651231 0.2617964 0
vn -0.7015206 0.6936825 -0.16332
vn -0.7015206 0.3958313 -0.5926098
vn -0.8896372 -0.278253 -0.3621063
vn -0.6466534 0.7407116 -0.1821695
vn -0.4820513 0.8582844 -0.1759954
vn -0.4585368 0.8661227 0.1989361
vn -0.3252875 0.8661227 0.3794991
vn -0.6623297 0.6780061 0.31879
vn -0.7877408 0.3801549 -0.4847131
vn -0.4663749 0.7093589 -0.5284926
vn -0.4350222 0.5525951 -0.710911
vn -0.7015206 0.262582 -0.66251
vn -0.5369187 0.756388 -0.3736248
vn -0.8582844 0.2939348 -0.4206545
vn -0.4036694 0.9131518 -0.05661115
vn 0.003916383 0.8269317 -0.5622888
vn -0.01959819 0.7955789 -0.6055329
vn -0.4506986 0.8896372 0.07359696
vn -0.06662732 0.9523427 -0.2976646
vn -0.1136565 0.7642261 -0.6348548
vn -0.7877408 0.1136565 -0.605431
vn -0.3801549 0.8347699 -0.3982981
vn -0.8739608 0.176362 -0.4528675
vn -0.8034171 -0.4350168 -0.406548
vn -0.9209899 0.2077147 -0.3295939
vn -0.9758573 0.1058182 -0.1910628
vn -0.9445046 -0.1920329 0.2665229
vn -0.5839478 0.7328734 -0.349144
vn -0.8504463 0.1998765 -0.4866113
vn -0.8896372 -0.2939294 -0.3495013
vn -0.9053136 -0.3566349 -0.2306922
vn -0.4036694 -0.9131464 -0.05669848
vn -0.881799 -0.08229828 -0.4643893
vn -0.717197 0.6780061 -0.1610472
vn -0.717197 0.6780061 -0.1610472
g G_CA_Prinzeugen_Hair_001_lod_0
f 3/3/3 2/2/2 1/1/1
f 4/4/4 2/2/2 3/3/3
f 2/2/2 4/4/4 5/5/5
f 6/6/6 2/2/2 5/5/5
f 4/4/4 7/7/7 5/5/5
f 7/7/7 8/8/8 5/5/5
f 8/8/8 6/6/6 5/5/5
f 11/11/11 10/10/10 9/9/9
f 9/9/9 12/12/12 11/11/11
f 12/12/12 9/9/9 13/13/13
f 9/9/9 10/10/10 13/13/13
f 12/12/12 14/14/14 11/11/11
f 11/11/11 14/14/14 15/15/15
f 18/18/18 17/17/17 16/16/16
f 19/19/19 18/18/18 16/16/16
f 20/20/20 18/18/18 19/19/19
f 21/21/21 16/16/16 17/17/17
f 22/22/22 21/21/21 17/17/17
f 25/25/25 24/24/24 23/23/23
f 26/26/26 25/25/25 23/23/23
f 25/25/25 27/27/27 24/24/24
f 30/30/30 29/29/29 28/28/28
f 29/29/29 30/30/30 31/31/31
f 30/30/30 32/32/32 31/31/31
f 33/33/33 31/31/31 32/32/32
f 34/34/34 31/31/31 33/33/33
f 35/35/35 33/33/33 32/32/32
f 38/38/38 37/37/37 36/36/36
f 39/39/39 38/38/38 36/36/36
f 37/37/37 40/40/40 36/36/36
f 40/40/40 41/41/41 36/36/36
f 40/40/40 42/42/42 41/41/41
f 42/42/42 43/43/43 41/41/41
f 42/42/42 44/44/44 43/43/43
f 37/37/37 38/38/38 45/45/45
f 46/46/46 45/45/45 38/38/38
f 49/49/49 48/48/48 47/47/47
f 50/50/50 49/49/49 47/47/47
f 49/49/49 50/50/50 51/51/51
f 52/52/52 49/49/49 51/51/51
f 49/49/49 52/52/52 53/53/53
f 52/52/52 54/54/54 53/53/53
f 55/55/55 48/48/48 49/49/49
f 53/53/53 55/55/55 49/49/49
f 47/47/47 48/48/48 56/56/56
f 56/56/56 48/48/48 55/55/55
f 57/57/57 47/47/47 56/56/56
f 58/58/58 56/56/56 55/55/55
f 56/56/56 59/59/59 57/57/57
f 59/59/59 56/56/56 58/58/58
f 59/59/59 60/60/60 57/57/57
f 61/61/61 59/59/59 58/58/58
f 62/62/62 52/52/52 51/51/51
f 62/62/62 54/54/54 52/52/52
f 65/65/65 64/64/64 63/63/63
f 66/66/66 65/65/65 63/63/63
f 67/67/67 63/63/63 64/64/64
f 68/68/68 67/67/67 64/64/64
f 65/65/65 66/66/66 69/69/69
f 69/69/69 70/70/70 65/65/65
f 64/64/64 71/71/71 68/68/68
f 65/65/65 70/70/70 71/71/71
f 64/64/64 65/65/65 71/71/71
f 71/71/71 72/72/72 68/68/68
f 68/68/68 72/72/72 73/73/73
f 67/67/67 68/68/68 73/73/73
f 72/72/72 74/74/74 73/73/73
f 75/75/75 67/67/67 73/73/73
f 78/78/78 77/77/77 76/76/76
f 79/79/79 78/78/78 76/76/76
f 78/78/78 79/79/79 80/80/80
f 79/79/79 81/81/81 80/80/80
f 79/79/79 82/82/82 81/81/81
f 82/82/82 79/79/79 76/76/76
f 82/82/82 83/83/83 81/81/81
f 84/84/84 82/82/82 76/76/76
f 84/84/84 76/76/76 85/85/85
f 84/84/84 85/85/85 86/86/86
f 87/87/87 84/84/84 86/86/86
f 86/86/86 88/88/88 87/87/87
f 81/81/81 83/83/83 89/89/89
f 81/81/81 89/89/89 80/80/80
f 83/83/83 90/90/90 89/89/89
f 91/91/91 89/89/89 90/90/90
f 92/92/92 91/91/91 90/90/90
f 89/89/89 93/93/93 80/80/80
f 89/89/89 91/91/91 93/93/93
f 91/91/91 94/94/94 93/93/93
f 91/91/91 92/92/92 95/95/95
f 96/96/96 91/91/91 95/95/95
f 96/96/96 95/95/95 97/97/97
f 95/95/95 98/98/98 97/97/97
f 99/99/99 96/96/96 97/97/97
f 91/91/91 96/96/96 99/99/99
f 94/94/94 91/91/91 99/99/99
f 100/100/100 99/99/99 97/97/97
f 101/101/101 97/97/97 98/98/98
f 101/101/101 100/100/100 97/97/97
f 104/104/104 103/103/103 102/102/102
f 105/105/105 104/104/104 102/102/102
f 106/106/106 105/105/105 102/102/102
f 107/107/107 106/106/106 102/102/102
f 102/102/102 108/108/108 107/107/107
f 102/102/102 109/109/109 108/108/108
f 102/102/102 103/103/103 109/109/109
f 108/108/108 110/110/110 107/107/107
f 103/103/103 104/104/104 111/111/111
f 112/112/112 103/103/103 111/111/111
f 109/109/109 103/103/103 112/112/112
f 113/113/113 108/108/108 109/109/109
f 116/116/116 115/115/115 114/114/114
f 117/117/117 116/116/116 114/114/114
f 117/117/117 114/114/114 118/118/118
f 119/119/119 117/117/117 118/118/118
f 120/120/120 115/115/115 116/116/116
f 121/121/121 118/118/118 114/114/114
f 121/121/121 114/114/114 122/122/122
f 123/123/123 121/121/121 122/122/122
f 124/124/124 121/121/121 123/123/123
f 125/125/125 124/124/124 123/123/123
f 126/126/126 125/125/125 123/123/123
f 123/123/123 122/122/122 126/126/126
f 122/122/122 127/127/127 126/126/126
f 126/126/126 127/127/127 128/128/128
f 129/129/129 126/126/126 128/128/128
f 129/129/129 130/130/130 125/125/125
f 131/131/131 129/129/129 125/125/125
f 128/128/128 132/132/132 129/129/129
f 132/132/132 133/133/133 129/129/129
f 134/134/134 130/130/130 129/129/129
f 133/133/133 134/134/134 129/129/129
f 124/124/124 135/135/135 121/121/121
f 121/121/121 135/135/135 136/136/136
f 137/137/137 121/121/121 136/136/136
f 138/138/138 135/135/135 124/124/124
f 136/136/136 135/135/135 138/138/138
f 139/139/139 138/138/138 124/124/124
f 138/138/138 139/139/139 140/140/140
f 139/139/139 141/141/141 140/140/140
f 142/142/142 136/136/136 138/138/138
f 138/138/138 140/140/140 143/143/143
f 142/142/142 138/138/138 143/143/143
f 143/143/143 140/140/140 144/144/144
f 140/140/140 141/141/141 144/144/144
f 137/137/137 136/136/136 145/145/145
f 145/145/145 136/136/136 146/146/146
f 147/147/147 145/145/145 146/146/146
f 145/145/145 148/148/148 137/137/137
f 137/137/137 148/148/148 149/149/149
f 150/150/150 137/137/137 149/149/149
f 137/137/137 150/150/150 151/151/151
f 152/152/152 137/137/137 151/151/151
f 149/149/149 148/148/148 153/153/153
f 148/148/148 154/154/154 153/153/153
f 155/155/155 153/153/153 154/154/154
f 156/156/156 155/155/155 154/154/154
f 155/155/155 156/156/156 157/157/157
f 156/156/156 158/158/158 157/157/157
f 159/159/159 149/149/149 153/153/153
f 149/149/149 159/159/159 150/150/150
f 160/160/160 159/159/159 153/153/153
f 153/153/153 155/155/155 160/160/160
f 155/155/155 161/161/161 160/160/160
f 162/162/162 157/157/157 158/158/158
f 162/162/162 163/163/163 157/157/157
f 163/163/163 161/161/161 155/155/155
f 157/157/157 163/163/163 155/155/155
f 152/152/152 118/118/118 121/121/121
f 137/137/137 152/152/152 121/121/121
f 145/145/145 147/147/147 164/164/164
f 148/148/148 145/145/145 164/164/164
f 164/164/164 147/147/147 165/165/165
f 166/166/166 164/164/164 165/165/165
f 167/167/167 166/166/166 165/165/165
f 165/165/165 168/168/168 167/167/167
f 165/165/165 147/147/147 146/146/146
f 168/168/168 165/165/165 146/146/146
f 169/169/169 133/133/133 132/132/132
f 169/169/169 134/134/134 133/133/133
f 172/172/172 171/171/171 170/170/170
f 173/173/173 172/172/172 170/170/170
f 171/171/171 172/172/172 174/174/174
f 171/171/171 174/174/174 175/175/175
f 174/174/174 176/176/176 175/175/175
f 177/177/177 175/175/175 176/176/176
f 177/177/177 178/178/178 175/175/175
f 178/178/178 170/170/170 171/171/171
f 175/175/175 178/178/178 171/171/171
f 181/181/181 180/180/180 179/179/179
f 181/181/181 182/182/182 180/180/180
f 182/182/182 181/181/181 183/183/183
f 181/181/181 184/184/184 183/183/183
f 185/185/185 182/182/182 183/183/183
f 186/186/186 185/185/185 183/183/183
f 184/184/184 186/186/186 183/183/183
f 189/189/189 188/188/188 187/187/187
f 190/190/190 187/187/187 188/188/188
f 187/187/187 190/190/190 191/191/191
f 189/189/189 187/187/187 191/191/191
f 192/192/192 190/190/190 188/188/188
f 192/192/192 188/188/188 193/193/193
f 196/196/196 195/195/195 194/194/194
f 197/197/197 196/196/196 194/194/194
f 194/194/194 198/198/198 197/197/197
f 196/196/196 199/199/199 195/195/195
f 199/199/199 200/200/200 195/195/195
f 203/203/203 202/202/202 201/201/201
f 204/204/204 203/203/203 201/201/201
f 205/205/205 202/202/202 203/203/203
f 208/208/208 207/207/207 206/206/206
f 207/207/207 208/208/208 209/209/209
f 210/210/210 207/207/207 209/209/209
f 209/209/209 211/211/211 210/210/210
f 209/209/209 212/212/212 211/211/211
f 211/211/211 213/213/213 210/210/210
f 216/216/216 215/215/215 214/214/214
f 217/217/217 216/216/216 214/214/214
f 218/218/218 215/215/215 216/216/216
f 219/219/219 218/218/218 216/216/216
f 219/219/219 220/220/220 218/218/218
f 220/220/220 221/221/221 218/218/218
f 222/222/222 221/221/221 220/220/220
f 214/214/214 215/215/215 223/223/223
f 223/223/223 224/224/224 214/214/214
f 227/227/227 226/226/226 225/225/225
f 228/228/228 227/227/227 225/225/225
f 226/226/226 227/227/227 229/229/229
f 227/227/227 230/230/230 229/229/229
f 230/230/230 227/227/227 231/231/231
f 227/227/227 232/232/232 231/231/231
f 232/232/232 227/227/227 228/228/228
f 233/233/233 232/232/232 228/228/228
f 234/234/234 228/228/228 225/225/225
f 235/235/235 234/234/234 225/225/225
f 236/236/236 233/233/233 228/228/228
f 234/234/234 236/236/236 228/228/228
f 234/234/234 235/235/235 237/237/237
f 238/238/238 234/234/234 237/237/237
f 236/236/236 234/234/234 238/238/238
f 239/239/239 236/236/236 238/238/238
f 230/230/230 240/240/240 229/229/229
f 231/231/231 240/240/240 230/230/230
f 243/243/243 242/242/242 241/241/241
f 244/244/244 243/243/243 241/241/241
f 245/245/245 243/243/243 244/244/244
f 246/246/246 245/245/245 244/244/244
f 241/241/241 242/242/242 247/247/247
f 248/248/248 247/247/247 242/242/242
f 248/248/248 242/242/242 243/243/243
f 249/249/249 243/243/243 245/245/245
f 249/249/249 248/248/248 243/243/243
f 250/250/250 249/249/249 245/245/245
f 250/250/250 245/245/245 251/251/251
f 252/252/252 250/250/250 251/251/251
f 253/253/253 251/251/251 245/245/245
f 246/246/246 253/253/253 245/245/245
f 256/256/256 255/255/255 254/254/254
f 257/257/257 256/256/256 254/254/254
f 257/257/257 254/254/254 258/258/258
f 257/257/257 258/258/258 259/259/259
f 257/257/257 259/259/259 256/256/256
f 258/258/258 260/260/260 259/259/259
f 254/254/254 261/261/261 258/258/258
f 259/259/259 262/262/262 256/256/256
f 256/256/256 262/262/262 263/263/263
f 262/262/262 264/264/264 263/263/263
f 264/264/264 265/265/265 263/263/263
f 266/266/266 265/265/265 264/264/264
f 260/260/260 258/258/258 267/267/267
f 258/258/258 268/268/268 267/267/267
f 269/269/269 267/267/267 268/268/268
f 270/270/270 269/269/269 268/268/268
f 271/271/271 268/268/268 258/258/258
f 261/261/261 271/271/271 258/258/258
f 272/272/272 270/270/270 268/268/268
f 271/271/271 272/272/272 268/268/268
f 273/273/273 269/269/269 270/270/270
f 274/274/274 273/273/273 270/270/270
f 270/270/270 272/272/272 274/274/274
f 274/274/274 275/275/275 273/273/273
f 275/275/275 276/276/276 273/273/273
f 274/274/274 277/277/277 275/275/275
f 272/272/272 277/277/277 274/274/274
f 277/277/277 278/278/278 275/275/275
f 275/275/275 279/279/279 276/276/276
f 278/278/278 279/279/279 275/275/275
f 282/282/282 281/281/281 280/280/280
f 283/283/283 282/282/282 280/280/280
f 282/282/282 284/284/284 281/281/281
f 284/284/284 285/285/285 281/281/281
f 285/285/285 286/286/286 281/281/281
f 286/286/286 287/287/287 281/281/281
f 288/288/288 281/281/281 287/287/287
f 280/280/280 281/281/281 288/288/288
f 289/289/289 283/283/283 280/280/280
f 290/290/290 289/289/289 280/280/280
f 280/280/280 288/288/288 290/290/290
f 287/287/287 291/291/291 288/288/288
f 294/294/294 293/293/293 292/292/292
f 295/295/295 294/294/294 292/292/292
f 296/296/296 292/292/292 293/293/293
f 297/297/297 296/296/296 293/293/293
f 295/295/295 298/298/298 294/294/294
f 296/296/296 299/299/299 292/292/292
f 292/292/292 299/299/299 300/300/300
f 301/301/301 292/292/292 300/300/300
f 299/299/299 302/302/302 300/300/300
f 302/302/302 303/303/303 300/300/300
f 303/303/303 304/304/304 300/300/300
f 301/301/301 300/300/300 304/304/304
f 305/305/305 301/301/301 304/304/304
f 304/304/304 306/306/306 305/305/305
f 306/306/306 307/307/307 305/305/305
f 307/307/307 306/306/306 308/308/308
f 309/309/309 307/307/307 308/308/308
f 308/308/308 306/306/306 310/310/310
f 306/306/306 311/311/311 310/310/310
f 311/311/311 306/306/306 312/312/312
f 303/303/303 311/311/311 312/312/312
f 313/313/313 302/302/302 299/299/299
f 313/313/313 299/299/299 314/314/314
f 315/315/315 313/313/313 314/314/314
f 302/302/302 313/313/313 316/316/316
f 313/313/313 317/317/317 316/316/316
f 317/317/317 313/313/313 315/315/315
f 316/316/316 317/317/317 318/318/318
f 319/319/319 316/316/316 318/318/318
f 320/320/320 317/317/317 315/315/315
f 321/321/321 318/318/318 317/317/317
f 320/320/320 321/321/321 317/317/317
f 318/318/318 321/321/321 322/322/322
f 319/319/319 318/318/318 322/322/322
f 315/315/315 314/314/314 323/323/323
f 323/323/323 324/324/324 315/315/315
f 324/324/324 325/325/325 315/315/315
f 326/326/326 323/323/323 314/314/314
f 324/324/324 323/323/323 326/326/326
f 327/327/327 326/326/326 314/314/314
f 328/328/328 327/327/327 314/314/314
f 328/328/328 314/314/314 329/329/329
f 314/314/314 330/330/330 329/329/329
f 326/326/326 327/327/327 331/331/331
f 327/327/327 332/332/332 331/331/331
f 332/332/332 333/333/333 331/331/331
f 333/333/333 334/334/334 331/331/331
f 333/333/333 335/335/335 334/334/334
f 335/335/335 336/336/336 334/334/334
f 332/332/332 327/327/327 337/337/337
f 337/337/337 327/327/327 328/328/328
f 338/338/338 332/332/332 337/337/337
f 333/333/333 332/332/332 338/338/338
f 339/339/339 333/333/333 338/338/338
f 335/335/335 333/333/333 339/339/339
f 314/314/314 299/299/299 330/330/330
f 299/299/299 296/296/296 330/330/330
f 335/335/335 340/340/340 336/336/336
f 341/341/341 340/340/340 335/335/335
f 341/341/341 335/335/335 339/339/339
f 342/342/342 324/324/324 326/326/326
f 324/324/324 342/342/342 343/343/343
f 342/342/342 344/344/344 343/343/343
f 344/344/344 345/345/345 343/343/343
f 346/346/346 343/343/343 345/345/345
f 343/343/343 346/346/346 325/325/325
f 324/324/324 343/343/343 325/325/325
f 308/308/308 347/347/347 309/309/309
f 310/310/310 347/347/347 308/308/308
f 350/350/350 349/349/349 348/348/348
f 351/351/351 350/350/350 348/348/348
f 348/348/348 349/349/349 352/352/352
f 349/349/349 353/353/353 352/352/352
f 353/353/353 354/354/354 352/352/352
f 353/353/353 355/355/355 354/354/354
f 356/356/356 355/355/355 353/353/353
f 357/357/357 353/353/353 349/349/349
f 350/350/350 357/357/357 349/349/349
