g G_CA_Prinzeugen_Eye_001
v -0.02665262 -0.01896525 1.486237
v -0.02587824 -0.01870713 1.484219
v -0.03596862 -0.01570348 1.480652
v -0.02547932 -0.01826127 1.482036
v -0.02545585 -0.01769809 1.47976
v -0.02580784 -0.01699411 1.477531
v -0.02646489 -0.0162432 1.475419
v -0.02745046 -0.01546882 1.473518
v -0.02787285 -0.01898872 1.48802
v -0.02951547 -0.01877753 1.489428
v -0.03148662 -0.01835514 1.490484
v -0.03366895 -0.01776849 1.491188
v -0.03596862 -0.01706451 1.491517
v -0.03826828 -0.0162432 1.49147
v -0.04045062 -0.01539842 1.491047
v -0.04242176 -0.01455365 1.49025
v -0.02874109 -0.01467098 1.471946
v -0.03031331 -0.01392007 1.470749
v -0.03207326 -0.01321609 1.469975
v -0.03397401 -0.01258251 1.469576
v -0.03594515 -0.01201932 1.469553
v -0.0379163 -0.01152654 1.469905
v -0.03981704 -0.01115108 1.470608
v -0.04160045 -0.01086949 1.471688
v -0.0431492 -0.01072869 1.473119
v -0.04443984 -0.01070523 1.474879
v -0.04544887 -0.01082256 1.476897
v -0.04610592 -0.01103375 1.479056
v -0.04645791 -0.01138574 1.481309
v -0.04643445 -0.0118316 1.483515
v -0.04605899 -0.01237131 1.485603
v -0.04526114 -0.0130049 1.487481
v -0.04406438 -0.01373234 1.489076
v 0.0358373 -0.01570348 1.480652
v 0.02574692 -0.01870713 1.484219
v 0.0265213 -0.01896525 1.486237
v 0.025348 -0.01826127 1.482036
v 0.02532454 -0.01769809 1.47976
v 0.02567653 -0.01699411 1.477531
v 0.02633357 -0.0162432 1.475419
v 0.02731914 -0.01546882 1.473518
v 0.02774153 -0.01898872 1.48802
v 0.02938415 -0.01877753 1.489428
v 0.0313553 -0.01835514 1.490484
v 0.03353763 -0.01776849 1.491188
v 0.0358373 -0.01706451 1.491517
v 0.03813696 -0.0162432 1.49147
v 0.0403193 -0.01539842 1.491047
v 0.04229044 -0.01455365 1.49025
v 0.02860978 -0.01467098 1.471946
v 0.03018199 -0.01392007 1.470749
v 0.03194194 -0.01321609 1.469975
v 0.03384269 -0.01258251 1.469576
v 0.03581383 -0.01201932 1.469553
v 0.03778498 -0.01152654 1.469905
v 0.03968572 -0.01115108 1.470608
v 0.04146913 -0.01086949 1.471688
v 0.04301789 -0.01072869 1.473119
v 0.04430852 -0.01070523 1.474879
v 0.04529409 -0.01082256 1.476897
v 0.0459746 -0.01103375 1.479056
v 0.04632659 -0.01138574 1.481309
v 0.04630313 -0.0118316 1.483515
v 0.04592767 -0.01237131 1.485603
v 0.04512983 -0.0130049 1.487481
v 0.04393306 -0.01373234 1.489076
v -0.02916348 -0.01772156 1.48206
v -0.02806058 -0.01809701 1.482529
v -0.02780245 -0.01809701 1.482271
v -0.02855337 -0.01800315 1.482693
v -0.02773205 -0.01805008 1.48199
v -0.02916348 -0.01788582 1.482764
v -0.02784938 -0.01793275 1.481708
v -0.02815444 -0.01781542 1.481473
v -0.02862376 -0.01767462 1.481379
v -0.02918695 -0.0175573 1.481356
v -0.02972666 -0.01743997 1.481426
v -0.03019598 -0.01739303 1.481591
v -0.03050104 -0.01736957 1.481849
v -0.03061837 -0.01739303 1.48213
v -0.02975013 -0.01772156 1.48274
v -0.03024291 -0.01758076 1.482623
v -0.03052451 -0.01746343 1.482412
v 0.04315868 -0.01328649 1.482271
v 0.04433198 -0.01293449 1.482834
v 0.04461358 -0.01274677 1.482576
v 0.04379227 -0.01316915 1.482998
v 0.04470744 -0.0126529 1.482248
v 0.04315868 -0.01340382 1.483045
v 0.04459011 -0.01262944 1.481943
v 0.04426159 -0.01269984 1.481684
v 0.04374534 -0.01288756 1.48152
v 0.04315868 -0.01314569 1.481473
v 0.04257204 -0.01342728 1.481544
v 0.04205578 -0.01368541 1.481684
v 0.04175073 -0.0138262 1.481966
v 0.04160993 -0.01392007 1.482271
v 0.0425251 -0.01363848 1.482998
v 0.04198539 -0.0138262 1.482834
v 0.04170379 -0.0138966 1.482576
vt 0.8997625 0.7575478
vt 0.9307579 0.672766
vt 0.4731185 0.4949976
vt 0.9444324 0.5797794
vt 0.9407859 0.484058
vt 0.9225532 0.3883366
vt 0.8897345 0.2971734
vt 0.8432412 0.2151265
vt 0.8505343 0.83139
vt 0.7812502 0.8888229
vt 0.6964684 0.9298463
vt 0.6016586 0.955372
vt 0.5013791 0.9654
vt 0.4010995 0.9590185
vt 0.3053781 0.9371394
vt 0.2178614 0.8997625
vt 0.7858084 0.1458424
vt 0.7165243 0.09296774
vt 0.6390356 0.05741408
vt 0.5569887 0.03735816
vt 0.4722068 0.03371163
vt 0.3883366 0.04647449
vt 0.3072014 0.07382346
vt 0.2324475 0.1175818
vt 0.16681 0.1750147
vt 0.1130237 0.2479452
vt 0.07200019 0.3309038
vt 0.04556286 0.422067
vt 0.0328 0.5150536
vt 0.0355349 0.6089517
vt 0.05467918 0.6973801
vt 0.09114447 0.7776037
vt 0.1458424 0.8468878
vt 0.4731185 0.4949976
vt 0.9307579 0.672766
vt 0.8997625 0.7575478
vt 0.9444324 0.5797794
vt 0.9407859 0.484058
vt 0.9225532 0.3883366
vt 0.8897345 0.2971734
vt 0.8432412 0.2151265
vt 0.8505343 0.83139
vt 0.7812502 0.8888229
vt 0.6964684 0.9298463
vt 0.6016586 0.955372
vt 0.5013791 0.9654
vt 0.4010995 0.9590185
vt 0.3053781 0.9371394
vt 0.2178614 0.8997625
vt 0.7858084 0.1458424
vt 0.7165243 0.09296774
vt 0.6390356 0.05741408
vt 0.5569887 0.03735816
vt 0.4722068 0.03371163
vt 0.3883366 0.04647449
vt 0.3072014 0.07382346
vt 0.2324475 0.1175818
vt 0.16681 0.1750147
vt 0.1130237 0.2479452
vt 0.07200019 0.3309038
vt 0.04556286 0.422067
vt 0.0328 0.5150536
vt 0.0355349 0.6089517
vt 0.05467918 0.6973801
vt 0.09114447 0.7776037
vt 0.1458424 0.8468878
vt 0.8423296 0.08111652
vt 0.9143485 0.1130237
vt 0.9325812 0.09752589
vt 0.8833531 0.1230516
vt 0.9362277 0.07838162
vt 0.8441529 0.1266981
vt 0.928023 0.06014897
vt 0.9079672 0.04556286
vt 0.8769717 0.03735816
vt 0.8405063 0.0355349
vt 0.804041 0.03918143
vt 0.7739572 0.04920939
vt 0.7548129 0.06470713
vt 0.7475199 0.08293978
vt 0.804041 0.1248749
vt 0.7721339 0.1157586
vt 0.7529896 0.1011724
vt 0.1440192 0.08111652
vt 0.2133032 0.1139353
vt 0.2333591 0.09752589
vt 0.1813961 0.1230516
vt 0.2397406 0.07929325
vt 0.1412843 0.1266981
vt 0.2333591 0.06014897
vt 0.2142149 0.04556286
vt 0.1832194 0.03735816
vt 0.1458424 0.0355349
vt 0.1084655 0.03918143
vt 0.07564673 0.04920939
vt 0.05559081 0.06470713
vt 0.04738612 0.08293978
vt 0.1020841 0.1239632
vt 0.07017693 0.1157586
vt 0.05285591 0.1011724
vn -0.2209536 -0.9566429 -0.1897734
vn -0.2104393 -0.9566429 -0.2013697
vn -0.2945533 -0.9303572 -0.2183434
vn -0.1999251 -0.9513857 -0.2342972
vn -0.1999251 -0.9461286 -0.2546971
vn -0.1999251 -0.9408715 -0.2734791
vn -0.2051822 -0.9408715 -0.2695574
vn -0.2104393 -0.9356143 -0.2834451
vn -0.2419821 -0.9566429 -0.1621083
vn -0.2630105 -0.9566429 -0.1251396
vn -0.284039 -0.9513857 -0.1191094
vn -0.3050675 -0.9461286 -0.10851
vn -0.3208389 -0.9408715 -0.1087347
vn -0.3313532 -0.9356143 -0.1217821
vn -0.3471246 -0.9303572 -0.1180679
vn -0.3576388 -0.9251001 -0.1276099
vn -0.2209536 -0.9303572 -0.2926004
vn -0.2262107 -0.9251001 -0.3049894
vn -0.236725 -0.9251001 -0.2969025
vn -0.2524962 -0.919843 -0.3002243
vn -0.2682676 -0.9145858 -0.3025974
vn -0.284039 -0.9093287 -0.3040447
vn -0.3050675 -0.9040716 -0.2993132
vn -0.3260961 -0.9040716 -0.2762535
vn -0.3471246 -0.8988144 -0.2676512
vn -0.362896 -0.8988144 -0.2458437
vn -0.3786674 -0.8988144 -0.2207795
vn -0.3839245 -0.8988144 -0.2115055
vn -0.3839245 -0.9040716 -0.1877675
vn -0.3839245 -0.9093287 -0.160385
vn -0.3786674 -0.9093287 -0.1724307
vn -0.3734102 -0.9145858 -0.1552339
vn -0.362896 -0.919843 -0.1489814
vn 0.2942449 -0.9303572 -0.2187589
vn 0.2101309 -0.9566429 -0.2016915
vn 0.2206451 -0.9566429 -0.1901319
vn 0.1996166 -0.9513857 -0.2345601
vn 0.1996166 -0.9461286 -0.2549389
vn 0.2048737 -0.9408715 -0.2697918
vn 0.2048737 -0.9408715 -0.2697918
vn 0.2101309 -0.9356143 -0.2836738
vn 0.2416736 -0.9566429 -0.1625678
vn 0.2627021 -0.9566429 -0.1257857
vn 0.2837306 -0.9513857 -0.1198422
vn 0.3047591 -0.9461286 -0.1093734
vn 0.3205305 -0.9408715 -0.1096406
vn 0.3310448 -0.9356143 -0.1226179
vn 0.3468162 -0.9303572 -0.1189707
vn 0.3573304 -0.9251001 -0.1284711
vn 0.2206451 -0.9303572 -0.292833
vn 0.2259023 -0.9251001 -0.305218
vn 0.2416736 -0.9251001 -0.2928885
vn 0.2521878 -0.919843 -0.3004833
vn 0.2679592 -0.9145858 -0.3028706
vn 0.2837306 -0.9093287 -0.3043325
vn 0.3047591 -0.9040716 -0.2996273
vn 0.3257877 -0.9040716 -0.2766171
vn 0.3468162 -0.8988144 -0.2680506
vn 0.3625875 -0.8988144 -0.2462983
vn 0.3783589 -0.8988144 -0.2213078
vn 0.383616 -0.8988144 -0.2120645
vn 0.383616 -0.9040716 -0.1883969
vn 0.383616 -0.9093287 -0.1611213
vn 0.3783589 -0.9093287 -0.1731066
vn 0.3731018 -0.9145858 -0.1559738
vn 0.3625875 -0.919843 -0.1497305
vn -0.2209536 -0.9513857 -0.2145803
vn -0.2262107 -0.9461286 -0.2316664
vn -0.2262107 -0.9461286 -0.2316664
vn -0.2314678 -0.9513857 -0.2031941
vn -0.2209536 -0.9461286 -0.2366857
vn -0.2314678 -0.9513857 -0.2031941
vn -0.2209536 -0.9461286 -0.2366857
vn -0.2209536 -0.9513857 -0.2145803
vn -0.2156965 -0.9513857 -0.2198642
vn -0.2104393 -0.9513857 -0.2249011
vn -0.2156965 -0.9513857 -0.2198642
vn -0.2209536 -0.9566429 -0.1897734
vn -0.2209536 -0.9566429 -0.1897734
vn -0.2209536 -0.9566429 -0.1897734
vn -0.2314678 -0.9513857 -0.2031941
vn -0.2262107 -0.9513857 -0.2090309
vn -0.2262107 -0.9566429 -0.1834752
vn 0.3783589 -0.9145858 -0.142749
vn 0.3625875 -0.9093287 -0.2040873
vn 0.3678446 -0.9040716 -0.2175889
vn 0.3520733 -0.9251001 -0.1422471
vn 0.3731018 -0.9040716 -0.2084459
vn 0.3415591 -0.9251001 -0.1659134
vn 0.3731018 -0.9040716 -0.2084459
vn 0.383616 -0.9040716 -0.1883969
vn 0.3993874 -0.9040716 -0.1521325
vn 0.4099017 -0.8988144 -0.1552842
vn 0.4046445 -0.9040716 -0.1375407
vn 0.3888732 -0.9145858 -0.1109522
vn 0.3783589 -0.919843 -0.1036025
vn 0.3783589 -0.919843 -0.1036025
vn 0.3520733 -0.9251001 -0.1422471
vn 0.3678446 -0.9251001 -0.09423449
vn 0.3783589 -0.919843 -0.1036025
g G_CA_Prinzeugen_Eye_001_0
f 3/3/3 2/2/2 1/1/1
f 2/2/2 3/3/3 4/4/4
f 3/3/3 5/5/5 4/4/4
f 5/5/5 3/3/3 6/6/6
f 3/3/3 7/7/7 6/6/6
f 7/7/7 3/3/3 8/8/8
f 9/9/9 3/3/3 1/1/1
f 9/9/9 10/10/10 3/3/3
f 11/11/11 3/3/3 10/10/10
f 3/3/3 11/11/11 12/12/12
f 13/13/13 3/3/3 12/12/12
f 3/3/3 13/13/13 14/14/14
f 15/15/15 3/3/3 14/14/14
f 3/3/3 15/15/15 16/16/16
f 17/17/17 8/8/8 3/3/3
f 17/17/17 3/3/3 18/18/18
f 3/3/3 19/19/19 18/18/18
f 19/19/19 3/3/3 20/20/20
f 3/3/3 21/21/21 20/20/20
f 21/21/21 3/3/3 22/22/22
f 3/3/3 23/23/23 22/22/22
f 23/23/23 3/3/3 24/24/24
f 25/25/25 24/24/24 3/3/3
f 25/25/25 3/3/3 26/26/26
f 3/3/3 27/27/27 26/26/26
f 27/27/27 3/3/3 28/28/28
f 3/3/3 29/29/29 28/28/28
f 29/29/29 3/3/3 30/30/30
f 3/3/3 31/31/31 30/30/30
f 31/31/31 3/3/3 32/32/32
f 33/33/33 32/32/32 3/3/3
f 33/33/33 3/3/3 16/16/16
f 36/36/36 35/35/35 34/34/34
f 37/37/37 34/34/34 35/35/35
f 37/37/37 38/38/38 34/34/34
f 39/39/39 34/34/34 38/38/38
f 39/39/39 40/40/40 34/34/34
f 41/41/41 34/34/34 40/40/40
f 36/36/36 34/34/34 42/42/42
f 34/34/34 43/43/43 42/42/42
f 43/43/43 34/34/34 44/44/44
f 45/45/45 44/44/44 34/34/34
f 45/45/45 34/34/34 46/46/46
f 47/47/47 46/46/46 34/34/34
f 47/47/47 34/34/34 48/48/48
f 49/49/49 48/48/48 34/34/34
f 34/34/34 41/41/41 50/50/50
f 51/51/51 34/34/34 50/50/50
f 51/51/51 52/52/52 34/34/34
f 53/53/53 34/34/34 52/52/52
f 53/53/53 54/54/54 34/34/34
f 55/55/55 34/34/34 54/54/54
f 55/55/55 56/56/56 34/34/34
f 57/57/57 34/34/34 56/56/56
f 34/34/34 57/57/57 58/58/58
f 59/59/59 34/34/34 58/58/58
f 59/59/59 60/60/60 34/34/34
f 61/61/61 34/34/34 60/60/60
f 61/61/61 62/62/62 34/34/34
f 63/63/63 34/34/34 62/62/62
f 63/63/63 64/64/64 34/34/34
f 65/65/65 34/34/34 64/64/64
f 34/34/34 65/65/65 66/66/66
f 49/49/49 34/34/34 66/66/66
f 69/69/69 68/68/68 67/67/67
f 67/67/67 68/68/68 70/70/70
f 69/69/69 67/67/67 71/71/71
f 67/67/67 70/70/70 72/72/72
f 67/67/67 73/73/73 71/71/71
f 67/67/67 74/74/74 73/73/73
f 75/75/75 74/74/74 67/67/67
f 75/75/75 67/67/67 76/76/76
f 67/67/67 77/77/77 76/76/76
f 67/67/67 78/78/78 77/77/77
f 79/79/79 78/78/78 67/67/67
f 79/79/79 67/67/67 80/80/80
f 81/81/81 67/67/67 72/72/72
f 81/81/81 82/82/82 67/67/67
f 67/67/67 82/82/82 83/83/83
f 67/67/67 83/83/83 80/80/80
f 86/86/86 85/85/85 84/84/84
f 84/84/84 85/85/85 87/87/87
f 86/86/86 84/84/84 88/88/88
f 84/84/84 87/87/87 89/89/89
f 84/84/84 90/90/90 88/88/88
f 84/84/84 91/91/91 90/90/90
f 92/92/92 91/91/91 84/84/84
f 92/92/92 84/84/84 93/93/93
f 84/84/84 94/94/94 93/93/93
f 84/84/84 95/95/95 94/94/94
f 96/96/96 95/95/95 84/84/84
f 96/96/96 84/84/84 97/97/97
f 98/98/98 84/84/84 89/89/89
f 98/98/98 99/99/99 84/84/84
f 84/84/84 99/99/99 100/100/100
f 84/84/84 100/100/100 97/97/97
