g G_CA_Prinzeugen_Mech_002_lod
v 0.004335135 -0.2896623 0.9331951
v 8.225441E-06 -0.2971568 0.07841429
v 0.008662045 -0.2971568 0.9331951
v -0.004318655 -0.2896623 0.9331951
v -0.008645564 -0.2971568 0.9331951
v 8.225441E-06 -0.2971568 0.07841429
v 8.225441E-06 -0.2971568 0.07841429
v 0.004335135 -0.3046512 0.9331951
v 8.225441E-06 -0.2971568 0.07841429
v -0.004318655 -0.3046512 0.9331951
v -0.008645564 -0.2971568 0.9331951
v -3.316998E-05 -0.2989786 1.052112
v 0.004335135 -0.2896623 0.9331951
v 0.008662045 -0.2971568 0.9331951
v -0.004318655 -0.2896623 0.9331951
v -3.316998E-05 -0.2989786 1.052112
v -0.008645564 -0.2971568 0.9331951
v -3.316998E-05 -0.2989786 1.052112
v 0.004335135 -0.3046512 0.9331951
v -3.316998E-05 -0.2989786 1.052112
v -0.004318655 -0.3046512 0.9331951
v -0.008645564 -0.2971568 0.9331951
vt 0.2542125 0.4525268
vt 0.104 0.4525268
vt 0.2542125 0.4550584
vt 0.2542125 0.4499951
vt 0.2542125 0.4483073
vt 0.104 0.4525268
vt 0.104 0.4525268
vt 0.2542125 0.4575901
vt 0.104 0.4575901
vt 0.2542125 0.4592779
vt 0.2542125 0.4618095
vt 0.9470465 0.3343821
vt 0.9537977 0.2339591
vt 0.9470465 0.2339591
vt 0.9605489 0.2339591
vt 0.9470465 0.3343821
vt 0.9672999 0.2339591
vt 0.9470465 0.3343821
vt 0.9394516 0.2339591
vt 0.9267932 0.3343821
vt 0.9327004 0.2339591
vt 0.9259493 0.2339591
vn 0.4977624 0.866185 0.04422788
vn -0.003919423 0.003919423 -0.9999846
vn 0.9994443 0.003919423 0.03310179
vn -0.4977624 0.866185 0.04422855
vn -0.9994443 0.003919423 0.03310179
vn -0.003919423 0.003919423 -0.9999846
vn -0.003919423 0.003919423 -0.9999846
vn 0.5041141 -0.8636372 0
vn -0.003919423 0.003919423 -0.9999846
vn -0.504114 -0.8636372 0
vn -0.9994443 0.003919423 0.03310179
vn -0.003919423 -0.03527451 0.99937
vn 0.4977624 0.866185 0.04422788
vn 0.9994443 0.003919423 0.03310179
vn -0.4977624 0.866185 0.04422855
vn -0.003919423 -0.03527451 0.99937
vn -0.9994443 0.003919423 0.03310179
vn -0.003919423 -0.03527451 0.99937
vn 0.5041141 -0.8636372 0
vn -0.003919423 -0.03527451 0.99937
vn -0.504114 -0.8636372 0
vn -0.9994443 0.003919423 0.03310179
g G_CA_Prinzeugen_Mech_002_lod_0
f 3/3/3 2/2/2 1/1/1
f 1/1/1 2/2/2 4/4/4
f 4/4/4 6/6/6 5/5/5
f 3/3/3 8/8/8 7/7/7
f 10/10/10 9/9/9 8/8/8
f 11/11/11 9/9/9 10/10/10
f 14/14/14 13/13/13 12/12/12
f 13/13/13 15/15/15 12/12/12
f 15/15/15 17/17/17 16/16/16
f 19/19/19 14/14/14 18/18/18
f 21/21/21 19/19/19 20/20/20
f 22/22/22 21/21/21 20/20/20
